/* XPM */
static char *_fcab32a5bab41d49acf287d67afb100U3XrPnwo9Ww9j9QW[] = {
/* columns rows colors chars-per-pixel */
"64 64 111 2 ",
"   c #000000",
".  c #0B0B0B",
"X  c #120100",
"o  c #131313",
"O  c #181717",
"+  c #1C1C1C",
"@  c #201F1F",
"#  c #232323",
"$  c #282727",
"%  c #2C2B2B",
"&  c #302F2F",
"*  c #343333",
"=  c #383737",
"-  c #3C3B3B",
";  c #562921",
":  c #403F3F",
">  c #444444",
",  c #484747",
"<  c #4C4B4B",
"1  c #504F4F",
"2  c #535353",
"3  c #585757",
"4  c #5B5B5B",
"5  c #605F5F",
"6  c #646464",
"7  c #686767",
"8  c #6C6C6C",
"9  c #706F6F",
"0  c #747474",
"q  c #787777",
"w  c #7B7A7A",
"e  c #804F47",
"r  c #A87E77",
"t  c #838383",
"y  c #888787",
"u  c #8B8B8B",
"i  c #908F8F",
"p  c #949393",
"a  c #989797",
"s  c #999898",
"d  c #9B9B9B",
"f  c gray61",
"g  c gray62",
"h  c #A1A1A1",
"j  c #A2A2A2",
"k  c gray64",
"l  c #A5A5A5",
"z  c gray65",
"x  c #A7A7A7",
"c  c #A9A9A9",
"v  c #ABAAAA",
"b  c #ABABAB",
"n  c gray68",
"m  c #AFAFAF",
"M  c #B0AFAF",
"N  c gray69",
"B  c #B1B1B1",
"V  c gray70",
"C  c #B4B4B4",
"Z  c #B6B6B6",
"A  c #B7B6B6",
"S  c #BCBCBC",
"D  c gray",
"F  c gray75",
"G  c #CDBEBB",
"H  c #D6BAB5",
"J  c #D4BEBB",
"K  c gray76",
"L  c #C3C3C3",
"P  c #C4C4C4",
"I  c #C6C6C6",
"U  c gray78",
"Y  c #CEC5C4",
"T  c #C8C8C8",
"R  c #CACACA",
"E  c #CBCBCB",
"W  c #CCCBCB",
"Q  c gray80",
"!  c #CDCDCD",
"~  c #CECECE",
"^  c #D1C3C1",
"/  c #D2C9C7",
"(  c #D1CCCB",
")  c #D0D0D0",
"_  c #D3D3D3",
"`  c gray83",
"'  c gray84",
"]  c #D7D7D7",
"[  c #D8D8D8",
"{  c gray85",
"}  c gray86",
"|  c #DCDBDB",
" . c gray87",
".. c gray88",
"X. c gray89",
"o. c #E4E4E4",
"O. c #E7E6E6",
"+. c #E7E7E7",
"@. c #E9E9E9",
"#. c #ECECEC",
"$. c gray93",
"%. c gray94",
"&. c #F1F1F1",
"*. c #F3F3F3",
"=. c #F4F4F4",
"-. c #F6F6F6",
";. c gray97",
":. c #F8F8F8",
">. c gray98",
",. c gray99",
"<. c #FEFEFE",
/* pixels */
"                                                                                                                                ",
"                                                              c c u 0                                                           ",
"                                                      % < > = - , , > * > 0 0                                                   ",
"                                                # = # 6 z ' &.<.<.<.<.&._ j 3 , 6                                               ",
"                                              3 * t X.>.>.<.>.>.>.<.>.>.<.<.>.S > 2                                             ",
"                                            3 - E >.-.>.>.>.>.>.>.>.>.>.>.>.>.>.@.2 <                                           ",
"                                          > * ' -.-.-.>.-.>.-.>.-.>.>.>.>.>.>.>.>.O.- 6                                         ",
"                                          # n -.-.-.-.-.-.-.-.-.-.-.>.-.-.-.>.-.-.>.V 3                                         ",
"                                        $ > -.-.-.-.*.-.-.-.-.-.-.-.-.-.-.-.-.-.-.-.&.< z                                       ",
"                                        . z &.-.&.*.*.-.*.*.*.&.-.&.-.-.-.-.-.-.-.-.-.u u                                       ",
"                                      $ * O.&.&.&.&.&.&.&.-.&.-.&.-.&.-.-.&.-.-.-.-.-.S 2                                       ",
"                                      $ u $.&.&.&.&.&.&.&.&.&.&.&.&.&.&.&.&.&.&.&.&.&.X.$                                       ",
"                                      # { &.$.%.&.&.&.&.&.&.%.%.&.&.&.&.&.&.&.&.&.&.&.&.- 3                                     ",
"                                    < - $.$.$.$.$.$.$.$.$.$.$.&.&.$.$.&.$.&.&.&.&.&.&.&.> 3                                     ",
"                                    2 6 #.#.$.#.$.$.$.$.$.$.$.$.$.$.$.$.$.&.$.$.$.$.&.$.3 2                                     ",
"                                    > t $.@.$.@.$.@.$.$.#.$.$.$.$.@.$.$.$.$.$.$.$.$.$.$.3 1                                     ",
"                                    = p @.@.@.@.O.z 9 3 8 j O.@.$.@.j 7 4 8 z O.@.$.$.$.3 2                                     ",
"                                    + z @.@.@.W 1 > u z p > 3  . .4 > p z u > 2 ! $.@.$.3 <                                     ",
"                                    . C +.O._ : w -.<.<.<.&.4 8 6 6 &.<.<.<.-.w > ' @.@.3 <                                     ",
"                                    . K O.O.6 8 <.<.<.<.<.<.X.* * X.<.<.<.<.<.<.8 6 O.@.1 ,                                     ",
"                                  = o K O.U * X.<.<.<.<.<.<.<.3 4 <.<.<.<.<.<.<.o.= E O.> >                                     ",
"                                  4 o U X.a 3 <.<.<.<.E V <.<.7 8 <.,.b ! <.<.<.<.3 d o.- -                                     ",
"                                  4 o K X.u 0 <.<.<.-.- & U <.3 3 <.c & - -.<.<.<.8 u O.- -                                     ",
"      2 = -                       > o S  .a 3 <.<.<.<.3 -  .{ * * | ! - 4 <.<.<.<.3 a X.- >                                     ",
"    , 0 g < 3                       o C  .U * ' <.<.<.>.-.>.6 8 7 6 >.-.>.<.<.<.{ * U X.- >                                     ",
"  - 2 { { { w =                     o V  . .0 2 O.<.<.<.$.8 > ` ( , 0 $.<.<.<.O.2 0  .X.- >                                     ",
"  o j { { { { y %                   o n  .{ ' 6 - w p 0 - 4 E  . .W 3 - q p w - 6 {  . .< 6                                     ",
"> # E { { { { { y =                 o z  .{ { { c w 7 w n { {  .|  .{ n w 7 q n  . . . .4 a                       6 3 , < 3     ",
"& > ' ' ' { ' ' ' w 2             . o j { { { { { { { { { { { { } {  .{ { | {  . .{  . .9 C                   . < = 6 u y - 7   ",
"$ 3 ' ' ' ' ' ' ' _ 6 0           O . s { { { { y 5 d { { { ] { { { { { { { { ! n K { { u s                 # O 8 ! {  . .K = y ",
"+ 8 ' ' _ ' ' ' ' ' E < p         * o s ' ' ' V       g { { { { { { { ' { { { > o t { { c 2             < % 6 U  .{  .{ { | 0 p ",
"O w ' _ _ _ _ _ _ ' _ S - p       2 % z ' ' ' c   .   . w s y S ` ! V V V V 6   . u { { _ - C       8 > < n { { { { { {  .{ z 3 ",
". t _ _ _ _ _ _ _ _ _ _ g , 9     6 s ! _ ' _ _ w         . $ O o > 2 * $ .   . 3 K ' ' ' u 2 n z 3 > a _ ' [ ' { ' { { ' { C - ",
". t ! _ ! _ ! ) ! _ ! _ _ 0 q     * F _ _ _ _ _ _ V 6 +             X X   . , p U _ ' ' ' ' g 0 w z ' ' ' ' ' ' ' ' ' ' ' [ z 2 ",
". t _ ! ! ! ) ) _ ! _ ! ! E < n L < _ ) ) ) _ ) _ _ ) Q i ,       X ; 4 r G _ _ _ _ _ _ _ ' _ ` ' _ _ ' ' ' ' _ ' ' ' ' ' ' u 8 ",
". t ! ! ! ) ! ! ! ! ! _ ! ! V = - g ! _ ! ) ) _ ) ) ) ) ! ) C % + a Y Y / ( ( _ _ _ _ _ _ _ _ _ _ _ _ _ _ _ _ _ ' ` _ _ _ ' 8 w ",
"O q E ! E E ! ! ! ! ! ! ! ! ! u z ! ! ! ! ! ) ! ! ! _ ! ~ ) ~ Q ) ! ` ) ( ( ( ( ! _ _ _ ! _ _ _ _ _ _ _ _ _ _ _ _ _ _ _ _ _ , 0 ",
"@ 7 E E E E Q E ! Q Q Q Q E Q Q ! ! Q ) ! Q Q ! ! Q ! ! ~ ~ ~ ~ ! ! ! ! ^ H H J E _ ! ! ! _ ! ! ! ! ! _ ' ! _ _ ) ` / ' _ U %   ",
"# 3 E E E E E E U E E E U E U E E E E E Q Q Q Q Q Q ! Q Q Q ~ Q ! ) ! ! E ^ J ^ ! ! ! ! ! _ ! _ ! ! ! _ ! ! ) _ ) ) _ ! _ k >   ",
"% > L U U U U E U E U E E E E E E E E E U E E E E E E Q Q R Q Q ! Q W Q ! Q Q Q ! ! ! ! ! ! ! ! ! ) ) ! ! ! ! ! ) ! ) ! ! w <   ",
"- * S U U E U U U U E U U U U E U U U E U E U E T T R R R R R R Q E E E E E E E E T E E E W Q E E ! E ! E ! W ! ! Q Q Q ! , >   ",
"2 + n U U K K U U U L U U U U L U U U U U U U U T T T T T T T T U E E U E E E T E E E E E E E E E E E E ! E ! E Q Q Q Q L @ #   ",
"4 O c K P K K K K L U U L U U U U U K U L U U U T T U T T T U T U U U U U T T U U E E U E U U E E U U E E U E E Q U Q E s $     ",
"  . j K K K K K K K K K K L K K K K K U K U K K P P L U P P U I U U U U U U U U U U U U T T T T U U U U E E U E T Q U Q 3 &     ",
"  o y S S P K F K G S K K K K K K K K K K K K K P N a F L L L L K K T K U P U U P U U U U U U U E U U U U s , z U U U Q $ -     ",
"  % 6 K K S S S F F F F F K F F F K F K K K K K c * * < S K L K K K K K K K K K K K P U K K P P K U U K K > q 2 U U U c O       ",
"  - > S S S 4 & 3 F F F F F F F F F F F F F F F , , .   p F F K K F K F K S P K K K K K K U K K L K K L h , 8 # V K K 0 =       ",
"  - # S S y 3 w * t S S S F S F F F S F F F F p @     . t F F F S K F K K G F K K S K K K S K K K K K K 6 3   o 8 S K > >       ",
"    @ s S 1 6   . - C G S S S S S S S S S S S > +       q D D D u 4 0 z C S K S K S K S F F U S F F F F = 2   o # z x #         ",
"    = 5 C # ,   = O x S S S S a 6 c S S S S c o       . 8 D D g # # o o 6 z S K S K S K F S S C F F F s -     %   7 0 6         ",
"    = # y =     * o b S S Z z = 8 4 S C A S 8 o       . 4 Z D 8 #     -   < c S S S S S S C > = i K F 6 4         # % y         ",
"      % # =       O z A Z S 6 u a # c S S A 3 -       @ , N Z 4 #       4 o u S S S S S S 6 t V , S C & 3       o   =           ",
"      % .         & d Z Z z * p   . u S C V * <       - % j G 4 #         o 7 S S C S S c % 0   # n u >                         ",
"                  > u C C 9 9     o 8 C C p =         4 + u C 6 o         = - S C S S C 9 2       0 > <                         ",
"                  < t C C - 9       * z C 6 3         w . y V 8 .         > o c V S C C * ,     o $ o                           ",
"                  3 w C i >         o y n * 2           o < z 8             # 6 C V V a *       # .                             ",
"                  2 7 V 3 7       6 . q t -             5   = - o           % $ z V C 3 >       -                               ",
"                  > 2 s =           o < * >               8 o   >           0 . t C n $ ,       w .                             ",
"                  % $ > 0           - o =                                     o < C y <                                         ",
"                    # >                                                       , + a > 8                                         ",
"                                                                                  > >                                           ",
"                                                                                <   -                                           ",
"                                                                                  0                                             ",
"                                                                                                                                "
};
