/* XPM */
static char *c2c03aef330542b7c6f9ccd5a11b5d13lXSKY0GiHwaITKmY[] = {
/* columns rows colors chars-per-pixel */
"64 64 101 2 ",
"   c black",
".  c #010101",
"X  c #020202",
"o  c gray1",
"O  c #040404",
"+  c gray2",
"@  c #060606",
"#  c #070707",
"$  c gray3",
"%  c #090909",
"&  c gray4",
"*  c #0C0C0C",
"=  c gray5",
"-  c gray6",
";  c #101010",
":  c gray7",
">  c #131313",
",  c #161616",
"<  c gray10",
"1  c #1B1B1B",
"2  c gray11",
"3  c #1D1D1D",
"4  c #202020",
"5  c gray13",
"6  c #222222",
"7  c #232323",
"8  c gray14",
"9  c #252525",
"0  c gray15",
"q  c #272727",
"w  c #282828",
"e  c gray16",
"r  c #2A2A2A",
"t  c gray17",
"y  c #2C2C2C",
"u  c #2D2D2D",
"i  c gray18",
"p  c #2F2F2F",
"a  c gray19",
"s  c #313131",
"d  c #323232",
"f  c gray20",
"g  c #343434",
"h  c #353535",
"j  c gray21",
"k  c #373737",
"l  c gray22",
"z  c #393939",
"x  c #3A3A3A",
"c  c gray23",
"v  c #3C3C3C",
"b  c gray24",
"n  c #3E3E3E",
"m  c #3F3F3F",
"M  c gray25",
"N  c #414141",
"B  c gray26",
"V  c #434343",
"C  c #444444",
"Z  c gray27",
"A  c #464646",
"S  c gray28",
"D  c #484848",
"F  c #494949",
"G  c gray29",
"H  c #4B4B4B",
"J  c #4C4C4C",
"K  c gray30",
"L  c #4E4E4E",
"P  c gray31",
"I  c #505050",
"U  c #515151",
"Y  c gray32",
"T  c #535353",
"R  c gray33",
"E  c #555555",
"W  c #565656",
"Q  c gray34",
"!  c #585858",
"~  c gray35",
"^  c #5A5A5A",
"/  c #5B5B5B",
"(  c gray36",
")  c #5D5D5D",
"_  c gray37",
"`  c #5F5F5F",
"'  c #606060",
"]  c gray38",
"[  c #626262",
"{  c #646464",
"}  c #656565",
"|  c #676767",
" . c #686868",
".. c #6A6A6A",
"X. c gray42",
"o. c gray44",
"O. c #777777",
"+. c #797979",
"@. c gray50",
"#. c #C8BE7B",
"$. c #808080",
/* pixels */
"                                              2 d q 5 H Z N N P N 2 2 x P N d y 5                                               ",
"                                            q ' Y n n H Y Y Y N H n x H H N ~ ' _ 1                                             ",
"                                          x ' d N g w R  ._ _ Z x 2 q N n x |  .H P 5                                           ",
"                                          Z  .w #.n #.P _ P #.H #.5 5 x x #.R #.P N y                                           ",
"                                          d o.q #.N #.P _ Y #.H #.5 5 x x #.Y #.P N 1                                           ",
"                                          q +.y #.Z #.H _ Y #.P #.5 5 x n #.R #.H H ,                                           ",
"                                          2 $.x #.N #.Z _ Y #.Z #.q 5 N n #.~ #.N H -                                           ",
"                                          ; $.N #.N #.H ~ Y #.Z #.w 2 N n #._ #.n P                                             ",
"                                          O +.H #.Z #.Z ~ R #.N #.q 5 Z g #._ #.Z Z                                             ",
"                                            ' Y #.Z #.H _ Y #.N #.q q N x #.~ #.Z n                                             ",
"                                            ~ | 5 N d H | _ ' N x q q x g ~ | R N g                                             ",
"                                            N  .n n d H R H Y N n w w x g N R Y H q                                             ",
"                                            & ; N _ ~ _ ~ Z Z Y R N P _ R Y R Z -                                               ",
"                                                  ; 2 H N   Z x d N   N H   O                                                   ",
"                                                      N x     N n     n                                                         ",
"                                                        g     Z N     Z                                                         ",
"                                                        g     Z N     n                                                         ",
"                                                        N     Z Z     H                                                         ",
"                                                        N     Z Z     Z                                                         ",
"                                                      Y N     Y H     N n                                                       ",
"                                                    H n P   H P H n   H N N &                                                   ",
"                                                  - P n Y Z H N N H Z P g P &                                                   ",
"                                                  1 ' Y P Z Z H Z Z N H P ~ ;                                                   ",
"                                                  w ~ P H H Z N Z N N H P R w                                                   ",
"                                                  N Y P Y H H Z Z Z Z P H P N                                                   ",
"                                                  ~ _ Y Z Z N Z Z Z N Z Y R H                                                   ",
"                                                  & - H g g g d d g g g Z   O                                                   ",
"                                                      N Z N n x x g n Z N                                                       ",
"                                                      P H Z n x x x N Z P                                                       ",
"                                                    P _ P P H Z Z H H H ~ P                                                     ",
"                                                  P _ Y _ Y N H H n P _ Y ~ g                                                   ",
"                                                  Z Y P ~ H N N N n H ~ H R y                                                   ",
"                                                    H d   Z x w w x N   d N                                                     ",
"                                                    Z w   H n w w n H   d g                                                     ",
"                                                    Z d   H Z d d Z H   x x                                                     ",
"                                                    Z x   H P g g Z H   x Z                                                     ",
"                                                    H g   P H x g H H   g Z                                                     ",
"                                                    N n   P H g g H H   x N                                                     ",
"                                                    N n   H P x x H Z   n N                                                     ",
"                                                    H d   H H x g H H   x H                                                     ",
"                                                    Z d   H H x g H H   x Z                                                     ",
"                                                    n x   H H x x H Z   n Z                                                     ",
"                                                    N x   H H x g Z Z   x N                                                     ",
"                                                    N g   H H g g H N   n N                                                     ",
"                                                    n g   H H g x Z Z   g H                                                     ",
"                                                    n d   Z H g g Z Z   g Z                                                     ",
"                                                    n g   Z H g g Z Z   g N                                                     ",
"                                                    n g   Z Z g g N N   x n                                                     ",
"                                                    x d   Z Z g d Z N   g n                                                     ",
"                                                    g d   N N d y N N   d N                                                     ",
"                                                    g y   N n d y n n   d x                                                     ",
"                                              O O - N g n Z Z y y Z N Z g x & &                                                 ",
"                                            & Y _ _ P Y ~ Z P d g H N _ P P ~ ~ H                                               ",
"                                            q Z Z N P Z n g y q w d g N H H N N Z 1                                             ",
"                                            x Z Z N Z x x n g y y x n x n N N N N y                                             ",
"                                            Z Z Z Z Z x g g x n n x g x n N Z N N x                                             ",
"                                          - H n N n x g g y d x g d y g n x x n x Z O                                           ",
"                                          2 Z n N n x g y y g g g d y d g n x n n Z ,                                           ",
"                                          w N n n n x d d d g g g g d d d x n n x N w                                           ",
"                                          x n n n x g d y y d d g d y d d g x x x n x                                           ",
"                                      O n H n n n g d d x g g x x g g n d d x x x n Z n                                         ",
"                                    w P Z N N N n x d y x n n n N n n g d g x n n N N Z H 5                                     ",
"                                    d Z g g g x g d x d d d d g d d g d d g d g g g y d n y                                     ",
"                                    - y g x x n x y d d d y y y d y y d d d d g x g x x d ;                                     "
};
