/* XPM */
static char *_a3ee22db453495be18a3ef2c35373e0Bh0CncX1zijYEMSt[] = {
/* columns rows colors chars-per-pixel */
"64 64 230 2 ",
"   c #000000",
".  c #090303",
"X  c #0D0D0D",
"o  c #070A08",
"O  c #150802",
"+  c #1D140A",
"@  c #1B180D",
"#  c #0E0F10",
"$  c #0F1210",
"%  c #141413",
"&  c #151718",
"*  c #171918",
"=  c #1B1C1C",
"-  c #181915",
";  c #2E180A",
":  c #221C12",
">  c #2D1D12",
",  c #271710",
"<  c #370C00",
"1  c #1E211F",
"2  c #25221B",
"3  c #2C2318",
"4  c #372818",
"5  c #36240D",
"6  c #1F2324",
"7  c #222520",
"8  c #262A29",
"9  c #2C2D2D",
"0  c #262B26",
"q  c #352C27",
"w  c #2A322D",
"e  c #373223",
"r  c #3C352B",
"t  c #3A3429",
"y  c #2F3330",
"u  c #333534",
"i  c #3B3935",
"p  c #393C3A",
"a  c #373937",
"s  c #432A18",
"d  c #48351B",
"f  c #58301D",
"g  c #622D14",
"h  c #6A351B",
"j  c #753A19",
"k  c #60270B",
"l  c #4D3A27",
"z  c #493826",
"x  c #593826",
"c  c #433C36",
"v  c #4C372C",
"b  c #713D29",
"n  c #6A3B31",
"m  c #3D423E",
"M  c #5D442C",
"N  c #49453C",
"B  c #464436",
"V  c #574837",
"C  c #4A402A",
"Z  c #654B3A",
"A  c #6A583E",
"S  c #714A30",
"D  c #3D4341",
"F  c #4B4A45",
"G  c #454946",
"H  c #544C45",
"J  c #4C524D",
"K  c #46534D",
"L  c #52524B",
"P  c #5B564B",
"I  c #575147",
"U  c #4D5554",
"Y  c #5A5B5C",
"T  c #5A5752",
"R  c #664F40",
"E  c #665B47",
"W  c #775D48",
"Q  c #635C53",
"!  c #685555",
"~  c #7C4E45",
"^  c #5B635B",
"/  c #566257",
"(  c #63645D",
")  c #6B6557",
"_  c #766655",
"`  c #766956",
"'  c #75705D",
"]  c #72634C",
"[  c #595E65",
"{  c #636564",
"}  c #6B6B64",
"|  c #686863",
" . c #726D63",
".. c #7F6966",
"X. c #6B746C",
"o. c #74756A",
"O. c #7A776B",
"+. c #6F7A74",
"@. c #7C7F7A",
"#. c #777A77",
"$. c #6A6D70",
"%. c #8B5639",
"&. c #8D6C3F",
"*. c #93693D",
"=. c #8A5C49",
"-. c #8B6849",
";. c #996B49",
":. c #86725C",
">. c #947456",
",. c #9E7343",
"<. c #A5744A",
"1. c #A5735C",
"2. c #B07E55",
"3. c #A26A53",
"4. c #8C7D6A",
"5. c #867965",
"6. c #907F67",
"7. c #9D7661",
"8. c #807F76",
"9. c #8B7A73",
"0. c #896C6A",
"q. c #BD7B64",
"w. c #798278",
"e. c #91856D",
"r. c #9C8069",
"t. c #848174",
"y. c #82847B",
"u. c #8A897D",
"i. c #888172",
"p. c #958C79",
"a. c #9B937D",
"s. c #969379",
"d. c #8E876F",
"f. c #AB8766",
"g. c #A58874",
"h. c #BA8B7D",
"j. c #A9947A",
"k. c #B69179",
"l. c #BA8E69",
"z. c #C39677",
"x. c #CE9270",
"c. c #6A7481",
"v. c #7C7F84",
"b. c #727B8F",
"n. c #737C91",
"m. c #7B8385",
"M. c #79889B",
"N. c #868C8D",
"B. c #878A86",
"V. c #958C84",
"C. c #999588",
"Z. c #999585",
"A. c #848D95",
"S. c #878D97",
"D. c #88919E",
"F. c #979997",
"G. c #8D9086",
"H. c #A39A84",
"J. c #A89988",
"K. c #B29D8B",
"L. c #B99A84",
"P. c #AF8B88",
"I. c #9EA19A",
"U. c #A8A18A",
"Y. c #BAA28B",
"T. c #ACA494",
"R. c #A7A89C",
"E. c #B9A797",
"W. c #BAB399",
"Q. c #838FA2",
"!. c #8896A7",
"~. c #969CA7",
"^. c #98A4A9",
"/. c #9CA5B5",
"(. c #9CA9BD",
"). c #A9AAA3",
"_. c #A2A5A7",
"`. c #BAB6A8",
"'. c #A7ABB7",
"]. c #B6BAB6",
"[. c #AAB5BA",
"{. c #C3A48A",
"}. c #C9A788",
"|. c #C5AB94",
" X c #C6AA96",
".X c #C9B39C",
"XX c #C8B398",
"oX c #D3B59A",
"OX c #D3AA9F",
"+X c #C4B4A6",
"@X c #CCB7A3",
"#X c #C9B9A9",
"$X c #D3BBA3",
"%X c #DAB9AC",
"&X c #D1B4A9",
"*X c #DBC4AC",
"=X c #CBC2B5",
"-X c #D9C9B6",
";X c #E6C8AB",
":X c #E5CBBA",
">X c #F3D9BE",
",X c #9AAAC5",
"<X c #9FB2CD",
"1X c #AEBCC6",
"2X c #B4BDC0",
"3X c #B7BDC7",
"4X c #B1BED2",
"5X c #ACBBD2",
"6X c #BBC4CB",
"7X c #BCCCE4",
"8X c #C8CBC7",
"9X c #C5CED5",
"0X c #D6D9D8",
"qX c #CED3D0",
"wX c #EBCEC5",
"eX c #F0CFC8",
"rX c #E9D8C6",
"tX c #E8CED0",
"yX c #DFE3DE",
"uX c #EEE0CF",
"iX c #F9E1CA",
"pX c #E8E3D9",
"aX c #F7E9D8",
"sX c #FFF3DC",
"dX c #C3D2EB",
"fX c #D2E3F9",
"gX c #FAF3EA",
"hX c #E0E9F0",
"jX c #FFFFF4",
"kX c #F8EFE3",
/* pixels */
"= X X X X X X X X X X X X X X X X X X X X X X X X X X X X X X X X X X X X X X X # X X * D # # # X X X X X X X X X X X X X X X = ",
"                                                                                      F.2X                                      ",
"X                                                                                   F hXD.                                    X ",
"X                                                                                 F yXfX#.                                    X ",
"X                                                                               y ].dX5X^                                     X ",
"X                                                                               B.qX,X9Xi                                     X ",
"X                                                                             D ).4X<X0X=                                     X ",
"X                                                                           X y.~.!.7X].X                                     X ",
"X                                                                           J @.(.n.~.@.                                      X ",
"X                                                                         # o.F.(.n.F.Q                                       X ",
"X                                                                         { 8./.D.1X`.u                                       X ",
"X                                                                       9 #.v./.Q.9X).o                                       X ",
"X                                                                       { ( ~.~./.8XJ                                         X ",
"X                                                                        .v.4X~.0X#Xo                                         X ",
"X                                                                     p B./.D.S.yXL                                           X ",
"X                                                                     } N.'.B.'.8Xo                                           X ",
"X                                                                   q I.N._.F.qX .                                            X ",
"X                                                                   { 8.v.F.3XyX=                                             X ",
"X                                                                 o y.N.'.V.qXZ.                                              X ",
"X                                                                 9 B.!.].C.yX0                                               X ",
"X                                                                 ( J } Z.T.`.o                                               X ",
"X                                                               - @.t d ) a.G.X                                               X ",
"X                                                               { N z A 5 t.0X&                                               X ",
"X                                                             8 G.N V j.d.p.].=                                               X ",
"X                                                             | w.U ` H.Z.a.@.                                                X ",
"X                                                           & u.} P d.U.Z.W.Y                                                 X ",
"X                                                           U V.Y E U.s.U.T.&                                                 X ",
"X                                                           8.8.P 5.j.Z.W.(                                                   X ",
"X                                                         y 8.F E J.H.U.W.=                                                   X ",
"X                                                         p T L ) s.s.W.o.                                                    X ",
"X                                               2 v.    . p L P i.e.e.XXu                                                     X ",
"X                                               2 } &   = L L V 6.4.U.R.X                                                     X ",
"X                                               = 2 $.  : N P O.:.5.`.#.                                                      X ",
"X                                                 c e B.{ 3 F 6Xu.a.C.F.=                                                     X ",
"X                                                 U B t #.o.A.2XX.t.H.R.G                                                     X ",
"X                                                 X B.r ] @.I.I.y.o.u.u                                                       X ",
"X                                                 4 f V s.D R.d. .).8                                                         X ",
"X                                               S g . Q 5.{ `.v P.wX%                                                         X ",
"X                                             q 1.~ . 5.Y F.:.0.eXh.                                                          X ",
"X                                           . ;.q.x 3 ' B.V.Z %XwXP.                                                          X ",
"X                                         X H %.h O E @.9X_ W wXiX%X$                                                         X ",
"X                                       r g.%.< . , ' ^.[.s k.%XaX#X8                                                         X ",
"X                                   & -.2. X@Xn   C +.2XQ s z.OX:X:XY                                                         X ",
"X                                   V <.<.k.tX! . ` D.8X> S {.&X*XsX`.&                                                       X ",
"X                                   B <.<.1.%X9.q o.[.V.. A %X-X*XiXuXG                                                       X ",
"X                                   I &.-.3.OXE.V m.8Xt . -.:XaXrXrXsXp.                                                      X ",
"X                                 o ) &.h 3.x.7.( 1X).  . >.eXgXaXuXiX`.o                                                     X ",
"X                                 e f ;.b j k R N.2XH   ; {.rXgXkXaX;XY.X                                                     X ",
"X                               c >.x %.g.g.r c ^._.O c P.|. XpXgXsXrX4.                                                      X ",
"X                             % _ &X..n OXjX5.u 7XY ) tX+XK.j.@XwXuXiXP                                                       X ",
"X                             u -. XV.b x.z.V +.D.c E.#X`.`.E.XXXX*X-Xu                                                       X ",
"X                             y ;.l.=.g S f Q ,XY R g.E.=X-X#X|.L.oX-Xp                                                       X ",
"X                             X ) 3.=.b < m N.!.q W 9.J.E.`.=XXX}.oX$Xu                                                       X ",
"X                               7 E =.k.Q B A.[ 4 R 0.J.T.E..X$X}.}.L.=                                                       X ",
"X                                 u ] M B ( Q.u x V _ g.T.+X@X$Xk.x.e..                                                       X ",
"X                                   p O t D.c.; Z R _ p.K.W..X|.k.f.F                                                         X ",
"X                                   % 4 U M.a 4 V Z _ e.T.W.$X}.l.:.1                                                         X ",
"X                                   7 e m.c.O v l V ] >.j.@X$XXX}.Q                                                           X ",
"X                                   r B D.G O l z l M A f.Y.Y.}.}.} o                                                         X ",
"X                                 o @ [ ~.  + 4 4 4 d M W g.XXj.C.m.a                                                         X ",
"X                                 $ O t p   + ; ; 5 s d M ' d.w.K / | m                                                       X ",
"X                                 % 3 @   . + : : 3 3 3 m 0 o 0 m K m w 7                                                     X ",
"                                  & @ @ % X   o o X 1 0 w 7 $ m / m D / +.&                                                     ",
"= X X X X X X X X X X X X X X X X % & X 1 2 $ $ $ 1 w m K / / / / w.w./ w.X.% X X X X X X X X X X X X X X X X X X X X X X X X = "
};
