/* XPM */
static char *_207ca40a5994ed49201bd5e82f533acZSbH67NY4VoGi2BV[] = {
/* columns rows colors chars-per-pixel */
"64 64 230 2 ",
"   c #000000",
".  c #090303",
"X  c #0B0C0B",
"o  c #070A08",
"O  c #150802",
"+  c #1D140A",
"@  c #1E190D",
"#  c #0E0F10",
"$  c #0F1210",
"%  c #141413",
"&  c #151718",
"*  c #1B1D1C",
"=  c #171A17",
"-  c #2E180A",
";  c #221C12",
":  c #2D1D12",
">  c #271710",
",  c #370C00",
"<  c #1E211F",
"1  c #24221C",
"2  c #2C2318",
"3  c #372818",
"4  c #36240D",
"5  c #1F2324",
"6  c #222520",
"7  c #262A29",
"8  c #2C2D2D",
"9  c #262B26",
"0  c #352C27",
"q  c #2A322D",
"w  c #373223",
"e  c #3C352B",
"r  c #3A3429",
"t  c #2F3330",
"y  c #333534",
"u  c #3B3935",
"i  c #393C3A",
"p  c #373937",
"a  c #432A18",
"s  c #48351B",
"d  c #58301D",
"f  c #622D14",
"g  c #6A351B",
"h  c #753A19",
"j  c #60270B",
"k  c #4D3A27",
"l  c #493826",
"z  c #593826",
"x  c #433C36",
"c  c #4C372C",
"v  c #713D29",
"b  c #6A3B31",
"n  c #3D423E",
"m  c #5D442C",
"M  c #49453C",
"N  c #464436",
"B  c #574837",
"V  c #4A402A",
"C  c #654B3A",
"Z  c #6A583E",
"A  c #714A30",
"S  c #3D4341",
"D  c #4B4A45",
"F  c #454946",
"G  c #544C45",
"H  c #4C524D",
"J  c #46534D",
"K  c #52524B",
"L  c #5B564B",
"P  c #575147",
"I  c #4D5554",
"U  c #5A5B5C",
"Y  c #5A5752",
"T  c #664F40",
"R  c #665B47",
"E  c #775D48",
"W  c #635C53",
"Q  c #685555",
"!  c #7C4E45",
"~  c #5B635B",
"^  c #566257",
"/  c #63645D",
"(  c #6B6557",
")  c #766655",
"_  c #766956",
"`  c #75705D",
"'  c #72634C",
"]  c #595E65",
"[  c #636564",
"{  c #6B6B64",
"}  c #686863",
"|  c #726D63",
" . c #7F6966",
".. c #6B746C",
"X. c #74756A",
"o. c #7A776B",
"O. c #6F7A74",
"+. c #7C7F7A",
"@. c #777A77",
"#. c #6A6D70",
"$. c #8B5639",
"%. c #8D6C3F",
"&. c #93693D",
"*. c #8A5C49",
"=. c #8B6849",
"-. c #996B49",
";. c #86725C",
":. c #947456",
">. c #9E7343",
",. c #A5744A",
"<. c #A5735C",
"1. c #B07E55",
"2. c #A26A53",
"3. c #8C7D6A",
"4. c #867965",
"5. c #907F67",
"6. c #9D7661",
"7. c #807F76",
"8. c #8B7A73",
"9. c #896C6A",
"0. c #BD7B64",
"q. c #798278",
"w. c #91856D",
"e. c #9C8069",
"r. c #848174",
"t. c #82847B",
"y. c #8A897D",
"u. c #888172",
"i. c #958C79",
"p. c #9B937D",
"a. c #969379",
"s. c #8E876F",
"d. c #AB8766",
"f. c #A58874",
"g. c #BA8B7D",
"h. c #A9947A",
"j. c #B69179",
"k. c #BA8E69",
"l. c #C39677",
"z. c #CE9270",
"x. c #6A7481",
"c. c #7C7F84",
"v. c #727B8F",
"b. c #737C91",
"n. c #7B8385",
"m. c #79889B",
"M. c #868C8D",
"N. c #878A86",
"B. c #958C84",
"V. c #9E9884",
"C. c #999588",
"Z. c #969485",
"A. c #848D95",
"S. c #878D97",
"D. c #88919E",
"F. c #979997",
"G. c #8D9086",
"H. c #A39A84",
"J. c #A89988",
"K. c #B29D8B",
"L. c #B99A84",
"P. c #AF8B88",
"I. c #9EA19A",
"U. c #A8A18A",
"Y. c #BAA28B",
"T. c #ACA494",
"R. c #A7A89C",
"E. c #B9A797",
"W. c #BAB399",
"Q. c #838FA2",
"!. c #8896A7",
"~. c #969CA7",
"^. c #98A4A9",
"/. c #9CA5B5",
"(. c #9CA9BD",
"). c #A9AAA3",
"_. c #A2A5A7",
"`. c #BAB6A8",
"'. c #A7ABB7",
"]. c #B6BAB6",
"[. c #AAB5BA",
"{. c #C3A48A",
"}. c #C9A788",
"|. c #C5AB94",
" X c #C6AA96",
".X c #C9B39C",
"XX c #C8B398",
"oX c #D3B59A",
"OX c #D3AA9F",
"+X c #C4B4A6",
"@X c #CCB7A3",
"#X c #C9B9A9",
"$X c #D3BBA3",
"%X c #DAB9AC",
"&X c #D1B4A9",
"*X c #DBC4AC",
"=X c #CBC2B5",
"-X c #D9C9B6",
";X c #E6C8AB",
":X c #E5CBBA",
">X c #F3D9BE",
",X c #9AAAC5",
"<X c #9FB2CD",
"1X c #AEBCC6",
"2X c #B4BDC0",
"3X c #B7BDC7",
"4X c #B1BED2",
"5X c #ACBBD2",
"6X c #BBC4CB",
"7X c #BCCCE4",
"8X c #C8CBC7",
"9X c #C5CED5",
"0X c #D6D9D8",
"qX c #CED3D0",
"wX c #EBCEC5",
"eX c #F0CFC8",
"rX c #E9D8C6",
"tX c #E8CED0",
"yX c #DFE3DE",
"uX c #EEE0CF",
"iX c #F9E1CA",
"pX c #E8E3D9",
"aX c #F7E9D8",
"sX c #FFF3DC",
"dX c #C3D2EB",
"fX c #D2E3F9",
"gX c #FAF3EA",
"hX c #E0E9F0",
"jX c #FFFFF4",
"kX c #F8EFE3",
/* pixels */
"                                                                                        S X                                     ",
"                                                                                      ~.].                                      ",
"                                                                                    D hXQ.                                      ",
"                                                                                  D yXfXc.                                      ",
"                                                                                t ].dX5X~                                       ",
"                                                                                N.9X,X9Xu                                       ",
"                                                                              n ).6X<X0X*                                       ",
"                                                                            X t.~.!.7X].X                                       ",
"                                                                            H t.'.v.~.+.                                        ",
"                                                                          # o.D.,Xb.F.U                                         ",
"                                                                          [ @./.D.1X`.y                                         ",
"                                                                        8 o.c.'.m.qX)..                                         ",
"                                                                        } / ~.~./.8XH                                           ",
"                                                                        { c.4X~.0X=Xo                                           ",
"                                                                      i N./.D.S.yXK                                             ",
"                                                                      { M.'.N.'.8Xo                                             ",
"                                                                    0 I.M._.F.0X|                                               ",
"                                                                    } 7.c.F.3X0X*                                               ",
"                                                                  . t.M.'.B.qXZ.                                                ",
"                                                                  8 N.!.].C.yX8                                                 ",
"                                                                  / H { Z.T.`.o                                                 ",
"                                                                & +.r s ( p.G.X                                                 ",
"                                                                / M V Z 4 r.0X&                                                 ",
"                                                              7 G.M B p.w.a.].=                                                 ",
"                                                              / q.Y _ H.Z.a.r.                                                  ",
"                                                            & N.{ L s.J.C.W.U                                                   ",
"                                                            I B.U R H.a.U.T.&                                                   ",
"                                                            7.@.L 4.H.V.W./                                                     ",
"                                                          t 7.G R U.p.T.W.*                                                     ",
"                                                          S Y G ( p.a.W.X.                                                      ",
"                                                1 +.      i K L u.5.w.XXy                                                       ",
"                                                1 { &   < K K B 5.3.U.R.X                                                       ",
"                                                < ; #.  ; M Y o.;.4.`.O.                                                        ",
"                                                  x w M.[ 2 D 3Xy.p.I.C.*                                                       ",
"                                                  I N w @.X.M.].X.t.h.R.F                                                       ",
"                                                  X N.u ' 7.^.R.q.X.N.p                                                         ",
"                                                  4 d B a.S _.s.| ).7                                                           ",
"                                                C g . R 4.[ W.c P.wX%                                                           ",
"                                              0 <.! . 3.U F.;.9.eXg.                                                            ",
"                                            . -.0.z 2 ` N.B.T %XwXP.                                                            ",
"                                          X P $.g O R +.9X) E :XiX%X#                                                           ",
"                                        e f.$.,   > _ ^.[.a L.%XaX#X8                                                           ",
"                                    & =.1.|.&Xb   B O.2XW a l.OX:X:XU                                                           ",
"                                    B ,.,.j.tXQ   _ D.8X2 A }.OX*XaX`.&                                                         ",
"                                    N >.,.<.%X8.0 o.[.B.  A %X-X*XiXuXD                                                         ",
"                                    K &.&.2.OXE.B n.8Xr   =.wXaXrXuXsXG.                                                        ",
"                                  o ( %.g 2.z.6./ 1X).  . :.rXgXaXuX>X+Xo                                                       ",
"                                  w z -.v g j T M.2XG   : {.wXgXkXaX;XY.#                                                       ",
"                                x :.z $.f.f.e M ~._.O x J.|. XuXgXsXrX3.                                                        ",
"                              % ) &X .b OXjX4.y 6X] } tX+XK.h.@XwXuXiXL                                                         ",
"                              y =. XB.v z.l.B O.S.x E.#X`.#XE.XXXX*X-Xy                                                         ",
"                              y -.k.*.f A d W ,X] T f.E.=X=X=X|.L.oX-Xi                                                         ",
"                              o Q <.*.v - N A.!.0 E 3.J.T.#X=X.X}.oX$Xy                                                         ",
"                                6 R *.j.R x A.] 3 T 9.J.T.E..X$X}.}.L.*                                                         ",
"                                  y E m N [ Q.y z C ) p.T.+X#XoXj.z.w..                                                         ",
"                                    y O r D.O.: C C ) i.J. X.X|.j.d.D                                                           ",
"                                    % w K m.y 3 B C ) w.T.W.$X}.k.;.<                                                           ",
"                                    6 w n.x.O k k B ' :.h.@X$XXX}.W                                                             ",
"                                    r N D.F . c l k m Z d.Y.Y.}.}.{ o                                                           ",
"                                    @ ] ~.  + a 3 3 s m E f.XXh.C.n.p                                                           ",
"                                    O r u   + - - 4 a s m ` s.q.J ^ } n                                                         ",
"                                      @   o + ; ; 2 2 2 n 9 o 9 n J n q 6                                                       ",
"                                        % X   o o o < 9 q 6 $ n ^ n S ^ O.&                                                     ",
"                                          1 $ $ % < q n J ^ ^ ^ ^ q.q.^ q...%                                                   "
};
