/* XPM */
static char *a268f3d39ed34957cd0cae24879b8570Hflavlf7469SJ59c[] = {
/* columns rows colors chars-per-pixel */
"64 64 232 2 ",
"   c #000000",
".  c #0A0000",
"X  c #0D0D0D",
"o  c #0E0905",
"O  c #130200",
"+  c #1C0000",
"@  c #1F0C04",
"#  c #18100D",
"$  c #0E0F10",
"%  c #0F1112",
"&  c #101112",
"*  c #1B1C1B",
"=  c #161718",
"-  c #290802",
";  c #2B1D15",
":  c #3E1F10",
">  c #221108",
",  c #1F221C",
"<  c #26231D",
"1  c #2C251B",
"2  c #362916",
"3  c #1F2122",
"4  c #232423",
"5  c #2C2C2B",
"6  c #272827",
"7  c #382E24",
"8  c #37332A",
"9  c #353433",
"0  c #3B3B3B",
"q  c #3A3734",
"w  c #2D3231",
"e  c #420F00",
"r  c #4B2E16",
"t  c #62351A",
"y  c #612C11",
"u  c #44392B",
"i  c #5A352B",
"p  c #433C3A",
"a  c #433C34",
"s  c #56362F",
"d  c #4B4233",
"f  c #47433A",
"g  c #554839",
"h  c #6E4523",
"j  c #7A4529",
"k  c #784D32",
"l  c #704D3B",
"z  c #3A3C41",
"x  c #3E4143",
"c  c #434543",
"v  c #4D4C47",
"b  c #4A4C4A",
"n  c #444849",
"m  c #584F46",
"M  c #5B5342",
"N  c #58534A",
"B  c #535553",
"V  c #5C5E5B",
"C  c #575755",
"Z  c #414851",
"A  c #675745",
"S  c #6F5F50",
"D  c #6D534C",
"F  c #65635C",
"G  c #6A6758",
"H  c #796D5B",
"J  c #73674C",
"K  c #555C60",
"L  c #6D6C63",
"P  c #646A6A",
"I  c #6A6B69",
"U  c #646663",
"Y  c #706E62",
"T  c #716F69",
"R  c #6D716B",
"E  c #7A7464",
"W  c #73746D",
"Q  c #7B7A6D",
"!  c #787566",
"~  c #6D6E70",
"^  c #6C7479",
"/  c #7C7C72",
"(  c #74797C",
")  c #7A7D7B",
"_  c #707377",
"`  c #88553C",
"'  c #955B39",
"]  c #926939",
"[  c #83574A",
"{  c #9B6C47",
"}  c #997248",
"|  c #986B58",
" . c #89775E",
".. c #967654",
"X. c #876954",
"o. c #A7784B",
"O. c #AF7357",
"+. c #BA7D56",
"@. c #A16E4E",
"#. c #847B63",
"$. c #867B68",
"%. c #8A7A67",
"&. c #947A6A",
"*. c #817E73",
"=. c #8A6F6C",
"-. c #A87668",
";. c #A98059",
":. c #8B846C",
">. c #97876C",
",. c #848579",
"<. c #8D8A7C",
"1. c #888677",
"2. c #998D74",
"3. c #958978",
"4. c #96917C",
"5. c #9B937D",
"6. c #9B9276",
"7. c #B58A78",
"8. c #B2927B",
"9. c #AE876E",
"0. c #C18F6E",
"q. c #CE987C",
"w. c #737B84",
"e. c #777D87",
"r. c #717E8B",
"t. c #7C8385",
"y. c #7F8496",
"u. c #8C8D83",
"i. c #848A8C",
"p. c #848786",
"a. c #938D87",
"s. c #949284",
"d. c #9B998A",
"f. c #999688",
"g. c #858C99",
"h. c #888D96",
"j. c #8A919C",
"k. c #9C9E92",
"l. c #92959C",
"z. c #969798",
"x. c #8A918F",
"c. c #B58C83",
"v. c #A49D8B",
"b. c #A79988",
"n. c #BB9A84",
"m. c #A69E90",
"M. c #AAA38D",
"N. c #ADA287",
"B. c #BAA18A",
"V. c #A5A292",
"C. c #AAAA9C",
"Z. c #AAA695",
"A. c #B3A393",
"S. c #BBAA9A",
"D. c #B2AC95",
"F. c #BCB59B",
"G. c #B9B299",
"H. c #8894A8",
"J. c #939BA7",
"K. c #8594AC",
"L. c #9BA0A7",
"P. c #9DA5B4",
"I. c #92A2B6",
"U. c #A7A8A9",
"Y. c #BBADA0",
"T. c #B8B8A8",
"R. c #A4ADBC",
"E. c #A3AAB4",
"W. c #B8BAB4",
"Q. c #ACB1BD",
"!. c #C39B87",
"~. c #C8A88E",
"^. c #C3AC94",
"/. c #C6AB98",
"(. c #C4B19C",
"). c #CBB39E",
"_. c #D3B79B",
"`. c #DBAA9E",
"'. c #E4B895",
"]. c #C4B3A3",
"[. c #CCB5A0",
"{. c #C2B9AD",
"}. c #C6B8A8",
"|. c #D5BEAB",
" X c #D3B9A4",
".X c #CAB9B3",
"XX c #D4BAB2",
"oX c #D3ACA5",
"OX c #C9C3A9",
"+X c #DAC4AB",
"@X c #C4C2B3",
"#X c #C8C4B9",
"$X c #D9C8B7",
"%X c #E4C4BA",
"&X c #E5CDB9",
"*X c #E8D5BD",
"=X c #E1C1AC",
"-X c #8C9FC0",
";X c #A5AFC1",
":X c #B2BCC5",
">X c #B2BACB",
",X c #ABBDDA",
"<X c #AFB8C4",
"1X c #B6C1C9",
"2X c #BCC8D5",
"3X c #B9C8E1",
"4X c #C9CBC7",
"5X c #CED2CF",
"6X c #D6D6C7",
"7X c #C4CBD3",
"8X c #CAD2D5",
"9X c #D7DAD6",
"0X c #DBCBC1",
"qX c #E6CAC2",
"wX c #EBDBCA",
"eX c #E6D7C6",
"rX c #F3DEC9",
"tX c #FBDDD5",
"yX c #FCE6CB",
"uX c #EEE4D7",
"iX c #F4E9DB",
"pX c #F9E8D6",
"aX c #FFF2DC",
"sX c #C5D5E8",
"dX c #D1DCE0",
"fX c #DCE4E7",
"gX c #D5E4F5",
"hX c #EAECE5",
"jX c #E7EAE6",
"kX c #F6ECE1",
"lX c #F9F2E7",
"zX c #F6F9F3",
/* pixels */
"* X X X X X X X X X X X X X X X X X X X X X X X X X 0 x X X X X X X X X X X X X % $ X % X X $ X X $ X X $ X X X X X X X X X $ * ",
"                                                    P :X*                                                                       ",
"X                                                   i.7Xg.X                                                                   X ",
"X                                                   n fXgXp.                                                                  X ",
"X                                                   8 fX3X8XB                                                                 X ",
"X                                                   8 5X3X3X8X*                                                               X ",
"X                                                   5 W.3X-XgXW.X                                                             X ",
"X                                                   & C.8XI.3XzXQ                                                             X ",
"X                                                     W 4X;XK.sXW.b                                                           X ",
"X                                                     b U.,XK.K.J.<.*                                                         X ",
"X                                                     6 1.<Xg.r.j.C.V                                                         X ",
"X                                                       H z.;Xy.y.5XY.3                                                       X ",
"X                                                       V L 2XJ.y.2X$XC                                                       X ",
"X                                                       5 G j.P.H.I.9XV.X                                                     X ",
"X                                                         Q / ;XJ.H.2XwX6                                                     X ",
"X                                                         I Y E.l.H.P.zXY                                                     X ",
"X                                                         x Y _ R.E.P.5X6XX                                                   X ",
"X                                                         % x.v E.Q.j.g.hXB                                                   X ",
"X                                                           P F g.E.l.y.9X@X                                                  X ",
"X                                                           X / ) ;Xl.j.L.hXa                                                 X ",
"X                                                             V / P.z.U.P.uXk.                                                X ",
"X                                                             * *.e.R.l.E.#XhX,                                               X ",
"X                                                               / ,.g.a.a.p.hXQ                                               X ",
"X                                                               0 A._ z.z.Z.#X@Xn                                             X ",
"X                                                                 u.W l.fXd.H @XC.K                                           X ",
"X                                                                 z s.w.L.u.1.4.v.hXi.                                        X ",
"X                                                                   *.t.x #.s.1 g #X@Xn                                       X ",
"X                                                                   w a.x 2 2 r #.E 5.s.=                                     X ",
"X                                                                     Q V 8 J 6.:.3.s.D.B                                     X ",
"X                                                                     9 Q < u 6.6.4.d.F.u.                                    X ",
"X                                                                     % Q F 2 J M.b.f.v.D.6                                   X ",
"X                                                                       Y Q R d :.N.5.4.OXT                                   X ",
"X                                                                       B 1.^ v M N.6.N.D.D.X                                 X ",
"X                                                                       % f.F R g 2.5.v.M.OXf                                 X ",
"X                                                                         U Q w.N H N.5.5.F.F.X                               X ",
"X                                                                         * M.) U g v.4.2.2.F.C                               X ",
"X                                                                           W *.I d ! 3.:.>.M.U.4                             X ",
"X                                                                           4 s.I m m 4.:.:.Z.@Xt.( B                         X ",
"X                                                                             W F F d !  . .:.C.k.C.T                         X ",
"X                                                                             4 f U N g  .H :.<.M.Z.C                         X ",
"X                                                                               0 0 L q 4.Q <.f.*.1.b                         X ",
"X                                                                               = 9 G f _ 5Xx.U / p.c .                       X ",
"X                                                                                 5 q M X :X1XR f.s.W.f                       X ",
"X                                                                       o 3       o 5 N 8 y.#Xk.N =.tX`.;                     X ",
"X                                                                       6 ) (   * C I ( s.L ^ OXS S %XoX!.;                   X ",
"X                                                                       # 1 d v I I F f s.M 0 W.6.g XXqX*X=XV &               X ",
"X                                                                         4 5 < 2 8 u , G G.a t.(.m c.%XeXpX$Xu.V 6 o         X ",
"X                                                                             X B _ w./ 2 N.! 9 {.X.X.oXqXwXrXrXeXW.s.c       X ",
"X                                                                                 % ; k + f D.v z.E i ~.|.[. X*XyXpXaX6Xv.*   X ",
"X                                                                                   o y + . 2.,.w.W.s | !.). X|.=X*XyXyXyXS.4 X ",
"X                                                                                   ; h i O 7 #.w.fXN 2 O.8.XX+X+XuX*XeX=X'.5.3 ",
"X                                                                                   1 ` | i O #.) 2XZ.. { 7.(.wXwXwXiXiXrX*X_.C ",
"X                                                                                   X X.-.[ - A *.w.6Xf @ { !.$XkXkXiXiXuXpXaXM.",
"X                                                                                   . i O.` - - :.P 2Xd.  @ o.^.wXkXlXlXiXwXwX*X",
"X                                                                                     8 +.j O . M G H.9Xu   2 O.).$XuXuX*X$X_.).",
"X                                                                                     w j e + . 8 :.w.5X$..   r ~.[.^.^.). X~.n.",
"X                                                                                     q k k l #    .R J.4X1   . >.).9.c.F.(.B.8.",
"X                                                                                     a n.}.XX=.  # H H.9XN   . &.).S./.].].^.~.",
"X                                                                                     D 7./.XXqX}.N M R sXU.. a 4XA.Y..XOX$X+XS.",
"X                                                                                     ..{ 9.9.c.%XqXX.T g.W.q C qXY.W.#X@X}.(.^.",
"X                                                                                   < o.o.o.} -.c.q.` E R 1X) p A.S.}.(.A.A.(.(.",
"X                                                                                   3 ..o.{ { { O.+.y s Q I.E.p =.3.b.b.m.A.Y.(.",
"                                                                                      9 ..] ] j j ' r - a ^ >Xp A &.&.a.b.m.A.m.",
"* X X X X X X X X X X X X X X X X X X X X X X X X X X X X X X X X X X X X X X X X X X X 8 :.} h t t &.Z.d q i.w.7 D S E =.>.b.5."
};
