/* XPM */
static char *acc1d3e9481643a8fbb9b217329de6c4uwEqvwLOAXh3lGEA[] = {
/* columns rows colors chars-per-pixel */
"64 64 233 2 ",
"   c #000000",
".  c #0A0000",
"X  c #0C0C0B",
"o  c #0E0905",
"O  c #130200",
"+  c #1C0000",
"@  c #1F0C04",
"#  c #18100D",
"$  c #0E0F10",
"%  c #0F1112",
"&  c #101112",
"*  c #1C1C1C",
"=  c #161718",
"-  c #290802",
";  c #2B1D15",
":  c #3E1F10",
">  c #221108",
",  c #1F221C",
"<  c #26231D",
"1  c #2C251B",
"2  c #362916",
"3  c #1F2122",
"4  c #232423",
"5  c #2C2C2B",
"6  c #272827",
"7  c #382E24",
"8  c #37332A",
"9  c #353433",
"0  c #3C3A3A",
"q  c #3A3734",
"w  c #2D3231",
"e  c #420F00",
"r  c #4B2E16",
"t  c #62351A",
"y  c #612C11",
"u  c #44392B",
"i  c #5A352B",
"p  c #433C3A",
"a  c #433C34",
"s  c #56362F",
"d  c #4B4233",
"f  c #47433A",
"g  c #554839",
"h  c #6E4523",
"j  c #7A4529",
"k  c #784D32",
"l  c #704D3B",
"z  c #3A3C41",
"x  c #3D4144",
"c  c #434543",
"v  c #4D4C47",
"b  c #4A4C4A",
"n  c #444849",
"m  c #584F46",
"M  c #5B5342",
"N  c #58534A",
"B  c #535553",
"V  c #5C5E5B",
"C  c #575755",
"Z  c #414851",
"A  c #675745",
"S  c #6F5F50",
"D  c #6D534C",
"F  c #65635C",
"G  c #6A6758",
"H  c #7D6C57",
"J  c #766D5C",
"K  c #73674C",
"L  c #555C60",
"P  c #6D6C63",
"I  c #646A6A",
"U  c #6A6B69",
"Y  c #646663",
"T  c #706E62",
"R  c #716F69",
"E  c #6D716B",
"W  c #7A7464",
"Q  c #73746D",
"!  c #7B7A6D",
"~  c #787566",
"^  c #6D6E70",
"/  c #6C7479",
"(  c #7C7C72",
")  c #74797C",
"_  c #7A7D7B",
"`  c #707377",
"'  c #88553C",
"]  c #955B39",
"[  c #926939",
"{  c #83574A",
"}  c #9B6C47",
"|  c #997248",
" . c #986B58",
".. c #89775E",
"X. c #967654",
"o. c #876954",
"O. c #A7784B",
"+. c #AF7357",
"@. c #BA7D56",
"#. c #A16E4E",
"$. c #847B63",
"%. c #867B68",
"&. c #8A7A67",
"*. c #947A6A",
"=. c #817E73",
"-. c #8A6F6C",
";. c #A87668",
":. c #A98059",
">. c #8B846C",
",. c #97876C",
"<. c #848579",
"1. c #8D8A7C",
"2. c #888677",
"3. c #998D74",
"4. c #958978",
"5. c #96917C",
"6. c #9B937D",
"7. c #9B9276",
"8. c #B58A78",
"9. c #B2927B",
"0. c #AE876E",
"q. c #C18F6E",
"w. c #CE987C",
"e. c #737B84",
"r. c #777D87",
"t. c #717E8B",
"y. c #7C8385",
"u. c #7F8496",
"i. c #8C8D83",
"p. c #848A8C",
"a. c #848786",
"s. c #938D87",
"d. c #949284",
"f. c #9B998A",
"g. c #999688",
"h. c #858C99",
"j. c #888D96",
"k. c #8A919C",
"l. c #9C9E92",
"z. c #92959C",
"x. c #969798",
"c. c #8A918F",
"v. c #B58C83",
"b. c #A49D8B",
"n. c #A79988",
"m. c #BB9A84",
"M. c #A69E90",
"N. c #AAA38D",
"B. c #ADA287",
"V. c #BAA18A",
"C. c #A5A292",
"Z. c #AAAA9C",
"A. c #AAA695",
"S. c #B3A393",
"D. c #BBAA9A",
"F. c #B2AC95",
"G. c #BCB59B",
"H. c #B9B299",
"J. c #8894A8",
"K. c #939BA7",
"L. c #8594AC",
"P. c #9BA0A7",
"I. c #9DA5B4",
"U. c #92A2B6",
"Y. c #A7A8A9",
"T. c #BBADA0",
"R. c #B8B8A8",
"E. c #A4ADBC",
"W. c #A3AAB4",
"Q. c #B8BAB4",
"!. c #ACB1BD",
"~. c #C39B87",
"^. c #C8A88E",
"/. c #C3AC94",
"(. c #C6AB98",
"). c #C4B19C",
"_. c #CBB39E",
"`. c #D3B79B",
"'. c #DBAA9E",
"]. c #E4B895",
"[. c #C4B3A3",
"{. c #CCB5A0",
"}. c #C2B9AD",
"|. c #C6B8A8",
" X c #D5BEAB",
".X c #D3B9A4",
"XX c #CAB9B3",
"oX c #D4BAB2",
"OX c #D3ACA5",
"+X c #C9C3A9",
"@X c #DAC4AB",
"#X c #C4C2B3",
"$X c #C8C4B9",
"%X c #D9C8B7",
"&X c #E4C4BA",
"*X c #E5CDB9",
"=X c #E8D5BD",
"-X c #E1C1AC",
";X c #8C9FC0",
":X c #A5AFC1",
">X c #B2BCC5",
",X c #B2BACB",
"<X c #ABBDDA",
"1X c #AFB8C4",
"2X c #B6C1C9",
"3X c #BCC8D5",
"4X c #B9C8E1",
"5X c #C9CBC7",
"6X c #CED2CF",
"7X c #D6D6C7",
"8X c #C4CBD3",
"9X c #CAD2D5",
"0X c #D7DAD6",
"qX c #DBCBC1",
"wX c #E6CAC2",
"eX c #EBDBCA",
"rX c #E6D7C6",
"tX c #F3DEC9",
"yX c #FBDDD5",
"uX c #FCE6CB",
"iX c #EEE4D7",
"pX c #F4E9DB",
"aX c #F9E8D6",
"sX c #FFF2DC",
"dX c #C5D5E8",
"fX c #D1DCE0",
"gX c #DCE4E7",
"hX c #D5E4F5",
"jX c #EAECE5",
"kX c #E7EAE6",
"lX c #F6ECE1",
"zX c #F9F2E7",
"xX c #F6F9F3",
/* pixels */
"                                                                                                                                ",
"                                                    I >X=                                                                       ",
"                                                    a.8Xh.X                                                                     ",
"                                                    b gXhXa.                                                                    ",
"                                                    w gXdX9XB                                                                   ",
"                                                    8 6X4X<X6X<                                                                 ",
"                                                    5 Q.dX;XhXQ.X                                                               ",
"                                                    & Z.8XU.<XxX(                                                               ",
"                                                      Q 5X:XL.dXQ.b                                                             ",
"                                                      b Y.<XL.L.K.1.*                                                           ",
"                                                      6 2.1Xh.t.k.Z.V                                                           ",
"                                                        T x.:Xu.u.6XT.3                                                         ",
"                                                        V P 3XK.u.3X%XC                                                         ",
"                                                        5 G k.I.J.U.0XC.X                                                       ",
"                                                          ! ( E.K.J.3XeX6                                                       ",
"                                                          U T W.z.J.I.xX~                                                       ",
"                                                          x T ` E.W.I.6X7X$                                                     ",
"                                                          $ c.v E.!.k.j.jXN                                                     ",
"                                                            I F h.W.z.u.0X#X                                                    ",
"                                                            $ ( _ :Xz.k.P.kX0                                                   ",
"                                                              V ( I.x.Y.I.kXf.                                                  ",
"                                                              * ( r.!.z.W.$XjX;                                                 ",
"                                                                _ <.h.s.i.a.jX!                                                 ",
"                                                                0 S.^ x.x.Z.#X#Xb                                               ",
"                                                                  i.Q z.gXg.J #XZ.L                                             ",
"                                                                  z d.r.K.d.2.5.f.jXp.                                          ",
"                                                                    =.y.x $.d.2 g #X#Xc                                         ",
"                                                                    5 d.x 2 2 r >.W 6.g.=                                       ",
"                                                                      ! L 8 K ,.>.4.d.F.C                                       ",
"                                                                      9 ! < d 7.7.7.f.G.1.                                      ",
"                                                                      % ! V 2 K N.f.d.N.F.6                                     ",
"                                                                        ~ ! E d >.N.6.5.+XQ                                     ",
"                                                                        B 2./ N A B.7.f.H.F.X                                   ",
"                                                                        % g.F U g ,.6.b.N.+Xf                                   ",
"                                                                          Y ! ) N J B.g.6.G.G.X                                 ",
"                                                                          = C._ Y g b.7.3.3.G.C                                 ",
"                                                                            Q <.U d ~ 4.&.>.N.Y.4                               ",
"                                                                            < d.U M m 5.>.3.N.#Xy.) B                           ",
"                                                                              Q F F d ! ....2.Z.l.Z.R                           ",
"                                                                              4 p Y N g ..H >.2.N.A.C                           ",
"                                                                                0 0 P q 1.<.1.g.( 1.b                           ",
"                                                                                = 9 F d / 5Xc.F ( <.c .                         ",
"                                                                                  5 q A X 2X2XQ g.d.Q.f                         ",
"                                                                        X 3       X 5 m 8 c.$Xl.N -.yX'.;                       ",
"                                                                        6 _ )   = C I _ c.T ) R.S S &XOX~.;                     ",
"                                                                        # 1 d v U Q F f 6.M z R.7.g oXwX=X-XV &                 ",
"                                                                          4 5 < 1 8 u , G H.0 y.).m v.&XrXaX%Xi.V 6 X           ",
"                                                                              X B Q e.( 2 B.W 9 }.o.o.OXwXeXtXtXrXQ.d.c         ",
"                                                                                  % ; k + f S.v x.W i ^. X.X.X=XuXaXsXrXf.3     ",
"                                                                                    o y + . 5.<.e.Q.s  .~.)..X X-X=XuXuXuXD.4   ",
"                                                                                    ; h i O 7 $.y.gXB : +.9.oX@X@XeXrXrX-X].6.3 ",
"                                                                                    1 '  .i O $._ 3XC.. } 8.).eXeXeXpXpXtX=X`.B ",
"                                                                                    X  .+.{ - A ( e.7Xd @ | ~.%XpXzXpXpXaXpXsXN.",
"                                                                                      s #.] - - >.I 3Xf.  @ O./.eXlXzXzXpXeXrX=X",
"                                                                                      8 @.j O . M G J.0Xu   2 +.).qXiXiXrX%X`._.",
"                                                                                      w ' - + O 8 >.e.9X%..   r ^._.^./._..X^.m.",
"                                                                                      q k k D #   ..E K.5X1   . ,._.0.v.D.).V.m.",
"                                                                                      a ~.|.oX-.  # J J.0XN   . 4._.D.D.[.[./.V.",
"                                                                                      A 8.(.oX&X|.N M E dXY.. a XXS.T.}.}.%X@XD.",
"                                                                                      X.| 0.0.v.&XwXo.R h.Q.q C rXT.R.qX#X|.)./.",
"                                                                                    < O.O.O.} ;.v.w.' W E 2X_ p S.D.[.[.D.V.).).",
"                                                                                    3 X.O.| } } +.@.y s ( U.W.p -.6.n.n.M.S.[.G.",
"                                                                                      9 X.[ [ j j ] r - u / ,Xp l &.*.s.M.M.M.m.",
"                                                                                        9 &.| h t t *.A.f 9 p.r.8 D S J %.*.n.g."
};
