/* XPM */
static char *ff600e0e49584d1de53b2aebc23ed54bH5y3IgxYUUBleOaN[] = {
/* columns rows colors chars-per-pixel */
"64 64 231 2 ",
"   c #000000",
".  c #070807",
"X  c #050709",
"o  c #060A0B",
"O  c #0B0C0C",
"+  c #140B07",
"@  c #0F110C",
"#  c #12110D",
"$  c #19170A",
"%  c #070917",
"&  c #0B0D11",
"*  c #0E1112",
"=  c #0B141D",
"-  c #131414",
";  c #151A16",
":  c #1D1C14",
">  c #161519",
",  c #15191A",
"<  c #1B1C1C",
"1  c #2B1208",
"2  c #261A18",
"3  c #1B251B",
"4  c #23231D",
"5  c #282518",
"6  c #352B1C",
"7  c #313011",
"8  c #38381E",
"9  c #171A21",
"0  c #1E1D33",
"q  c #251C23",
"w  c #1E2222",
"e  c #232424",
"r  c #2A2325",
"t  c #242925",
"y  c #2C2B22",
"u  c #24242B",
"i  c #262B2B",
"p  c #2B2C2B",
"a  c #372B24",
"s  c #312C2C",
"d  c #2E3129",
"f  c #3B3224",
"g  c #32342B",
"h  c #383828",
"j  c #292833",
"k  c #392C33",
"l  c #2D3233",
"z  c #2A3439",
"x  c #343433",
"c  c #3A3634",
"v  c #363A36",
"b  c #32333B",
"n  c #3B3C3D",
"m  c #443216",
"M  c #4C2F2F",
"N  c #423B2C",
"B  c #48392C",
"V  c #423D33",
"C  c #483E33",
"Z  c #513734",
"A  c #394222",
"S  c #3B572B",
"D  c #3B4534",
"F  c #50501A",
"G  c #674E13",
"H  c #41631E",
"J  c #48482C",
"K  c #5A482B",
"L  c #46572E",
"P  c #575527",
"I  c #47463A",
"U  c #534D34",
"Y  c #564939",
"T  c #5A5639",
"R  c #6A522C",
"E  c #64573B",
"W  c #765B37",
"Q  c #5C642D",
"!  c #466335",
"~  c #546A34",
"^  c #6A673A",
"/  c #6D7A38",
"(  c #192A43",
")  c #233046",
"_  c #373841",
"`  c #3B3E42",
"'  c #403E43",
"]  c #2C4048",
"[  c #3D4448",
"{  c #394554",
"}  c #444343",
"|  c #4C4B45",
" . c #46464A",
".. c #474A4C",
"X. c #4A4C4B",
"o. c #5A4848",
"O. c #4B5345",
"+. c #595647",
"@. c #454652",
"#. c #4C4E53",
"$. c #4C5256",
"%. c #4E5758",
"&. c #525153",
"*. c #54555B",
"=. c #575959",
"-. c #5B5C5C",
";. c #655948",
":. c #755C4B",
">. c #635C57",
",. c #5D615F",
"<. c #696646",
"1. c #6C654B",
"2. c #746A4B",
"3. c #607847",
"4. c #78724A",
"5. c #676657",
"6. c #776B58",
"7. c #797455",
"8. c #4D5062",
"9. c #575965",
"0. c #5B5C62",
"q. c #635E6C",
"w. c #5D6567",
"e. c #5C6673",
"r. c #636365",
"t. c #62626A",
"y. c #64696C",
"u. c #6B6969",
"i. c #766D64",
"p. c #687967",
"a. c #7A7768",
"s. c #6C6C73",
"d. c #696B78",
"f. c #726D7A",
"g. c #6C7175",
"h. c #6E717A",
"j. c #777876",
"k. c #74757B",
"l. c #7B7A7D",
"z. c #997E3D",
"x. c #836B4A",
"c. c #807B4E",
"v. c #826D5A",
"b. c #857856",
"n. c #987958",
"m. c #A17F4A",
"M. c #8B7B67",
"N. c #957A66",
"B. c #817C72",
"V. c #73B138",
"C. c #6B8C53",
"Z. c #76A64F",
"A. c #71856C",
"S. c #7C847A",
"D. c #8B8559",
"F. c #978E52",
"G. c #A5885B",
"H. c #B0945D",
"J. c #84B945",
"K. c #888669",
"L. c #988766",
"P. c #99956D",
"I. c #84837C",
"U. c #8A8779",
"Y. c #A68767",
"T. c #A9966D",
"R. c #B6906E",
"E. c #A8967B",
"W. c #B59876",
"Q. c #92B374",
"!. c #B3AB6E",
"~. c #C49B77",
"^. c #CFAA7A",
"/. c #B3F279",
"(. c #EAC877",
"). c #777884",
"_. c #797C84",
"`. c #7C8187",
"'. c #888887",
"]. c #83828C",
"[. c #928C83",
"{. c #938F89",
"}. c #97948A",
"|. c #8C8C97",
" X c #8A9294",
".X c #949594",
"XX c #99989B",
"oX c #B49C86",
"OX c #A49C99",
"+X c #9EA69F",
"@X c #B0A68F",
"#X c #B2A896",
"$X c #BEBA9B",
"%X c #9998A2",
"&X c #A39EA3",
"*X c #9AA4AD",
"=X c #A7A6A6",
"-X c #B3AEAA",
";X c #B8B5A8",
":X c #ABAFBB",
">X c #B5B6B6",
",X c #C5AA87",
"<X c #D1AE8A",
"1X c #CDB288",
"2X c #D7B588",
"3X c #C8AF99",
"4X c #DCB996",
"5X c #E4B88C",
"6X c #C8B7A5",
"7X c #B2DE8E",
"8X c #D6D193",
"9X c #F4CB8C",
"0X c #EBC69B",
"qX c #D9FF9E",
"wX c #E7EB9A",
"eX c #F9E595",
"rX c #CAC7BA",
"tX c #D5CFB4",
"yX c #E6D2A9",
"uX c #FCD2A1",
"iX c #FFE9BD",
"pX c #CBC7C6",
"aX c #D5DBCB",
"sX c #DCD7DC",
"dX c #E6DFD7",
"fX c #EAE7DB",
"gX c #FBF8D9",
"hX c #DFE3EC",
"jX c #ECECED",
"kX c #FAF9F8",
"lX c #FEFFFF",
/* pixels */
"                                                                                                                                ",
"                                                                                                                                ",
"                                                                . , - *                                                         ",
"                                                          o [  .n  ..._ *.l                                                     ",
"                                                        p %.-.0.#. .b *.k.].w.-                                                 ",
"                                                      t ].q.f.r.&.b *.t.#.s.].)....                                             ",
"                                                    # XXy.).`.0.@._  .#.).h.t.f.|._.O                                           ",
"                                                    }. X8.e.[ b j 9 j *.f.).s.d.k.|.-.                                          ",
"                                                  $.:Xk >.M.N.R.R.Y.=.9 @.).].u.b #.0.X                                         ",
"                                                , g.i.v.D.G.W.Y.T.W.R.b.c s._.c *.s.s.`                                         ",
"                                                ..6.m.^.6.E m.H.^.E W R.G.o.0 *.%X{.XX].@                                       ",
"                                                C R G H.^.uX9XeX(.K b.R x.N.2 q.&XXX=Xl.X                                       ",
"                                              - f }.rXR z.(.G.eXR .XhX>X2.n.W r.*X=X-Xg.                                        ",
"                                              ;.pXlXlXgXG K +.x.T lXlXlXT.b.tX+.-.].=Xr.      X X                               ",
"                                            5 H.kXjXkXgX7 o C.8 a }.dXtXm T aX..+XOXs.[   O $.y.-                               ",
"                                            O ;.U.3X1XE X ! /.V.% 1 1 + . @ a u.lXfX;Xl l k.#.;                                 ",
"                                              O 7 m +   d Q.Z.Z.Z.A * - f 2 . p }.,.0 @.y.e                                     ",
"                                                3 S J C.Q.).A.w.J.Z.~ A Q ~ L   X ( ) *.                                        ",
"                                              9.).Q.qX7XA.' M ).j.p.C.D S ~ y   = ( l.fX;   X                                   ",
"                                              p f.y.aX=Xd.6 M M _.9.k.I.} a +   = { OX{.b i t                                   ",
"                                                i j XX>X&Xq M 2 9.|.e._.0.s $ X = $.lXB.O < X                                   ",
"                                                o o r u.XX>.2   _ e.q 9.).[ O j = t.>X9                                         ",
"                                                  X O 6 a Q.+.8 s 2 + c w.O.O %X` < &                                           ",
"                                                  X o . B C.3.L H 3 5 C ^ K > _.w                                               ",
"                                                  v K.6 | dXK.B J N U N.tXfXc X.<                                               ",
"                                                  D 4.h I >XM.U Y 6 I.tX$XM.f E O.                                              ",
"                                            O z K.P.h @ !.!.@ 4.8X/ h 3 F / c.J *                                               ",
"                                p c         w 5.!.F.: 4 E Q 5 T G.7 r.`.h ^ c.6.*   O :                                         ",
"                                g U.c e       3 C T d : 4.^ 4.U D 1.d I T $ 6 1.1.y 5.,                                         ",
"                                  > E i.9     O a Y ; . c.P.U A +.1.7 T U Y oX;.I C >.|                                         ",
"                                    g N < * * 4 f T 6 7.D.A 6 @ + J A <.^ n.iXL.5   V +.                                        ",
"                                    O T 6 X z +.U 2.!.D.D.T J 7 J 4.<.^.J Z W.7.4   o                                           ",
"                                      - h 4 ` w 6.U <.U X N.W.R.2 3 T <.4 :.1.    > X                                           ",
"                                        @ n &.u R.K n 6.;.4X,XyXM.6 <.d @ 2.oXM.: &                                             ",
"                                          O l v.9XN.> 4X0X3Xb.,X0X~.n.B 3 ;.<XuX6.                                              ",
"                                            X 1.2.2 x <X+ M.L.oXs 2.5Xa   n.2XY.c                                               ",
"                                                    r oXV E.<X<X& E <X6   c W.;.X                                               ",
"                                            O * X o I ^.2X<X,X4X~.N.~.s o   , X                                                 ",
"                                          w {. X[ % =.#X-X;X;X6X<XoXOX-.J A.[                                                   ",
"                                          a.yX;X*.j.U.O.[ *.@.b s.u.` O.6 .Xk.                                                  ",
"                                        O tXyX@X+.;XOX$ T T T +.+.T g d P j.*X                                                  ",
"                                        o {.8XwX<.% : i 1.<.4.7.2.7.1.h P 8XlX:                                                 ",
"                                          p @XK.9.%XT U.:XOX&X'.|.j.P }.l.P jX*.                                                ",
"                                        w -.` p K.fX}.^ =XpXrXsXrXF.&XsXP.+ fX>X                                                ",
"                                        e g O ].E.7.-X+.5.-XpX;XD.OX-X^ U 5.=Xw.                                                ",
"                                      . , y O.e d.M.K.).d i.=X,.j.U.^ a.).].I                                                   ",
"                                      O } j V +.< *.-.&.v - t c r.7.{.q.&.+.+.v &                                               ",
"                                      p {.{.i c I > n x 4     e I |.0.n T I d * p ,                                             ",
"                                      i u.[.&.- e r e e X       i %.b +.V X &  .i O                                             ",
"                                  , I.| 2 < r e e r 3 X           , | I e U.z g.d                                               ",
"                                  w I.a.B.9 o < - i X               e 2 e S.n p I.r                                             ",
"                                    X e | s n X   .                   O i #.6.B.}.|                                             ",
"                                    p u   =.i.p                         * w.&.I 4 <                                             ",
"                                    e *.[ c l.x                         z [ - < p O                                             ",
"                                    . j.y.w..X.                         w *X..+ e *                                             ",
"                                      y.y.3   .                           9.z b D -                                             ",
"                                      $.w.; O                               ] z c *                                             ",
"                                      [ y.-                                 { z # *                                             ",
"                                      t v l l                               3 D v <                                             ",
"                                    * O.# v <                                 w I p                                             ",
"                                  < g.g.q X v > O X                         X , . [ t                                           ",
"                                . %.#.- x j.>X=X.X,.                  p ].'.`.X.r $.x                                           ",
"                                X O X O x n ; , ; ;                   p r...} n n -                                             ",
"                                                                                                                                "
};
