/* XPM */
static char *_8fe86ecc0234739e969eb70884cdf52Gg8M69LzygqYRNQp[] = {
/* columns rows colors chars-per-pixel */
"64 64 230 2 ",
"   c #000000",
".  c #02040C",
"X  c #06090D",
"o  c #0A0A0B",
"O  c #090907",
"+  c #0E120E",
"@  c #16160D",
"#  c #010213",
"$  c #090A13",
"%  c #0E1214",
"&  c #111212",
"*  c #1B1B15",
"=  c #1B1B1B",
"-  c #1B1616",
";  c #120C12",
":  c #221D14",
">  c #241816",
",  c #371E1A",
"<  c #220F1C",
"1  c #1C2416",
"2  c #232214",
"3  c #2A241A",
"4  c #2B2B19",
"5  c #282916",
"6  c #332E1C",
"7  c #39281E",
"8  c #3A361C",
"9  c #010422",
"0  c #010925",
"q  c #0B122A",
"w  c #161928",
"e  c #3E0022",
"r  c #242425",
"t  c #24252B",
"y  c #2B2B2B",
"u  c #2A2A27",
"i  c #3C3B29",
"p  c #3C3B23",
"a  c #2F2F30",
"s  c #313131",
"d  c #3A3A3A",
"f  c #302F2B",
"g  c #4B261F",
"h  c #423D1D",
"j  c #42341F",
"k  c #4C3216",
"l  c #520821",
"z  c #581E24",
"x  c #6E0F29",
"c  c #5B2E23",
"v  c #463925",
"b  c #533D22",
"n  c #702F21",
"m  c #713B23",
"M  c #47421D",
"N  c #494625",
"B  c #55442A",
"V  c #574726",
"C  c #585427",
"Z  c #5E5733",
"A  c #5F4931",
"S  c #68592A",
"D  c #71512F",
"F  c #6D5131",
"G  c #6D652C",
"H  c #796A2C",
"J  c #776737",
"K  c #766E32",
"L  c #31384E",
"P  c #7E1641",
"I  c #3E404E",
"U  c #354276",
"Y  c #6C7074",
"T  c #863628",
"R  c #953D27",
"E  c #BD3C35",
"W  c #A03025",
"Q  c #D83735",
"!  c #CF3333",
"~  c #F22C32",
"^  c #F62132",
"/  c #FD3933",
"(  c #E72E31",
")  c #825335",
"_  c #AC4B27",
"`  c #B45433",
"'  c #956C2C",
"]  c #8B7A2F",
"[  c #85772E",
"{  c #917F2F",
"}  c #886734",
"|  c #946C39",
" . c #8B7D31",
".. c #867A37",
"X. c #937A35",
"o. c #A77A39",
"O. c #B26C39",
"+. c #C95B37",
"@. c #CD4739",
"#. c #FF5E3F",
"$. c #FF4E33",
"%. c #C77539",
"&. c #953745",
"*. c #957641",
"=. c #B0774E",
"-. c #BA5A60",
";. c #CD595F",
":. c #FF5E41",
">. c #D96342",
",. c #CD526F",
"<. c #D26F70",
"1. c #CD6C69",
"2. c #E6646B",
"3. c #EC7276",
"4. c #F9777A",
"5. c #988734",
"6. c #989B39",
"7. c #A58937",
"8. c #AD9637",
"9. c #A8973A",
"0. c #B39C3A",
"q. c #BC9F3D",
"w. c #B69D22",
"e. c #A9A33C",
"r. c #B3A43E",
"t. c #BCA43B",
"y. c #C09E3F",
"u. c #D7983D",
"i. c #CA843B",
"p. c #C2A73B",
"a. c #C6A93C",
"s. c #CCB23D",
"d. c #C7B73E",
"f. c #D1B23D",
"g. c #D3BB3C",
"h. c #DABC3E",
"j. c #D5B337",
"k. c #CFAE1B",
"l. c #DAC33E",
"z. c #D7C63E",
"x. c #DED03F",
"c. c #FFDD28",
"v. c #E3C33D",
"b. c #E4CA3E",
"n. c #E9CA3C",
"m. c #FACE3F",
"M. c #F7CA3E",
"N. c #E7D438",
"B. c #F5D23F",
"V. c #FFD63E",
"C. c #FFDC3E",
"Z. c #F6D93D",
"A. c #FEE534",
"S. c #FFE33E",
"D. c #FFEA3D",
"F. c #F8EA35",
"G. c #FFF33A",
"H. c #FFF235",
"J. c #AD8343",
"K. c #B78942",
"L. c #BD9248",
"P. c #BBA94A",
"I. c #ABA272",
"U. c #C48A44",
"Y. c #C99746",
"T. c #DB9243",
"R. c #D29B45",
"E. c #D99E47",
"W. c #C9894F",
"Q. c #E29D43",
"!. c #C4AF43",
"~. c #D6A548",
"^. c #C9B645",
"/. c #D6BC40",
"(. c #E5A443",
"). c #EAA443",
"_. c #E7A842",
"`. c #EAAC43",
"'. c #E6A74C",
"]. c #F2AD43",
"[. c #FAAC46",
"{. c #ECB341",
"}. c #E9BA45",
"|. c #FBB245",
" X c #F2BC41",
".X c #FDBC45",
"XX c #FDB44B",
"oX c #FEBB4C",
"OX c #F2B548",
"+X c #F0AF50",
"@X c #FEB551",
"#X c #F6B351",
"$X c #E8A851",
"%X c #DAC643",
"&X c #DBCC51",
"*X c #E8CA47",
"=X c #FDC342",
"-X c #F4CB42",
";X c #FDCC41",
":X c #FFC44C",
">X c #FECC4D",
",X c #F5C241",
"<X c #EBDC40",
"1X c #EBD545",
"2X c #FED643",
"3X c #FFDB44",
"4X c #FDD449",
"5X c #FBDD48",
"6X c #F3D644",
"7X c #FFC851",
"8X c #F2D757",
"9X c #E8E144",
"0X c #FEE442",
"qX c #FFEC42",
"wX c #FFE349",
"eX c #FEEC4A",
"rX c #F3E943",
"tX c #FFF442",
"yX c #FFFD45",
"uX c #FFF44B",
"iX c #FFFE4A",
"pX c #FFFF51",
"aX c #FFFF59",
"sX c #FFE552",
"dX c #606991",
"fX c #D95581",
"gX c #EA5887",
"hX c #FC7883",
"jX c #F86A82",
"kX c #E4EFFF",
/* pixels */
"                                                                                                                                ",
"                                                                            u O                                                 ",
"                                                                          * d -                                                 ",
"                                                                        O y s w                                                 ",
"                                                                        - a u r                                                 ",
"                                                                        0 t y r                                                 ",
"                                                                      @ ..w w u                                                 ",
"  & y = = & O                                                         M iXa.q w O                                               ",
"  O r d a a u r 6 o                                                   [ iXyX0.0                                                 ",
"      r a r t q !.9X..4                                               p.tXC.yXJ                                                 ",
"      O u s t 0 8.yXiXeXe.8                                         X -XS.V.yXa.                                                ",
"          r s 9 X.yXV.C.yXuXP.6                                     4 wXC.V.yX8.                                                ",
"            r w Z qXS.C.V.C.yXuX5.X                                 V yXV.V.tXX.                                                ",
"              % t '.2XV.S.C.V.S.iX%Xp                               H uXC.V.uXH                                                 ",
"                . A @X:X XV.C.C.V.tXpXG                              .iXV.C.eXV                                                 ",
"                    3 J.@X.XM.V.S.V.0XiXS N 5.8.t.t.8. .C *         5.iXV.S.4X7                                                 ",
"                        v K.#X7X2X0XC.V.3XtXiXyXtXtXyXiXuXwXe.N     9.yXV.S.#X;                                                 ",
"                            7 } U.R.*XC.C.C.V.V.V.V.V.V.V.S.yXiXr.% H yXC.0XY.                                                  ",
"                                  v 1XS.V.V.V.V.V.V.V.V.V.V.V.C.yX%X5.1XS.wX}                                                   ",
"                                  p.iX2XV.V.V.V.V.V.V.V.V.V.V.V.V.tX6Xf.C.>Xv                                                   ",
"                                N iXS.G.A.V.2XV.V.V.V.V.V.V.V.V.V.V.C.C.2X'..                                                   ",
"                                q.yXC.5.8.S.C.V.V.V.V.V.V.V.V.V.V.V.V.S.5XF                                                     ",
"                              o 5XtXh U kXP.c.2XV.V.V.V.V.V.V.V.V.V.V.S.5X&                                                     ",
"                              N iXm.# L dXJ G.V.C.V.V.V.V.V.V.S.c.D.2XC.qX8                                                     ",
"                              6.yX0XK #   g.qXV.V.C.C.V.V.V.C.*XI.s.S.C.qXN                                                     ",
"                            > >.v.tX0X^.B.D.V.V.0Xs.v.C.C.S.k.Y kXL w.G.wX4                                                     ",
"                            @.~ %.qXC.D.C.B.tXtX0Xl.0XC.V.qXs.q L 9 X.yX*XX                                                     ",
"                          7 :.$.+.<XC.V.S.s.o.| m n p.yXtXS.qXH . i 1XyXt.                                                      ",
"                          c #./ +.Z.C.V.tXs.l l x x l ' Y.h.S.0Xh.2X0XuX5.                                                      ",
"                          , #.~ %.tXV.V.D.s.&.;.2.;.&.l c %XC.C.D.S.S.pXH       X 4 C 2                                         ",
"                          X @.Q z.qXV.V.D.h.1.hXhXhX3.T 7.G.V.V.V.qX/.T.g   N 9.%XwXpXK.+                                       ",
"                            D 5XS.V.V.V.S.v.<.4.3.3.hX-.n.S.C.V.D.z.` ^ T e.iXyXqXC.C.uX..                                      ",
"                            5 iXS.V.V.V.C.N.1.jX3.jXfX!.H.V.V.C.<X` / ( T.yXC.V.V.V.C.yXC                                       ",
"                              G iXS.C.V.C.F.W.gX4.gX=.F.C.V.V.tXu.Q $.Q f.qXV.V.V.C.qXP.                                        ",
"                          1 8 N %Xd.h.B.S.D.s.,.gX-.N.D.V.V.V.tXi.~ ~ O.D.V.V.V.V.D.P.v p h 8 4 1 & .                           ",
"                      C !.5XeX0Xv.z.d.d.d.Z.D.~.W.N.S.V.V.V.V.S.n.E ` <X0XV.V.V.D.g.t.Z.eXeXeXwX3X-X/.p.5.H N * .               ",
"                    [ pXyXC.C.C.C.C.S.C.g.p.%XD.G.S.V.V.V.V.C.C.x.e.x.S.V.V.V.S.M.y.C.S.C.C.C.C.0XS.qXtXyXiXuX5X/.5.C *         ",
"                  6 uX0XV.V.V.V.V.V.V.V.S.C.r./.S.S.V.V.V.V.b.d.t.3XD.V.V.C.C.2XJ.h.D.V.V.V.V.V.V.V.C.V.V.V.C.S.tXiXiX5Xr.G 2   ",
"                  ] iXV.2XV.V.V.V.V.V.V.V.S.n.7.)._.}.C.C.6X/.v.S.S.V.V.C.V.4X| i 0XC.C.C.C.V.V.V.V.V.V.V.V.V.V.V.V.V.C.yXaXv   ",
"                  ] iXV.C.V.V.V.V.V.V.C.C.qXg.q.OX_.B.C.C.V.C.C.V.V.V.S.M.:X$X. M iX X_.-XC.S.V.V.V.V.V.V.V.V.V.V.V.V.D.iXV     ",
"                  f uXS.C.C.C.C.C.S.C.S.V.n.8.*XS.C.C.V.V.V.V.V.V.C.C.}.oX+X2   { yX`.T.Q.{.-XC.S.V.V.V.V.V.V.V.V.V.S.iXS       ",
"                    X.sX.X{.{. X X=X=XE.y.0.h.S.C.V.V.V.V.V.V.V.V.C.{.XX$X3     0.yX_.)._.Q.Q.`.M.S.C.V.V.V.V.V.V.C.pX..        ",
"                      } #XXXu.T.T.U.q.y.z.C.C.V.V.V.V.V.V.V.V.V.3X-X:XR.=       g.qX(.(.].|._.Q.Q.`.-XS.C.V.V.V.V.iX7.          ",
"                        : J ~.a.a.^.v.C.S.V.V.V.V.V.V.V.V.V.C.V.C.`.| .       X 6X2XQ.`.(.R.oX:X:X[._.{.V.C.V.V.yX!.            ",
"                          C iXS.S.S.C.V.V.V.V.C.V.V.V.V.V.V.V.C.0X}.$         2 wXm.Q.7XB X v D X.R.+XXX7X3X0XyX*XX             ",
"                          0.yXV.C.V.V.V.V.V.V.V.C.V.V.V.V.V.V.V.S.wX*   5 + . 6 tX.XXXR.          . 3 V } J.>XeX=               ",
"                        X -X0XV.V.V.V.V.V.V.V.V.V.V.V.V.V.V.V.V.0X3X@   ~.6X^.f.S.{.7Xb                     * >                 ",
"                        h uXC.V.V.V.V.V.V.V.V.V.V.V.V.V.V.V.V.V.C.wX5   7.7X3XtXC.=XY..                                         ",
"                        ] iXV.V.V.V.V.V.V.V.V.V.V.V.V.V.V.V.V.V.C.qXM   } 7X(.:XwXsXB                                           ",
"                        s.tXV.V.V.V.V.V.V.V.V.V.V.V.V.V.V.C.V.V.2XiXS   b oX`.D | J.                                            ",
"                      * wXS.V.V.V.V.V.C.V.C.V.V.V.C.V.V.V.V.V.V.V.yX5.  $ ` ` O                                                 ",
"                      S iXV.V.V.V.V.V.V.V.V.V.V.V.V.V.V.V.V.V.V.C.S.n.c g T R -                                                 ",
"                      8.yXV.V.V.V.V.V.V.V.V.V.V.V.V.V.V.V.V.V.V.V.V.tXo.W _ _ >                                                 ",
"                    o 6X0XV.V.V.V.V.V.V.C.V.V.V.V.V.V.V.V.V.V.V.V.V.D.s.> c ) >                                                 ",
"                    N uXC.V.V.V.V.V.V.V.V.V.V.V.V.V.V.V.V.V.V.V.V.V.C.eX1   . .                                                 ",
"                    ] iXV.V.V.V.V.V.V.V.V.V.V.V.V.C.C.C.C.C.V.V.V.V.V.iXH                                                       ",
"                    5.iXC.C.C.V.C.V.V.V.C.V.C.S.C.C.V.V.;XV.V.C.S.C.V.yX7.                                                      ",
"                    S iX Xn.m.V.C.C.C.C.C.V.;X,X{.`.(.(.(.(._.`. Xm.C.iX5.                                                      ",
"                    + }.oXQ.(.`.{.{.{. X.X.X.XXX].).(.(.(.(.(.Q.Q.Q.;X0X2                                                       ",
"                      # L.(.(.(.).XXoXXX~.U.o.J.L.E.oX:X:XoX.X[.`.).`.*.$                                                       ",
"                    2 K d.~.~.|.#XJ.S j -     . % 3 b F } 7.K.~.`.R.~.{.-X..=                                                   ",
"                + Z ^.iXyX4XXX~.*.$                           A K.R.4XuXiXpXP.Z o                                               ",
"                p &X%XL.| V 6 &                                 . + 2 h G 9.%X8Xi                                               ",
"                O 1 :                                                       @ 4 O                                               "
};
