/* XPM */
static char *_0ab24edc30d4e3cbb8a00c1c48d442eFbxnuIYJiVYyzTKb[] = {
/* columns rows colors chars-per-pixel */
"64 64 149 2 ",
"   c #000000",
".  c #0A0A07",
"X  c #0C0C08",
"o  c #100E09",
"O  c #191C0E",
"+  c #1E1A12",
"@  c #221D13",
"#  c #1C220F",
"$  c #1E2410",
"%  c #1F2810",
"&  c #222613",
"*  c #282517",
"=  c #242B14",
"-  c #292E16",
";  c #2D2719",
":  c #2C2D19",
">  c #312D1C",
",  c #273015",
"<  c #2A3217",
"1  c #2D3419",
"2  c #2F381A",
"3  c #33351C",
"4  c #333C1C",
"5  c #393C1F",
"6  c #3B3621",
"7  c #3B3A21",
"8  c #423C26",
"9  c #36411E",
"0  c #39441F",
"q  c #37481F",
"w  c #3B491F",
"e  c #3B4521",
"r  c #3E4A22",
"t  c #424424",
"y  c #414D24",
"u  c #4E482B",
"i  c #52482D",
"p  c #455326",
"a  c #485627",
"s  c #485827",
"d  c #4A5629",
"f  c #4C5B2A",
"g  c #50572C",
"h  c #525E2D",
"j  c #5E5236",
"k  c #605337",
"l  c #655B3A",
"z  c #6B5D3D",
"x  c #4F602B",
"c  c #53632D",
"v  c #57692F",
"b  c #586B2F",
"n  c #576730",
"m  c #5A6631",
"M  c #576930",
"N  c #5A6C31",
"B  c #5E7234",
"V  c #6E603E",
"C  c #617535",
"Z  c #647836",
"A  c #657A37",
"S  c #647936",
"D  c #657238",
"F  c #657938",
"G  c #667838",
"H  c #667938",
"J  c #677B39",
"K  c #677C38",
"L  c #677C38",
"P  c #687A39",
"I  c #687C39",
"U  c #687D39",
"Y  c #687E39",
"T  c #697E39",
"R  c #697D3A",
"E  c #697F3A",
"W  c #6A7F3A",
"Q  c #6B7F3A",
"!  c #687D39",
"~  c #736341",
"^  c #7A6A45",
"/  c #7D6E48",
"(  c #86764D",
")  c #88764D",
"_  c #8B794F",
"`  c #8C7A50",
"'  c #927F53",
"]  c #6A803A",
"[  c #6C823A",
"{  c #6C823B",
"}  c #6C833B",
"|  c #6D833B",
" . c #6D833C",
".. c #6F823C",
"X. c #6F833C",
"o. c #6D853C",
"O. c #6E843C",
"+. c #6F843D",
"@. c #6F853D",
"#. c #6F873D",
"$. c #6D833B",
"%. c #70863D",
"&. c #72843E",
"*. c #74873F",
"=. c #71873E",
"-. c #71893E",
";. c #72893E",
":. c #728A3E",
">. c #738A3F",
",. c #738B3F",
"<. c #748A3F",
"1. c #748C3F",
"2. c #728A3E",
"3. c #748C40",
"4. c #768D40",
"5. c #758E40",
"6. c #778E41",
"7. c #758D40",
"8. c #779141",
"9. c #789042",
"0. c #7A9142",
"q. c #799242",
"w. c #7A9343",
"e. c #7B9443",
"r. c #7D9543",
"t. c #7C9444",
"y. c #7E9745",
"u. c #7A9343",
"i. c #7D9845",
"p. c #7E9845",
"a. c #7F9945",
"s. c #7E9944",
"d. c #7F9B45",
"f. c #809B46",
"g. c #829B47",
"h. c #819C46",
"j. c #829E47",
"k. c #859F49",
"l. c #82A046",
"z. c #85A049",
"x. c #87A149",
"c. c #85A249",
"v. c #8CA24D",
"b. c #8AA54B",
"n. c #8FAD4E",
"m. c #92AE4F",
"M. c #90AB4F",
"N. c #96B651",
"B. c #9ABB53",
/* pixels */
"                                                              %.6.g h >                                                         ",
"                                                          ; m r.&.G M m &.y t i                                                 ",
"                                                          p N N C ;.%.N I m e 5                                                 ",
"                                                      9 e y c c C Z I C Z n y 9                                                 ",
"                                                  - 4 0 4 1 r f N M L 6.r.Z r C g.                                              ",
"                                              w   1 4 2 4 < y b c c f h Z ..C g.r.N.B.                                          ",
"                                              4 3 1 2 1 1 - c c d f d a I O...s.C k.m.                                          ",
"                                            < 9 4 2 1 < = p B f d c f f M a N +.6.1.] z.Z                                       ",
"                                            2 2 1 1 1 = , p x N d d p M M B I y.p. .{ ;.B N #.                                  ",
"                                            3 1 4 1 & 2 e 2 p x h f d f 3.z.y.u.z.6.C N I 3.6.                                  ",
"                                        * = 2 4 2 , = e a r r r s d Z B C c 9.s.w.s.C N +.y.w.                                  ",
"                                      = - < 4 4 1 - = r x x r r r d x a f G p.p.] N n L %.t.s.s.                                ",
"                                    d 3 1 1 1 1 , - - 1 r M c M y p y y p R 3.3.6.N C +.6.8.s.f.g.                              ",
"                                      7 2 9 4 < & - - = r n v c y r p p e N  .3.L I L L +.;.L 3.<.                              ",
"                                    , 1 0 e 9 2 & - 1 , 9 s x f s y d r e s s B Z B { v.%.N B { ..                              ",
"                                    ,   9 0 4 2 - = 1 = 4 p s s s y p r r x B B C Z w.3.c ] L { c.                              ",
"                                  4 1 - 3 2 4 2 1 1 2 - 2 0 r r p r r r p Z L M B 8.n.3.f C e.6.n.                              ",
"                                  < 1 < = 2 0 4 , 2 r 4 9 9 2 9 e e r r f B b d Z b.+.L c b #.L L c                             ",
"                                  = 1 - = 2 0 0 4 2 9 e p 0 9 2 2 e e 9 p C B f { B x d a x B Z C B                             ",
"                              t 3 - 2 < - 2 3 9 9 4 1 0 e 4 9 2 e e 2 e e s c a M x c s s d d d b Z L                           ",
"                              2 = = 1 1 2 1 - < 9 2 2 9 r r 9 r e 2 2 e 4 r c x c B 3.r M c f B b N ]                           ",
"                              t =   - - 1 = = 2 r 9 4 0 s p 9 0 e e r r 9 9 x s L M.f r L z.C c f c c                           ",
"                            0 5 5 i 4 2 1 - $ 9 9 9 4 4 9 r r 9 3 e e e p x s r c N r c c M M 2 p f f                           ",
"                            3 3   t 4 - % = 2 2 1 4 4 2 9 9 p r 3 1 e r d d r r r 9 p d 0 r p p a c                             ",
"                    1 4 = 4 3 5 - 4 2 , - 4 4 4 9 4 4 4 0 0 4 9 e e e e r p s r 0 4 f c p p r e a N                             ",
"                  2 < 1 < - < 2 , 4 = 1 1 4 4 r 9 < 4 4 4 9 9 9 9 2 r r r s s r 9 3 0 B M 0 p a r M N                           ",
"                  1 2 1 , $ , & = 2 2 - 4 y < < 1 & 2 r 0 4 4 9 9 2 r e r R B p 4 r y B s 0 f b x N                             ",
"                    9 1 1 = = = , , < = 3 4 = 1 0 4 4 w 0 4 4 2 9 9 9 9 e s M e e r r d f M d s                                 ",
"                    0 4 < 3 2 1 1 = = < 2 - < 4 0 9 0 4 e 9 2 9 e 4 2 2 e r r r d d 9 e f M f f                                 ",
"                #       < = , - = , 1 4 2 3 1 = 1 f p e r r 9 4 2 3 < e 4 r r p f b M f y c c                                   ",
"                = < % = 2 2 - - - & = 1 9 2 - 3 0 s a c n p 4 4 2 1 4 e 4 e e y d b x c d ] b   b       r p s d x               ",
"              2 1 , $ 2 2 2 2 = < < , 2 4 2 < 1 f c a f a r 9 4 1 1 2 2 2 e y r y f b A c N e d M e p w 4 r a a N               ",
"              1 1 1 - < = = 1 = = < 2 e e e e 2 q 7 3 e e 2 2 2 1 7 e 1 4 e f 0 4 r B B B L b L c q 0 w 9 y d d a               ",
"              1 1 < & 6 7 = = 1 1 = < 1 < 2 e 2 % $ < q 2 4 2 < 6 4 e 2 y f s e p s M L C N d y 0 0 9 9 9 r a b                 ",
"              1 = $ # - 2 2 $ < = 2 2 2 , % = = % = e r r e 2 7 4 2 e e p s e e p d c N B c p f r 9 0 r r p N Z N               ",
"              $ % $ 7 2 % - : = % e 2 2 < < = % = - , 1 e e 2 2 2 1 9 9 e e 2 e p f f B c f s d 4 4 e a s f Z c f               ",
"              $ $ & 7 = $ & - 1 2 2 2 2 < 2 < 2 - = = < < 7 9 7 3 4 1 2 r s 4 s y y e 9 e e e r e e r d f x w g M               ",
"                  $ % % & & $ 1 = % = < < 2 = = $ - - = $ 2 2 2 2 e 3 7 r r e p f c p 4 9 e 7 y f y y y y a e                   ",
"                    2 < - $ $ = = $ $ = = = = < = - = = = < 2 < 2 9 1 e s m n N M f M a p r e y c c n d f s y y y               ",
"                  2 % = = % : % $ $ $ = : % $ 2 1 & : = = < 1 < 2 2 2 e h R N N p 7 e r p e r d M N f c p p y p a               ",
"                  < - 2 < = = & $ & % : < = $ < = = : : = 7 2 2 2 1 1 7 d m h d p r d 7 r x p r p d h y p s f s p               ",
"                  < 2 e < < = 2 : = = $ % : % - < < : - = = 7 2 1 - 6 r y f C h L n B a x n s p p 9 4 y d                       ",
"                    7   2 2 e 2 = = > $ $ = % : 2 : ; 1 = = = - 1 2 1 e n n B N ;.L Z v N f B C h b e                           ",
"                            1 = < < 2 - = $ : % % = $ : : $ % 1 3 1 : 1 h n N M p r c f y 4 3 a M M e                           ",
"                          , , < < , = = = % < $ = ; < - : = $ 1 1 = : 6 1 e N L 4 - r e 3 3 9 1 1   9 4 r r                     ",
"                          = < : , - $ $ : : - % = - < - : : - 6 6 1 < 1 1 < p R p e 1 2 2 9 4 2 1 2 4 0 w 0 q                   ",
"                                    = % , : = = $ $ & % = ; & 6 1 - < 2 1 < 2 p a 4 1 3 4 4 2 2 3 3 = 9 0 0 w                   ",
"                                  = % = 4 : = & $ = = + $ * & 3 : & - 1 1 < < 1 e d e 1 2 e 7 * = &   4 y                       ",
"                                    % 3 7 3 & & : & = * & & > 3 > > 3 1 1 1 1 5 6 e e 1 4 1 +                                   ",
"                                      3 1 - = % 1 & & & & $ > 3 3 3 3 3 3 e 4 9 4 e 9 2 2                                       ",
"                                      - & =       & = = = = $ 6 3 6 8 7 3 ; 1 e 9 t y                                           ",
"                                        = =       & O & = : ; > 3 ; O + &     w w a a y                                         ",
"                                                        $ $ * 3 j l               b w 9                                         ",
"                                                          # O 6 ~ ^                                                             ",
"                                                              > V ^                                                             ",
"                                                              > V (                                                             ",
"                                                              * V '                                                             ",
"                                                              @ l _                                                             ",
"                                                              + k )                                                             ",
"                                                            X + j `                                                             ",
"                                                            X @ k _                                                             ",
"                                                              @ j ^ ^                                                           ",
"                                                              @ k / `                                                           ",
"                                                            o > l ( `                                                           "
};
