/* XPM */
static char *c97ee46dbcdb47f2b51d46f1888e9dbb5kmSaPmkpLKIc9me[] = {
/* columns rows colors chars-per-pixel */
"64 64 232 2 ",
"   c #010101",
".  c #020202",
"X  c #090808",
"o  c #0A0A09",
"O  c gray4",
"+  c #0B0B0A",
"@  c #0C0C0B",
"#  c #0D0C0C",
"$  c #0D0D0C",
"%  c #0E0D0D",
"&  c #100E0E",
"*  c #110F0F",
"=  c #121111",
"-  c #131211",
";  c #131212",
":  c #141413",
">  c #151413",
",  c #151514",
"<  c #161514",
"1  c #171514",
"2  c #171615",
"3  c #171715",
"4  c #181615",
"5  c #181816",
"6  c #1A1817",
"7  c #1B1818",
"8  c #1C1C1A",
"9  c #1D1C1A",
"0  c #1E1D1B",
"q  c #1F1F1D",
"w  c #201E1D",
"e  c #211F1E",
"r  c #21201F",
"t  c #22201F",
"y  c #22211F",
"u  c #23211F",
"i  c #242221",
"p  c #262422",
"a  c #272523",
"s  c #262623",
"d  c #272623",
"f  c #282624",
"g  c #2A2826",
"h  c #2A2927",
"j  c #2B2927",
"k  c #2A2928",
"l  c #2B2A28",
"z  c #2C2A28",
"x  c #2D2A29",
"c  c #2C2B29",
"v  c #2D2B29",
"b  c #2D2B2A",
"n  c #2D2C2A",
"m  c #2E2C2B",
"M  c #2F2D2B",
"N  c #2E2D2C",
"B  c #2F2D2C",
"V  c #302E2C",
"C  c #312E2C",
"Z  c #302E2D",
"A  c #312F2D",
"S  c #322F2D",
"D  c #312F2E",
"F  c #32302E",
"G  c #33302E",
"H  c #33312E",
"J  c #34322F",
"K  c #353330",
"L  c #353331",
"P  c #353432",
"I  c #363432",
"U  c #363533",
"Y  c #373533",
"T  c #373633",
"R  c #373634",
"E  c #383634",
"W  c #383734",
"Q  c #393735",
"!  c #393835",
"~  c #3A3836",
"^  c #3A3936",
"/  c #3B3937",
"(  c #3C3A38",
")  c #3D3B39",
"_  c #3E3C39",
"`  c #3E3C3A",
"'  c #3F3D3A",
"]  c #3F3D3B",
"[  c #403D3A",
"{  c #403E3B",
"}  c #413E3B",
"|  c #413F3C",
" . c #423F3C",
".. c #423F3D",
"X. c #42403C",
"o. c #42403D",
"O. c #43403D",
"+. c #43413D",
"@. c #43413E",
"#. c #43413F",
"$. c #44423E",
"%. c #44423F",
"&. c #45433F",
"*. c #444240",
"=. c #454341",
"-. c #464341",
";. c #454441",
":. c #464441",
">. c #464442",
",. c #464542",
"<. c #474542",
"1. c #474643",
"2. c #484543",
"3. c #484643",
"4. c #484644",
"5. c #494644",
"6. c #494845",
"7. c #4A4846",
"8. c #4A4946",
"9. c #4B4946",
"0. c #4C4A47",
"q. c #4D4A48",
"w. c #4C4B48",
"e. c #4D4B48",
"r. c #4D4C48",
"t. c #4D4C49",
"y. c #4E4C49",
"u. c #4E4D49",
"i. c #4F4D4A",
"p. c #504E4B",
"a. c #504E4C",
"s. c #504F4C",
"d. c #514F4D",
"f. c #51504D",
"g. c #53504E",
"h. c #53524E",
"j. c #54514E",
"k. c #54514F",
"l. c #54534F",
"z. c #555350",
"x. c #565450",
"c. c #565451",
"v. c #575552",
"b. c #575653",
"n. c #585653",
"m. c #585753",
"M. c #585754",
"N. c #595755",
"B. c #595854",
"V. c #5A5855",
"C. c #5A5856",
"Z. c #5B5956",
"A. c #5B5957",
"S. c #5C5A57",
"D. c #5C5A58",
"F. c #5D5B58",
"G. c #5E5C59",
"H. c #5E5C5A",
"J. c #5F5D5A",
"K. c #5F5D5B",
"L. c #605E5C",
"P. c #615F5D",
"I. c #61605D",
"U. c #62615E",
"Y. c #63615F",
"T. c #646260",
"R. c #656260",
"E. c #656361",
"W. c #656461",
"Q. c #666562",
"!. c #676563",
"~. c #686664",
"^. c #696765",
"/. c #696865",
"(. c #6A6866",
"). c #6C6866",
"_. c #6D6967",
"`. c #6D6A68",
"'. c #6D6C68",
"]. c #6E6D69",
"[. c #6E6D6A",
"{. c #6F6E6D",
"}. c #706E6D",
"|. c #706F6D",
" X c #71706E",
".X c #73706E",
"XX c #747370",
"oX c #757370",
"OX c #767471",
"+X c #757472",
"@X c #767573",
"#X c #777573",
"$X c #777674",
"%X c #797775",
"&X c #797776",
"*X c #7A7977",
"=X c #7C7A79",
"-X c #7C7B79",
";X c #7D7C7A",
":X c #7E7D7C",
">X c #807F7E",
",X c #81807E",
"<X c #81807F",
"1X c #83817F",
"2X c #828180",
"3X c #838280",
"4X c #838281",
"5X c #838381",
"6X c #848280",
"7X c #848281",
"8X c #848382",
"9X c #848482",
"0X c #858483",
"qX c #868584",
"wX c #878684",
"eX c #878786",
"rX c #888786",
"tX c #888887",
"yX c #898887",
"uX c #8A8988",
"iX c #8A8A88",
"pX c #8A8A89",
"aX c #8B8B89",
"sX c #8B8B8A",
"dX c #8C8B8B",
"fX c #8C8C8B",
"gX c #8D8C8B",
"hX c #8D8C8C",
"jX c #8D8D8C",
"kX c #8E8D8D",
"lX c #8F8F8E",
"zX c gray57",
/* pixels */
"P P E E / +.3.+.+.' &. .(  .} D.' 7.+.N 7.+.X.&.P P p./ G.z ( f.N z N D } N / / / P P / G.+.D ( i.' C.>./ +.+.P } / Y ( E Y ( E ",
"p.i.l.l.M.G.C.D.C.M.l.p.f.G.l.0X} l.0.. +.&.7.i.&.r.X.' M.k 5.=.E D & P &.z I / +.&.+.i.f.7.B &.c., f.P ' 3.m.l.3.f.i.M.p.p.y.l.",
"} / } } &.+.>.>.D.c.C.d.d.L.D.L./ f.7.. / R C.f.&.W T.Y i.z } ( 5.&.' 5.i.B +.M.+.&.7.p.+.W B +.7., Q.3.G.i.&.W } } &.&.( E } E ",
"} &.>.p.c.M.l.C.f.l.f.l.P Z.c.Q.i.>./ . &.>.7.7.&. X7.3.i.z +.P 5.E / +.*.B i.G.C.&.G.=.>.>.P l.G.. /.p.f.m.7.i.m.C.Z.m.f.=.l.d.",
"I / ( ( ( L.' } &.l.l.f.>.&.^.D.D . < E C.' +.F.G.G.Q.&.c.z ' I &.P P W +.B c.>.+.f.M.>.0.=.&.=.&.I L.d.l.m.m.m.y.=.m.3.P p.&.( ",
"F E ( p.}  .>.C.&.l.f.>.&.&.Y.yXF P F ' 7.A.' G.[.7. X&.. i / / } } P 7.W B s.P / +.}.7.&.=.I T.L.I.0.>.7.C.C.7.M.+.&./ &.E R I ",
"( &.>.&.>.l.=.z.d.L.l...0.&.l.Y.i.m.K.G.w.*.G.l.l.3.7.< w &.+.&.0.&.P +.B ] B i.>.gXG.&.c.>.m.Z.L.j T.7.l.I.Q.F. .C.d.y.Y 3.E =.",
"E P ( E } 3.>.3.=.&.f.m.=.l.G.0.P f.z.f.7.l.>.+.&.P 0 y } 7.3.&.>.i.>.+.*.w. .D m.+.f.3.p.7.0.0.i.+._.G.G.Y.L.>.i.>.( E `.&.} D ",
"Y Y =.p.L.=.L.Y.z.=.l.&.L.^.Y.7.5 J G.T.i.i.zX:X*X/ / i.>./ &.+.>.Z.&.' } p.&.D D gXuXOX&.&.&.l.P >.7.G._.~.I.7.f.7./ s.5X/ s.3X",
"3.3.d.d.l.=.m.D.y. .d.D [.;Xm.I.5.Y / Z.>.f./ ' / X.N 7./ >.7.' 3.;X>.} P M.+.M.S D J I L.( y.D i.f.w.Q.F.I.3.$.7.G.( M.m.*.*.w.",
"&.E p.} l.} l.l.5.&.2.3.p.3.3.{.C.q J P F.r.' G.r.l.f.>.+.} / / &.p.} +.m.=.3.&.&.y.3.[.`.d.D z N >.C./.jX7.i.>.f.c.' 7.P F w.w.",
"&.D.3.p.d.} l.m.=.=.k f m.>.&XI.w D f.j / / / +.' ' +.X./ ' / W P P B D B D D D D D J J D P Y 0.+.y f.F.W i.I.$.G.+.W 7.W F R i.",
"p.&.>.f.3./ d.c.R i.3.i.l.C.OX9 F f.7.f.T.0XuXK.I.I.^.i.i.I.G.F.Z.T.Z.[. XI.f.m.3.Y.7.T.L.Z.&. .&.P j 7.C.3.C./ i.7./ 7.>.W +.w.",
"Y Y Y / ' } &.=.>.c.f.l.^.&XM.D G.3.f.f.z.C. .f.l.G.!.+.+.' f.>.D.m.&.>.N ' &.C.0.( / D ( >.>.&.&.i.P y >.f.0X3./ } G.i.+.+.i.( ",
"P / E } >.&.7.+.>.m. X}.[.OXE 5.w.1.c.C.C.s.] C.c.[.>.+.&./ &.>.L.j / / N &.&.l.Z.} &.D / ' ( / / +./ F s +.7.+.>.' F E / P P / ",
"&.l.>.G.f.&.f./.1XF..X*X&X/ 5.f.7.7.f.C.7.s.I.7.f.>.s.i.r.L.X.W >.7./ j m.&.&.5.7.>.3.y.3.>.l.( >.>.F &.+.s ' i.F 7.M.F &.s P +.",
"0.l.z.l.p.d.Z.uX3X*X.X1X} >.i.i.G.d.f.c.y.C./.*X~.Y._.#X.XgX7.r.i.[.3XT.}.3X*X`.uX|.i.+.G.>./ >.G./ r.X.F J C / ( L.} &.} ' +.+.",
" .# / . . E O # z &X:X' 5.0XL.f.c.7.>.7.7.L.&X&.7.C.L.3.r.i.m.X.>.&.>.} &.=.i.5.Q.fX7.+.=.E ' z.X./ X.i.3.>.D ( C x O } D O . . ",
"p.m.l.M.m.l.^.k j N &.r.3X5.d./.z.c.p.>.>.Y.}.7.I.I.f.l.l.7.1.P / >.} p.f.yX3X3X5.tXi.z.' +.( E >.P &.&.&...L.D Y m.>.0.f.i.7.i.",
"z 0.} ( / E ( 8XN D z Q./.C.i.f.M.f.D.i.L.F.>.C./ G.G.c.>.>.f.X.&.i./ L.c.G./.Q.Q.Q.0XC.z.+.&.3.m./ &./ 3.rXY j } / &.Y 5.+.+.} ",
">.i.+.G.!.M.C.8X1X XF ' G.G.c.+.+.&.2.+.c.i.c.F.&.I.>.L.z.&.&./ 7.>.' f./ f.r./ G.M.z.0X[.Z.d.l.&.&.R P J D Q.D +./ 1X/.f.+.' F ",
"l.P i.>.y.m.y.).~.-X;XD N l.C.[.+.>. .K.3.7.&.I.+.I.7.p.7.+.d.+.' &./ C.( Z.&.T.T.c.*.0.l./ f.=.D N F B J Y ' m.P &.&.l.F F P +.",
"&.+.7.&.A.>Xy.d.8 N N D D G.&.f.&.+.+. XD.+.i.Q.+.C.L.5.=.+.l.&.>.3.' G.Z.L.>.Z.+.=.d.f.d./ &.D / ' +./ +.E E ^.3.c.3./ P +./ +.",
"y.c.Q.c.D.y.C.I N 7.&.D z N B B B D F l.G.$X+.G.&.^.I.oX=.!.i.+.l./.+.m. X~.>.[.7.7.tXz.< & C E >.p./ E E d.0.>.$ d.f.&.} C 7./ ",
"f.f.m.d.C.i.|.N N +.+./ ' +.+./ ( >.i.P C.rX[.Z.C.&.+./ i.^.c.&.&.C.>.+.f.&.i.+.l.d.&.D N N J D N D C D J J p.3.D ( p.P d &.( i.",
"/ i.i.&.i.P _.N N N G.' l.[.!.M.A.Q.+.s.P l.F.>.L.>.>.d.I.C.&.Y +.G.*.+.K.7.7.s.p.I w D i.} &./ X.d.3.L.m.l.Y ' S y.0.V F P P Y ",
"R 2.+.( W i.f.7.W B B f.P s.l.i.m.7.G.7.f.F c.>.G.&.G.K.m.C.3.+.i.G.2.G.C.*.' +./ E D =.J Y +.l./ >.3.Y Y / &.f.I 3.3.=.&.i.&.Y ",
"R ( P y.i.7.+.' / f.F B w.w.+.c.F.>.r.G.7.D R G.>.&.3.7.+.>.>.&.i.+.>.+.2.+.>./ +.D p.J N D Z.Y &.p.&.E ' &.J / D p.l.} +.&.p.Y ",
"} E / i.C.m.7.c.+.X.B D O *.# / tXF.1XQ.+.j / -XC.C.i.C.l.s.l.d.c.&.0.f.*.>.f.s.&.d.P f.Y F X.D +.m.E / / c.I Z.F } +.R P p.i.+.",
"/ +.f.l.l.&.i.7.>.i.D f.>.+.>.+.G.i.1XX.f., E y 0 7.i.7.i.7.&.+.>.>.&.f.>.>.f.+.( / / Y N &.>.f.&.+.&.P >.i.f.N D / } 5.+.p.i.P ",
"P ' m.yXQ.l.m.l.f.C.B +.=.i./ / m.f. X>.+.&.+.7./ f.i./ J / N F D D F D N D / N C C C / &.5 ( {.3.d.&.E &.Z.( 3.I 7.&.A.Z./.l./ ",
"/ >.0X0X:XQ.1XC.>.T.D 5.i.s.# / f.l.Q.f.i.F f.&.R f.i.5 q $ # . 3.' P / . O 5 - 5 O . + C.5 +.d.&.F ' E } f ( Y D Y } +. .p.&./ ",
"/ &.yX0X0X^.[.m.f.c.D +.&.m.+ >.c.p.0Xi.l.D >.3.P ) 7.P < s < . } D F +.O , $ O . - . . 7.- / z.7.>.+.( ( F D.I J Y } i.' } 3.&.",
"P X.3XuX8X.X8Xy.C.f.D &.+.7.s +.0.C./.&.i.l.P f.J 3.7.Y . ' . >.D D C C , D . . # O D ' ] : d.z.+.P 5.>.E d.&.} D / &.7.+.+.} / ",
"+.' _.0XT..X.XL.p.0.D i.3.f.F c.&.F.L.}.3.w F >.f j 3.3.+.>.&.5.>.3.>.r.&.&.3.5.&.>.>.&.i.5.>.+.( E >.5.Y M.M.&.D 7.0./ 5.&.E } ",
"7.+.&.T.M.rX/.[.3.i.D D +.5.- F.&.d.>.rX5.J J '.f.m.p.l.l.f.C.I.C.G.l.m.d.C.l.D.C.Q.G.' w.+.f.( >.+.G.7.Z.T.l.m.N $ &.+./  .+.i.",
"( } ' C.~.8X8Xm.3.#XD D w.!.7.G.( Y p.1X+.N D i.&.+.&./ X./ / ' &.} ' i.&.7.3.>.c.P  X>.7.i.f.+./ J z.P E / / 7.N 7.i./ } *.' ] ",
"' P / / i.7.*Xj N F J l.i.Q.C.$.0.^.L.&.} D &.>.l.&.L.c.C././.>.+.yX+.m.0Xc.7.7.i.z.B G.w.>.&.7.P J 3.&.} / P i.n +.X.i.' +.} *.",
"' d.+.C.>.d.oXR ' D Z.i.m.G.l.W >.r.7.L.D i.G.m.L.( T.7.5XG.K.2.=.3X&.>.}.m.3. XtXf.. F 1XG.i.>.&.P ( +.P &.( } N P i.C.m.i.R C.",
"f.c.Q.0XuXD.OXE R i.5.&.' +.+.c.+.&.C.P +.3X&X3.0.C.f.&.$.[.i.*.f.[.7.Z.0.3.3.3.c.tXf.B F F F F B P D D D D p.i.N 7.E c.i.C.i.f.",
"( {.C.7.M.uX0XW W {.G.B K B J P / N F 5.G.3XG.G.s.m.G.tXG.G.I.i.d.jXm. XL.0Xc.yXG.i.0XG.. $ F P / E } &.J l.E F P &.i.i.r.i.s.>.",
"0./.z.>.0XG.G.[.i./ P R I Q./ ' >.' +.tX!.z.L.0Xw.i.fX Xz.f.C.K.f.D.m.&X0XL.>. X5.i.tXuX0XG.i.B Y ( } P } 7.&.p.i.>.C.f.+.l.G.m.",
"l.i.m.C.f.i.i.XX3XtX:XP +.A.G.>.&.&.&.jXc.C.M.oXF.T.l.>.s.+.f.5.c.G.5.' i.`.d.`._.3.l.l.F.&.m.&.P J I B D f ~.Z.1Xf.i.7.C.l.c.c.",
"d.[.d.0XQ.fXXX`.uX0X' i.C.z. .7.+.p.f.G. Xf.Z.[.M.G.7.G.i.i.7.f.+.7.7.I.0.G.5.w.0X>.>.G.*Xm.1.C.d.=.&./ D D  X^.l./.m.C.[.L.f.C.",
"f.z.G.7.G.z.7.`.E ' ' z.Y +./ G.c. X=.3X{.}.m.0X|.T.A.7.>.' I.7.7.i.3.G.jXG.3X/./.f./.I.C.>.C.>.G.d.&.} &.i.N y d. .5.G.f.l.p.f.",
"}.{./.3X X$XoX' &.l.y.c.[.0.p.s 7./ / i.0.8X0Xf.1X0XT.2.+.3.+.3.f.+.7.I.3XyX1XT.i.I.7.G.c.>.&.&.5.p.z.y.7.f.f.B i /.M.[. X/. X}.",
"N j E 5.I R ' 2.>.l.}.>.d.Y.C.l./ Q.i.P i.1X0Xc.c.i.l.P i.>.7.>.d.>.f.i.d.i.i.>.i.*X0.F.G.7.i.fX5.p.l.8X7.Q.D } z j i D j w P x ",
"l.z.D.!.T.I.T.I.L.:X0X[.C.7.Q.D.J f.A./ M._.0XI.yX0X/.i./. X&.i.+.f.`.D.0X3X{.tXtXjXi.f.G.m./.G.uXd.uXy.0.B f.5.c.f.l.l.d.l.l.m.",
"T._.yXyXfXjXtXuXOXjXjX8X3X5.5.M.=.Z.F / >.i.uXi.i.i.3.f.+.l./ 7.} &.0.p.G.w.7.7.d.i.y.0XL.z.l.D.>.uX0.i.&.< c.;X;XI.c.Q.C.c.0XQ.",
"7.>.i.G.f.i.z.L.z.I.{.uXtX8XA.L.c.i C.p.f.r.N i.i.C.Z.X.+.B 7.+.m.aXi.&.D 7.7.I.}.d.d.R z.m.D.d.i.i.7.+.c.7.yXC.f.&.+.i.i.' 0.} ",
"z.G.0XG.c.D.M.z.M.L.^.^.tXhX`.E  Xf.i.f.i.y.N 0.p.m.f.} } F >.+.p.r.7.&.N >.i.G.}.5.y.P k.d.m.l.c.f.W i.c.yXm.C.p.f.p.f.+.d.3.+.",
"3XtXyXtXfX7.XX3XD.G.[.T.T.lXD. .F M.7.i.[./.{.[. X X[.yXgX0X_.1XtXyXm. X[.{.*X`.[.}.}.}.OX~.f.d.G.7.C.C.gXG.Q.L.oXyX/ ^.f.f.z.d.",
"y.M.uX0XfX2.jX{.G.I.G.G.jXM.OXd.' B A.q I F D F F D D B D B D D N D N D B B F B J C B D D N } d.C.y c.0XY.C.~.G..XG.+.C.i.y.0.p.",
"i.:X3XuXXX>.fXjXA.L.f.i.L.!.L.uXd./ D B 7.+.B M.I.7.d.3.=.&.5.=.3.' 7.7.>.6.5.7.p.7.C. XG.>.J i F.7.l..XY.m.L.m.c.f.+.c.p.l.f.7.",
"5.T.c./.0X5.0X`.G.5XuXC.fXuXD.1XG.5 B =.' >.F B D D P &.5.C.i.f.p.C.f.Z.F.>.>.7.B B D D 0Xl.d.R 7.l.3.`.rXm.m.&.w.G./ l.i.c.c.i.",
"7.w.I.K.G.>./.uXc.G.C.L.0X1X>XL.q D +.+.} +.c.f.L.P N &.f.z.d.+.&./ 3.' &.*.$.. F 1X1Xm.i.i.7.f.P &.Z.Q.f.G.Z.7.m.C.M.!.C.c.i.c.",
"'  .&.C.i.&.Z.c.z.G.G.C.$X X^.Q.B +.' R =.C.>.A.C.+.j j } 3.&.>.&.X.+.>.C.>.7.N &.m.p.d.T.p.d.5.3.D I.Q./ C.f.&.&.s./ l.0.i.i.+.",
"i.f.7.d.c.Q.L.5X;XoXG.C.C.' ^.I. .Q.{.T.0.>.C.[.m.D +.y s X.&./ &.+.+.p.&.0.D l.l.Q.^.&.&.} D.!.l.4 m.&.Z.3.f./ C.C.^.p.l.l.C.7.",
"F D I +.} / &.;X>.G.G.C.l.>.[..XB B B B z.2.i.3X[.3.Y.X.J 1 / +.} / ( Y / N r.i. .&.M./ y.7.B Q.l.L.+.>.l.&.+.P f.' >.' >.Y P P ",
"+.+.' i.&.D.+.p.f.D.D.Z.l.7.*X.XB ' ] z i.+.z.tX1XZ.i.f.p.x P W P / / &.&.N F &.&.d.Z./ I =.B ( Y N C.7.>.' } &.' &.i.&.&.X.} &.",
"d.f.f.i.l.m.C.m.z.C.C.f.C.>.0XyX+.&.} . =.&.Y.0X3.Z.Z.i.G.c W } +.} } 3.i.N X.&.i.E z.D } } N ' / / Z.m.} / Y X.i.f.Y.l.f.f.m.p.",
"' / P P P / / } >.M.M.z.l.3.1X/.} &.} . &.5.l.rX3./ G.} F x / 0.C X./ / 3.N P +.&.Y l.D Y C.z E &.z M.&.Y / / &.F / ' W / / ' ' ",
"f.r.p.Y >.&.i.i.f.1X1XT.1X Xi.tX( &.} Y 3.E p.3.3.' ' E i.c ' / O X N / X.N / / f.&.&.( &.F N / &.O L.Y P Y &.p.i.f.i.i.f.i.f.f.",
"J P / E P } R / ( } >./ } 7.' i.D &./ x &.} ( ( / P Y N f.j P &.x N k &.X.j / P P P R ( ( ' z } Y . f.Y &./ P ' P P ( ( / W / ' "
};
