/* XPM */
static char *_0a4bde9778c4694ccb0ab1af681f792DERed6QAiTnnClPZ[] = {
/* columns rows colors chars-per-pixel */
"64 64 150 2 ",
"   c #030101",
".  c #090806",
"X  c #0D0B0B",
"o  c #100F0E",
"O  c #11100E",
"+  c #0E0F11",
"@  c #110F10",
"#  c #141414",
"$  c #191617",
"%  c #161817",
"&  c #1A1916",
"*  c #171719",
"=  c #1A171C",
"-  c #1C1B1B",
";  c #211F1E",
":  c #1F1F21",
">  c #221F20",
",  c #242323",
"<  c #2B2626",
"1  c #2A2926",
"2  c #272729",
"3  c #2D2B2B",
"4  c #322E2D",
"5  c #34312E",
"6  c #39312F",
"7  c #2D2E31",
"8  c #312F31",
"9  c #353333",
"0  c #3B3535",
"q  c #3D3936",
"w  c #36353A",
"e  c #3A3739",
"r  c #37383D",
"t  c #3D3B3C",
"y  c #403635",
"u  c #413937",
"i  c #423D3D",
"p  c #3E403F",
"a  c #44413E",
"s  c #4A423E",
"d  c #3D3D42",
"f  c #413F41",
"g  c #3E4143",
"h  c #3F4448",
"j  c #454343",
"k  c #494544",
"l  c #464946",
"z  c #4B4946",
"x  c #454649",
"c  c #494748",
"v  c #46494C",
"b  c #4C4B4B",
"n  c #514B47",
"m  c #504748",
"M  c #514D4C",
"N  c #4E504E",
"B  c #53514E",
"V  c #58514B",
"C  c #464A51",
"Z  c #4C4D51",
"A  c #514F50",
"S  c #584F50",
"D  c #4E5153",
"F  c #4E5158",
"G  c #545352",
"H  c #5A5654",
"J  c #565857",
"K  c #5A5956",
"L  c #555559",
"P  c #595758",
"I  c #56595A",
"U  c #5C5B5A",
"Y  c #615E5C",
"T  c #5D615E",
"R  c #66625F",
"E  c #63615E",
"W  c #5E5F63",
"Q  c #615F60",
"!  c #5F6460",
"~  c #606163",
"^  c #626262",
"/  c #666060",
"(  c #656462",
")  c #656364",
"_  c #676767",
"`  c #656362",
"'  c #696460",
"]  c #686763",
"[  c #6C6761",
"{  c #696563",
"}  c #6D6966",
"|  c #6C6966",
" . c #666769",
".. c #696768",
"X. c #6D6C6A",
"o. c #6D6B6A",
"O. c #736F6C",
"+. c #716D6B",
"@. c #77726E",
"#. c #73706E",
"$. c #6F7072",
"%. c #767573",
"&. c #777672",
"*. c #757271",
"=. c #797572",
"-. c #797572",
";. c #7B7873",
":. c #797876",
">. c #7F7A76",
",. c #7E7A77",
"<. c #7B797A",
"1. c #7D7B7A",
"2. c #807C7B",
"3. c #827F7B",
"4. c #7E807F",
"5. c #83807B",
"6. c #81827D",
"7. c #83827E",
"8. c #86827F",
"9. c #86827F",
"0. c #868281",
"q. c #858383",
"w. c #888481",
"e. c #8A8685",
"r. c #8C8987",
"t. c #8D8C88",
"y. c #8B8989",
"u. c #908D8B",
"i. c #8E908F",
"p. c #8C918D",
"a. c #95908D",
"s. c #959190",
"d. c #979390",
"f. c #979692",
"g. c #979694",
"h. c #929091",
"j. c #9B9794",
"k. c #999794",
"l. c #9A9996",
"z. c #9E9F9A",
"x. c #989898",
"c. c #A39E9B",
"v. c #A5A19E",
"b. c #A5A1A0",
"n. c #AAA5A1",
"m. c #ABA6A2",
"M. c #A8A4A1",
"N. c #ACABA7",
"B. c #AEAAA9",
"V. c #BDBBBC",
/* pixels */
"2.c.>.' M.M.G t.d.M.;.5.d.N.j./ } O.9.9.V [ - b z i z G L H G B E ^ D l G l b v f b b J ) U i.<.6.z.q / M h.' 0.g.%.X.&.=.&.0.@.",
"Y x b G J l b b I v c c j d d t x c k x b G @ n u l z M S Y G K b N ^ D G b Z L W c c j x 2 b j j j 9 w d d G G v c j a c p j / ",
"Y t x D v b G b D k x t 9 t i t j j k x x l - M M k z M M n M l x l b W b D l Z b k 0 j k 9 b b z G M x x h v b b b b b / Z l 9 ",
"U x x N b G D f j i x j z j j x b b b G b k % b b z c k z K z i l j b Z N b j G z d l b j - b c z b G U Z L x d b b b b x l b a ",
"G b b G b b l k a x d h x j z b b b B B b k - b b z k j z z i l 0 y j j I U H j k j x z l 0 b b m k c b L F l Z b b b f b 0 l a ",
"3 z N M l b R n s x j x d x G b B B B b b b - l j k c k z H G x x f i n M M k z t k z z k t b b b n M M L v G P J G M b x b e 4 ",
"0 M G M x k M s k l k j M G G U B G M M n z ; i z z z z H K b ~ b x H P b j j i x l z z a 0 b b b M M H U b b G x j i l b i j 3 ",
"H B G M l l u a n b l x x Z Z L G M n z z E & n b b b b M G G D G b K G c j f j b b b k a z b l K z M M k f z k a S H U x q 9 y ",
"4 M b z M M s k K M z b j c b Z D b D l c 9 - N N b B B b l D G G U z b b j f b G b z k b t b M G B H j s M V R M J 9 9 9 7 e k ",
"Y c k z b M s K B B j b f z A Z v b b x l a.# B B J q ( l x g x G 3 i i i 4 G f b b z b ^ 9 J Z f j i u i t 0 q e 9 7 1 3 9 b % ",
"z i q j l s i G M M n b c c b b G z b k n b -                       .                                                   .   .   ",
"z 0 q b b i P J M M j j c j A b l M l b b M X B J a 1.t b H H b e j q 0.5 l b M G B Y 2.B G J U N p.{ l.e.' | H P G f t 3.4 M z ",
"b e j M e t D x Z j x v x d b z b b z b b k o A E G H J U J D 6 j j l U T b G b M B z k K K U T T N N b U G J I H B S z k f z m ",
"G k j e e x b l v x c v D c n n c q c x b 8 # b l G H $.N l b i z z b H b N M I x q f K +.Y I Q U T C v J G L G G M Y n k 8 9 y ",
"U U i x x d f c c b Z G Z b Z b z x x M M i % b k G G X.l N 0 z l k b x b b b x B t q i f f f 0 b j D v t B B l M B H k u 3 r 6 ",
"A f z v v x j j Z b z G G G b M z b c b b a - M n B N 9 k 6 k j b n b 8 5 x h b B j j j f f w t u j i x z b b x b B M 9 b r x i ",
"c z Z v C v x z k k N B N B b b b z b b b c 4 M S i A u i M x t x t N e 8 v Z v E B G U Y c t f j b a z j A b v M 9 a b j j A i ",
"P u b b v b b b b B M B D J Z b n b n n M M - z $.z d 4 b b k l z ~ l t , C C x l b U ' n O.I Y q i q n e Z v A U i z b s d z H ",
"j $.S P I H Y G z B G G J b N b b b n b b n - b j j 5 E M H H B K B S z r Z C x Z x M G U z k 4 4 4 M M b x j j H n m n j j c o.",
"B c x x P 0 0 k M I J D v D b b n b n b M M 3 c = j M B M B B G H b b z < x D x x x P n b S M b b ' A Y n k d t j i k M b b G Y ",
"1 d r : : 0 9 4 k B G j l , , - A n x c b . ; z b , , ^ z b b - - b k l 9 l x x x g e o.n z z b K k S G z z e j i Y M M b Z c Y ",
"i.X.^ I U ) / Q U H K o.0.( G | { / ' X.3 U A f X.X.( } o.#.U 1.t.O.U k 9 D b x x j f f 6 2.n M i z M z n z k m k k j b j j x c ",
"j d d d g t i a i i 0 i j l j g d j j j } O.-.+.9 a f i j j j x j x N a r b b b x b t f u i i V a x c z j c k i u y n i 3 b c 0 ",
"t t d d d j i j k l z z z k j g d h t f j z i i a j i a g t j g g b l K 1 b b x b j 4 m y k k Y q x x d f f y i z s k z 5 4 z k ",
"j r r t g g x k x b z b M k k j g d r r q k z f k i u j i f j j b v l E 6 l b l b 2 z k u f j k E j f d t u k k z k < u w b M ) ",
"t r r d r j j b b l b z k z j x j d t t i j z j k j k k j j j j l l N R 0 N n b Z Z M f k y k e i x c i f j V n l a k 0 z P x o.",
"v r d d d x x l b N s j k j k k x q r q a z k l j z k i k j z k G l z B 5 M b b x v z j z i f 0 f f r.' S n n m n z z Z d g x ( ",
"G d g g g g d h j g a a a a k a x x j f k l z b M n n z j k k n b b l ; 0 n z z x x j j j i b i i i 0 0 e t Y H B M M G h d v G ",
"T g g g g x j x j g a t a a l l x k l a x l l b b b B b z n k K b b G 5 j z l b x x x k c j f u u q 6 0 0 q e M k G K G J v U j ",
"G g r g j p t a q s a i q j b H G l k k k z b b b M b M M M u b l l B 9 N b z z b x j x f c f f i i u y q q i f z n M b D Z x $.",
"l k t p t g a t a a j t j x M b H H B k x z k l x b x b l k M z b M z 0 1 l n M b Z b b v Z z b m k c f k k k k k M b z b c l U ",
"H l x x l b j a a a a k j j z M n B K M z x p x M z n M n s n z k z k G % k , ; X d f -   X X @ o o - @ . 1 ; < . O o - - , # % ",
"B l b b N b k j j j a i i a a z m M G M z P z M b Y V M M n M f s a s q i +.{ u.q.h.y.x.V.f j.j.j.v.b.j.d.N.q c Y { y.A e ) 1.9.",
"& j b b H l a s j z i i u u q k k z M z k b A f k k k i f y f f j a a q t Y { z b c c *.c = K I K M H b k k > A A z b l G b z U ",
"; z a l s l z k k k j i q 0 q q j j k k i j f i 0 q e 9 4 y 0 y q i y r o.G b b b b z f Z : A G K K K @.M k , G D b x t i 9 9 @.",
"s Y H z M l M b z z j i u e 0 r 0 j i k c i u e t i y 9 q q w e q q y M X.j G c b b M b e - Z G H G P A G M > b C x s l d e f X.",
"i j q j z E l 9 z b k j a i q 0 u j M G w y e f a i j k e e t d t t t G 3 x b A K A A b 1., v b b L J J G G # x b ~ g Z x d j ) ",
"z q b j j j b l c b M b b b k s i u n k f 6 u f j a u f i A 8 i i i f J e S b b Z S Z M c - U M b L b G U I - b b a v l g x j #.",
"f 8 0 b N b k l l b b b l b M z k z i e 0 0 e e d f r d d t i j i i a G 0 c b b P b b $.b 3 z z j M A W J U . N M b D N D x x z ",
"j 9 9 t X.U B k s s a z k k Y [ n z 0 9 6 e i e w e d t d t i t i i a j f A b b c 8 Z Z e $ k l z z b Z G G - D i b J b b b l 5 ",
"c j 9 9 w x b G b l M U v x l 9 9 y 0 u t q e e e e e d d e d d j a k p 3 M b b M b Z b x 9 K k s M j M N Z = A K n b b b l z s ",
"b k j d , w 4 < < 8 9 9 3 0 9 9 y i q i i z d f r d d d d d j g j j l 1 f b M b b M b M G , u b a s q u M A # G } V x b z j j K ",
"            .                               #                         .     .             : M G B H M a k z - L G V b t z M B -.",
"U , j 3 j t I ) b G B G b i b b d A y.e.b x , Z b ..t.2.l.l.q.A , 9 j a f f ;.;.l b z a z < M G I G z M k b - P V V z x G P n k ",
"q x j b - U J G G G H E u d j v Z A b b j b - D Z W X.R M M z j x x b b z z n b b M n b b # M b v l l z q j # e B U a b b b b a ",
"G l b Z , L G D M G G U z P z b 7 9 U b G / % G Z A Z x z n k b b B b m c c b b c M j z G # x b v x f b V b + x L b a z a 9 b N ",
"J x b b , b G b A A G b z v x G A ^ x b Z b = b A L M k k i z M K K B G S M b b n m n / M , l f f i k z b k + C D G a x b b b B ",
"b b c M 2 c G x G A P G k x b Z Z b r Z j j - k M k u i s k z z M M B B K P M n k I M M b e b d v k z M M x + C h b q b i t v b ",
"b i j q 8 f z c c b D z k l I b b Z A b Z Q > x f f y e M k k a z m z z n M z k n Y M m z b b v b c M G A x % v x x 0 k n a x b ",
"i r v x 8 b A b b b Z A Y x b c v f f Z c b > u f y u f b c l k k b M M z z k s Y f i i a J b N d b A A 0 f X x d x Y @.M M j t ",
"x M b L 8 b A Z Z A j M M M b x c f f x v S : t 9 9 i M b c b b i z M e k ' k k i i i i q I b b D G Z Z j b # i t f k f i i x x ",
"b L G I w A L Z G j Z m k a l b f f f f b e - j m z i M b b G B i k z l x k i k i u u i k { b b b G Z b x z & k f f k i u E s K ",
"K J Q < 7 C C Z L L m m s a B b f v x v U Y # k a M x l b b b b 4 q G c b b ; 9 i y 6 8 ^ * , , x b  .X U Z % q a z i l k q b J ",
"E G -.Q 2 C Z A G b x c a M z z x Z Z x Z :.3 0.} -.E ) { O.*.=./ Y Q X.{ 4.( X.} } Y Y G > @.' E *.*.O.b U M U t b M V / H ' X.",
"b b z G , C C b x b v x t Z k k c j b b x G 9 A G b J X.Y H H V K J W U J x G G H K S G { # k b k 4 f j G H R Y +.Y Y H K Y K H ",
"b z j H , f C C F v f q t b z k c b b Z Z Z = A c b l A G G B z b G x d v b k z 9 G G b l O l z i i j b I K G D H B Y H G B K K ",
"k k f G f f f b f u k t b b v b c A b b L b - v C x D U G M z z j s d f f d 9 j z H n n c @ M G G b x G G G D l q q u i G z k s ",
"u k z W f f f f e y 0 b v b b A G G G G J D : x v l D N G z c M n i i j e i d j k n n k f > G M B M b K 9 j 5 t f 0 q q i k k j ",
"z M k , f f i e w f Q b c b b c b G ) ~ G x , j v F D b k a M / b b u 4 9 t k b z B b j j = M M b K J G t a 0 l q r q f z q q 0 ",
"M l j 2 d d e q y u c S M c c A G ~ U j v L * x C C D x q k M n M M x f v G e n x D b x j - l M b k k r e u z v Z d r r d q k j ",
"k b k a w t t e w 0 d k ) U c b A A U g x Z + b N j t j u z l e B k B I / U G M b v D h b = j l l u 0 u 0 0 g g j x d d d f t f ",
"k p a +.> f t w w d t d j b Z j c c b j x x - G l b t u q s k j n b n b b n K z l b I v w * e d z a q q q e r x v g r d f d q x ",
"t q t 9 ; f d j f S z f f f C f t 9 a g j b 3 M l B a j x j d d t f j b b c x b G D J l r - 9 a 3 t z j j j d r j Z J l j t w i ",
"b i b & , j 8 = , - = % = + . # < % 9 r X # 1 B n B b l Z M z x j x j f j c x c x Z J D p - ; ;   - = X 2 , X - ; , - 4 x J Q b "
};
