/* XPM */
static char *_623f91367674840c4136f8289eded6atq8lySguLKfM0yDO[] = {
/* columns rows colors chars-per-pixel */
"64 64 110 2 ",
"   c #222222",
".  c #2C2D2C",
"X  c #2E302F",
"o  c #343434",
"O  c #363837",
"+  c #3C3C3C",
"@  c #3E403F",
"#  c #444444",
"$  c #464847",
"%  c #4A4947",
"&  c #474749",
"*  c #474948",
"=  c #4C4C4C",
"-  c #504F4D",
";  c #4E504F",
":  c #4E4F51",
">  c #4F5151",
",  c #535453",
"<  c #585756",
"1  c #565857",
"2  c #595856",
"3  c #565759",
"4  c #595758",
"5  c #575958",
"6  c #5B5C5C",
"7  c #615D5E",
"8  c #5F605D",
"9  c #62615F",
"0  c #5E5F61",
"q  c #615F60",
"w  c #5F6161",
"e  c #636464",
"r  c #666867",
"t  c #696866",
"y  c #666668",
"u  c #696768",
"i  c #676969",
"p  c #6C6C6C",
"a  c #706F6D",
"s  c #6E706F",
"d  c #71716F",
"f  c #6E6E70",
"g  c #716F70",
"h  c #6F7171",
"j  c #737374",
"k  c #787677",
"l  c #767877",
"z  c #7A7977",
"x  c #767779",
"c  c #777879",
"v  c #7B7B7C",
"b  c #807F7D",
"n  c #7E807F",
"m  c #81807E",
"M  c #7E7F81",
"N  c #817F80",
"B  c #7F8181",
"V  c gray51",
"C  c #838383",
"Z  c #828385",
"A  c #838385",
"S  c #808485",
"D  c #838486",
"F  c #848484",
"G  c gray52",
"H  c #858587",
"J  c #888687",
"K  c #868887",
"L  c #898987",
"P  c #868789",
"I  c #87888A",
"U  c #88888A",
"Y  c #89898B",
"T  c gray54",
"R  c #8B8B8B",
"E  c #8A8B8D",
"W  c #8B8D8C",
"Q  c gray55",
"!  c #8D8D8D",
"~  c #8E8E8E",
"^  c #8E908F",
"/  c #91908E",
"(  c #8D8E90",
")  c #8F8F91",
"_  c #918F90",
"`  c #8F9092",
"'  c gray57",
"]  c #939393",
"[  c #929493",
"{  c #929395",
"}  c #939496",
"|  c gray58",
" . c #949496",
".. c #949597",
"X. c gray59",
"o. c #989697",
"O. c #959698",
"+. c #99979A",
"@. c #979998",
"#. c #97989A",
"$. c #989898",
"%. c #98999B",
"&. c #9A9A9B",
"*. c #999A9C",
"=. c #9B9B9D",
"-. c #9B9C9E",
";. c gray61",
":. c #9E9EA0",
">. c #9FA0A2",
",. c #A0A1A3",
/* pixels */
"p p r e f p f f V #.O.O.E ) 6 j E ~ ( V i 6 v i e 6 5 + e D w I 6 e , 1 M G z f j p ~ M E R ( O.I p O.p j E M N M D b j _ x & f ",
"j = e v v V P v p ` ` B E E ) ! ( ( v j z D e e % , = } G % & X.n v V 1 v Z V f e V ' ~ j P M P R & e q v E e u e e 6 e ~ e e i ",
"v / v n M P p 6 V { ! v v j X.R z D j ~ 6 j c j p = j v -.$ # c j e D G R ~ G P i c z j v x 6 6 O O., = , ! v v M V D R v R V j ",
"V ' V p p 6 x z D R { c j ) z j v B ~ E 6 p D c O j p v K } p ~ G 6 D v ! ) ~ P ! B v e f 6 6 X @ G # # E v # 5 = , < e , ) = = ",
"v V M R P v 3 . G v [ c x ' j j j v D 7 ) j j # 6 p j j G X.= M j f e y D B v Z v i V p j z # = _ 3 , , E v + % 6 p e p , e e e ",
"v 6 o ~ X.l 6 v X.{ ;.X.} X.v a p v D ` j v v j e , # 0 6 u i E G q e N / { [ O.X.) ' p M p X.6 = - - = x M # e p G V e j , ; , ",
"V p , z ` ' E ~ I P G ' e e j { X.p v M P p G % e I p v j x N %.~ 5 6 B +.V D N v M B p ) w V p u v 5 & M v & , y j G x p 6 3 p ",
"e v j = G R E ~ E ` } ) 6 e M X.} x #.X.{ E { { ~ ~ z y B Z M c y 5 6 #.v = = = M v O.j j p v u e v - & Z z 6 Z ~ ' 1 v e 6 e 0 ",
") E X - # @ @ # 6 ~ ) M , 0 B +.{ ~ ' { { E O.{ { v c B G l I j e e e { C 1 2 6 v M %.j u j F h i u 6 = R v e ) ~ { z j O.} ' ) ",
"u p + , = @ X . i v E R p E D v X.~ } { ) ' X.~ D V e M V p D } p 6 e { D e * , v v ! , y E p i z u i - P v e f ) ` z O.%.' ' } ",
"j D N e * Z G j E G I P p ) v I G v _ E b D v I X.{ ~ M v D B B R { R } V % & 0 V +.E , p { { v R { O.X.= %.j v E { ' %.j j j V ",
"6 = + + - j e f R , v ' P c M N G Z p j c z I I E G E ) m R x 3 i r V ' 6 P ` R { %.~ , j ) ) _ v ~ { O.E :.a R D , V v v I v z ",
"7 - , , e p = z 1 c ~ X.P v E P R R } j j G P c R P v e v V ' % j c B V 1 P I G O.{ i G G ' ] X.E k { { ) %.p p 6 % e i v R e 6 ",
"6 = & & = # j % c x v ~ e ( ( p e E ` , 6 V Z B ) R v v x j } , v #.} ' X.{ X.X.O.O.j 6 # v j , 6 V M X.' -.p e 2 + 6 # n I e 0 ",
"e = @ +   p # + x j V E ) ) Z O.e E , G ' I v z ( E j f p p j e v z M B p Q } ` v v j q X j - e v P v { _ %.@ @ = , # 7 = v V e ",
"v k % . e j G ~ R V ' P { Z j X.v G G X.~ v I 7 v B v v j v R D ~ G v ~ v z j z _ Z 6 6 i v O X E ) B X.I v & % @ V C %.%.! B e ",
"y N # Z R %., v v v j z e v z v 0 ' 1 = G ' e + R e i j v P D B { ' Z E N P I x p 6 6 6 r j j j v + ~ ' :.c j j f p ~ E ' :.V h ",
") 3 i q ) ) 2 j e : , f 0 1 = = + = O = g % 6 , E . # = p j B v ' ' P ! x O.%.O.O.X.e 6 j t p 2 p @ 6 E O.:.M y e e ) ) O.O.M P ",
"P i p e j I < t 5 1 6 v p i j y j j g e O.3 % 6 B v = G E P { R } X.E R z E E j p 6 ~ p p j j 2 j & e { v O.M p y f p y p O.R I ",
"G p 6 e e G 6 i 6 e V E G V x k a p j c ` j v p p 6 6 : ~ ) v E { ) O.( ! ) a f k O.F j p e = p p e j X.( O.j p j g p p # , + # ",
"Z Z % 6 0 G e e 6 E O.E ~ v p p j j G e e 5 e 5 @ 1 % R 6 ' ) O.{ P ~ ) X.) x j u ~ z ) R E E u ~ Q ) X.{ { P x f I , 6 + ~ % 0 ",
"R D & 6 y P e e 5 ` } ~ B v D G v 6 I @ $ 8 6 5 ; j i P #.' I I G B ( ! z E v v R j M P v c p j , j m v ' ) ) v y ` B Z 6 D M 3 ",
"P _ - 1 y +.~ { X.= B j @ e B e z 0 Z = e 6 G 1 e c e j V ~ j ' ~ ! X.O.6 V G O.' x v M j p o O + , p i { ~ B v 6 - p G 6 P M = ",
"v b e V v { { { X.p P V j c p x j h M % i % _ R p v e j B ! x ) { } ` B %.,.%.O.P R E _ G 6 6 > 6 u p 6 e j j j j p e _ 6 I D e ",
"V v V L ' D G k 6 6 X.e f p z v c M V + = % e y e j , e j P j D ) D _ B ! O.+.R > 6 p p i 6 , , , m M d V V V D v , + v 7 D v 6 ",
"6 i j j x P %.) %.$.v j M M M M j P # p j p x v i v w p V ! z B } ' I } p %.#.{ f j v z i 0 0 6 , c % j i n V B + # e e % v k j ",
"= h # e D % +.X.X.R m x P D v x j ) w e V j M ~ j 9 n n V ~ B P B P ~ z j v ! ' v j j x y y j p e i 1 j e t v j % v v ~ ' R G 6 ",
"v v o j # 6 R X.R ~ b P c h p p p O.e j v v x M p e h p j j p v D v j j v ~ ' 0 j f j v e f c j p O.c e G v j e & b V ~ #.X.X.+ ",
"j Z 6 # O + Z i k c v j v g k j ! O.u M j ! { _ e j v v v z e O.V O.M c V i w e % 5 j v e j B j j R j v j z c y @ n , j ! j v # ",
"E X.j O % 6 k M v G P j ) E j P P %.) y p g j x ) l v v V M G } l & 6 O.O.' ! h = i M G u x V x Z ' z B v j v > & I 6 j ! 6 f e ",
"' { k . 1 v ~ j c v Z { P M ! ( E +.v P e %.:.j R p e G z v , ) e j x E X.' E j Z D I I j z G B j R ) v V c M V j X.R -.+ 1 M V ",
"X.%.V . % j P j w j G R v f p j Z %.v P 0 O.{ %.s V j V j h * I t p , , 6 ` E j e ) D I q : , , + , , p x p j j j B p X.O.! { ~ ",
"{ O.P ~ ) ~ ) ~ v M i v j p j e r j %.B 6 D ' B c G e B M G & G j B c # * B ( f 9 I 6 ; $ O = , 6 e e D ' ~ _ 6 O N V +.:.' +.%.",
"M V M V E v E R , F v ) ' E ) ~ f j , 6 e j , = i y e x # # # _ ! v > z z j + + u _ 6 e e u i z p G j i v j G k + q p R ' p E Z ",
"P ~ f E P q e 6 j j w x j j j j V ) #.#.p j p N I ) v h M M D Z E f , v v # o O e ~ 6 p p e e f r p e p - e I D = z v f i z j ~ ",
"e f h N O.v c V y w j M x e p , 5 < 6 P p 7 = @ B ( D M e e B v f p > z 6 6 % , , ~ e j e h h f e i p x , p Z + = f E ~ e V { 6 ",
"x j v c j v k E e V E w e v v ~ G R ' j e j i i E j 1 Z e i v G y h = c , w 3 3 , E j 6 & % - 6 6 6 6 6 = e P v , p e j 1 e G M ",
"D y e 5 i & 6 V ) ' X.G G R / } ' j _ i x j V j P ` a # p G ` ~ ) B z ~ v R I D G G j 6 6 6 6 , , e G P b ~ O.M X.%.~ %.v X.-.' ",
"6 i w e u 6 i F j Z p @ # # 6 ` I B f 5 G j v 6 M ) p g B -.O.! e i + > 1 e ! ( ) R E V Z = # , # p P G j P O.4 , j G v V , p e ",
"~ 0 p e e - < P k P z e y 6 e ` Z z e = 4 i i x v ' i V % ; > # I e z 6 w p p f p e , , > , # , 1 k p e 6 P E P -.-.V G G R f j ",
"R E p ` ! 6 1 G x j v i z i 6 z p v M 0 e e x i ! E v ) V D v p Z @ - v f e p j f e j % & , : j f g e f j B R %.# + O @ + , L _ ",
"P i p 6 6 e 1 I g v I x G p 6 K i { } } ~ P B ~ ' I #.X.G z y ! ' ' F e B B : : % , # v j z j 5 e _ L _ E Z Z v + + O _ i Q %.' ",
"= i i 6 w 6 0 B ! i ; , V v G #.%.0 Z B p u P Z F R #.V p +.X.} { _ X.:.e Z B M j h # , j p < e # E x { E j F v + o + p E p N 6 ",
"8 y e < 6 6 1 ' h X O . # + 6 G ) j f j v Z D v D V R j j { B #.) 0 _ O., e e , 6 j # : % : % = 6 O.p R c e i v .   o j M _ M 5 ",
"e ` % $ = 6 % D = + = @ v % , B M B P M N B E D ) ` V , e R & @ + & X.% % 6 w 6 e 6 - , 7 % # % & Z j R k i p P o   O . & V k 6 ",
"e { = 8 % 6 = = > # v ' 6 B M M M E P M M ) ( ! O.I { #.} } 0 : 3 3 h j j O.j j j t e i = 6 i v : _ p ) b j u 3 q = 5 6 u & # + ",
"e I , e = 6 3 e e p . M V 6 : = , j j v v c v B E } ( ( E ` , p 6 = 6 & p e G G v t L a j Z v e v 6 e p E E { ) ) j e ) u e j p ",
"e G = 6 * = v I B R j x j # + # , I { x g f c Z :.` E Z ! B R I E P v R i 5 i ~ R 6 P k , 6 , < e e ~ ) %.%.#.%.:.) v j #.G O.' ",
"l i X.6 e j P G G G # R N , , & z P I j v l c l ` G D c # > = } w ! E } ) p j p v { v v { % e , , u j v z M v v v X.! , ! ~ #.) ",
"X.} G V z w j V v V O 6 x % 5 6 v M r j v j M v #.B > j 6 6 5 e B v f ` ) v j p j v D j M j 6 , N e e f p j h p j ) B ~ I ` x v ",
"~ p i i y v V ~ ' O.@ , X.) 3 q z P _ R #.#.;.-.%.D # h 6 D v D ` # + M j k ) V ! M %.j G v j c 6 6 6 2 1 , - , w ! B R -.%.} ~ ",
"m z v j v V G P x v : , v X.6 6 ~ Z O.Z K ~ #.X.` 0 z R v ! ` E ` v z ~ R M ) j X.X.O.p , z j V 1 3 = = 6 + 7 e 6 e e 6 ' ;.%.%.",
"v ~ F z D v X.X.G _ = y 6 ' = * j v E { ~ N ' { G B M E B ' ( E ! j y O.' } $.B ! I R # I x O.X.V 6 6 1 % + 6 I h ! D z e v v ! ",
"n + j c 6 e = } M ~ G G P %.j R ~ E ' e P f ) ) ) ` 0 w c O.} ) ) j R -.j , Q z D ) ` j G c p d 7 e ) , v y V ) j j ! E v z Z v ",
"+ . % j e , = X.B ~ p 6 e j 6 p v f X.e P i ) { ! ( j j p x j j v p i -.v 6 6 X.B D D #.{ B R z p i ) e e v v V h j ~ P j < 6 e ",
"+ O , j 9 o O E = ` v 6 , j e p ) p R v ! p ' { ) ` D v M j v ` G e # I P e 6 c B } c z B M D z p e f P x # B v p j z E p = 6 + ",
"6 e 1 e - z G { v j R v B e i v j v v j ~ p ' G ) { p M ) P ' V D p < ] X.G y e j D j o e n G h x h c E G ~ / v j c v D e @ e 6 ",
"6 e 6 . : , # P < i V D h ; 6 6 ; f 6 c N p _ V M k P R O.N } v R p 4 ] { ) ) P V p 6 , 5 1 G G v 6 i v c V R j ~ 6 y j p # e 7 ",
"p 6   6 +.E %.O.< a R R B e 9 ^ ' B M G G e ~ R 6 M v :.P P E x v j j E R { B E B I Z = x o.p v = z i v V %.V j L . p ` c B c j ",
"p o N P f ) { E = p v G B j ) ~ } D V v v 6 6 Z e o , = P ) G z # M p P ' { ' M I K ~ p -.-.-.%.#.8 V p V O.~ j _ z } ' p > + + ",
"M D V R p G I V z j v N D ! ( ! E i z j j ~ %.V $ j 5 e v G e p x R u y k e : 3 6 p R p V f x p ~ G # e M _ ' M ' z ~ { i v V V ",
"V V R K ' #.p G j z _ 6 ! O.O.` ) j ' j R v = V ) B % 6 e 6 { E ~ { v 6 P E = 6 i e E p B j x R j R M { D 0 y z { v E { D j 6 v ",
"M ~ G i r #.p p 3 V ] ' 6 %.O.} V M ' z _ 1 O v D p w x i E O.~ 0 v 5 , v R q = e e ) p Z +.%.-.%.G v { x + ` ) X.' ' ~ v I V D ",
"p g I p p i } X.} O.] ' L , ~ ` ' ~ ! V b = v p p e p y e 3 P Z 6 j , 6 6 P M 0 j j { v O.} O.%.G j %.%.,.e e 0 j } p 6 ' h , e "
};
