/* XPM */
static char *_9fe773b6a1849c3b7a8dc803c05f332L6JPRQ5ZEvfM4IPu[] = {
/* columns rows colors chars-per-pixel */
"64 64 208 2 ",
"   c #030400",
".  c #0B0501",
"X  c #050802",
"o  c #0B0B04",
"O  c #0C0E09",
"+  c #050E0B",
"@  c #100700",
"#  c #120D04",
"$  c #120E0A",
"%  c #180F0A",
"&  c #0B1205",
"*  c #07100D",
"=  c #0D120B",
"-  c #141007",
";  c #12130C",
":  c #1A150D",
">  c #141A0D",
",  c #1A190D",
"<  c #0B1511",
"1  c #0F1914",
"2  c #141612",
"3  c #181511",
"4  c #151A14",
"5  c #1B1B14",
"6  c #1E1E19",
"7  c #111C18",
"8  c #201710",
"9  c #221B14",
"0  c #221E1A",
"q  c #1D251F",
"w  c #1B2117",
"e  c #212316",
"r  c #24231C",
"t  c #2A241C",
"y  c #25281B",
"u  c #2D281B",
"i  c #34261D",
"p  c #322A1E",
"a  c #382A1F",
"s  c #1E312B",
"d  c #232622",
"f  c #292621",
"g  c #252A24",
"h  c #2C2C24",
"j  c #262C29",
"k  c #2C2E29",
"l  c #362720",
"z  c #382720",
"x  c #352C23",
"c  c #3A2C23",
"v  c #322F29",
"b  c #392F2A",
"n  c #2C3126",
"m  c #2C332C",
"M  c #2D392D",
"N  c #273422",
"B  c #323225",
"V  c #3B3126",
"C  c #33342C",
"Z  c #3C342A",
"A  c #343A2E",
"S  c #3C3A2D",
"D  c #2C3532",
"F  c #2E3A33",
"G  c #2D3D39",
"H  c #323731",
"J  c #3B3531",
"K  c #343B34",
"L  c #3B3D34",
"P  c #333D39",
"I  c #3B3E39",
"U  c #41352C",
"Y  c #443A2E",
"T  c #433731",
"R  c #433D33",
"E  c #4E3D36",
"W  c #423F38",
"Q  c #493E38",
"!  c #3C442F",
"~  c #354136",
"^  c #3C4235",
"/  c #35433B",
"(  c #3C453B",
")  c #37483E",
"_  c #3D493D",
"`  c #424335",
"'  c #4A4036",
"]  c #434936",
"[  c #4A4937",
"{  c #42453C",
"}  c #4B433A",
"|  c #434B3D",
" . c #4A4B3D",
".. c #51463C",
"X. c #534D3D",
"o. c #57493A",
"O. c #44513E",
"+. c #4A523E",
"@. c #354441",
"#. c #3B4641",
"$. c #374A42",
"%. c #3C4C43",
"&. c #3D4E4A",
"*. c #3E5146",
"=. c #3E524A",
"-. c #3C5452",
";. c #3F5854",
":. c #434741",
">. c #434D43",
",. c #4A4D44",
"<. c #424F49",
"1. c #4B4A47",
"2. c #534D43",
"3. c #5A4E45",
"4. c #435245",
"5. c #4B5244",
"6. c #4C5947",
"7. c #43544A",
"8. c #4A554A",
"9. c #45594D",
"0. c #4B594D",
"q. c #535345",
"w. c #5A5346",
"e. c #53544B",
"r. c #5C544A",
"t. c #525B4D",
"y. c #5C5B4D",
"u. c #425652",
"i. c #445A53",
"p. c #4B5C53",
"a. c #455D5A",
"s. c #495E5A",
"d. c #535C53",
"f. c #5A5D54",
"g. c #595E58",
"h. c #535550",
"j. c #62574A",
"k. c #61594F",
"l. c #655C53",
"z. c #4D6156",
"x. c #47605D",
"c. c #49605B",
"v. c #4F645B",
"b. c #48615E",
"n. c #49625E",
"m. c #4A635F",
"M. c #49625D",
"N. c #4E625D",
"B. c #4B655D",
"V. c #4E655E",
"C. c #4A625D",
"Z. c #4F695E",
"A. c #556254",
"S. c #5C6155",
"D. c #52645B",
"F. c #5D645B",
"G. c #54695E",
"H. c #5C695C",
"J. c #676056",
"K. c #64655C",
"L. c #6C655B",
"P. c #636A5D",
"I. c #696A5E",
"U. c #71695E",
"Y. c #476160",
"T. c #4A6360",
"R. c #496260",
"E. c #4B6461",
"W. c #4A6361",
"Q. c #4F6864",
"!. c #506762",
"~. c #526861",
"^. c #546B61",
"/. c #5C6C61",
"(. c #577164",
"). c #5C7064",
"_. c #5F7371",
"`. c #626C64",
"'. c #6C6B63",
"]. c #736C62",
"[. c #667067",
"{. c #6A7366",
"}. c #6A746B",
"|. c #777066",
" X c #787D67",
".X c #73756B",
"XX c #7E7569",
"oX c #767A6C",
"OX c #7C7F78",
"+X c #717D73",
"@X c #80776E",
"#X c #80796F",
"$X c #827E72",
"%X c #6B8071",
"&X c #7F877A",
"*X c #8A8B7E",
"=X c #868578",
"-X c #8F9378",
";X c #959676",
":X c #8D8C81",
">X c #94998A",
",X c #949285",
"<X c #99A090",
"1X c #A1A48D",
"2X c #A2A586",
"3X c #A7AA9A",
"4X c #A9B0A0",
"5X c #B3B5A7",
/* pixels */
"<.u.;.;.p.s.B.B.7.A.0.e.8.1.~ I K K K _ ( ( g.8.8.8.5.5.5.O.| = H.B.B.i.(.(.Z.^.%Xi.P.0.d.>.h.; H K K ^ 4._ 4.m 5.5.H.H.6.4.O._ ",
"<.i.a.s.B.B.D.D.G.9.p.p.( U Q U t K _ %.%._ %.9.7.7.7.*.4.O.| = $.i.i.s.n.B.v.v.~./.D.d.8.y.r.T T 6 ~ _ _ %.%.7.7.7.6.7._ O.O._ ",
"i.i.i.x.n.n.B.E.~.F.z.0.8.r e 9 5 ~ %._ %.4.=.=.9.=.7.7.7.5.5.= $.i.;.a.x.B.B.B.~.D.D.9.7.f > . r 4 %.%.%.%.=.&.=.=.7.7.7.5.O.] ",
"i.c.x.Y.B.n.c.n.T.B.s.v.s.7.=Xk ( ~ _ %.*.%.7.=.=.7.7.7.5. ._ 2 =.i.i.Y.n.n.a.c.T.N.~.N.>.,.] & I ~ %.%.%.%.*.=.=.9.7.7.7.8.] ] ",
") i.W.R.x.x.n.T.T.T.T.D.s.8.:X,.K ~ _ *.:.7.-.u.=.9.<.4.7.d.] 5 ~ $.x.T.s.x.x.n.T.T.n.N.0.>.S O L ~ _ %.%.( u.u.7.4.&.<.7.>.| t.",
"i.R.x.W.x.x.x.x.x.T.T.n.8.>.S.{ K / _ *.<.u.u.u.;.*.u.&.7.4.>.> $.a.Y.T.Y.x.s.T.x.n.W.B.z.>.8.O n ( _ %.=.7.u.;.u.u.&.u.7.4.5.8.",
"i.c.a.x.Y.x.Y.Y.n.T.!.d.D.7.oX:.j ( %.4.=.u.i.u.9.=.=.7.7.4.+.4 m x.Y.Y.Y.x.Y.Y.x.n.B.B.F.( 5.O n >._ *.=.=.i.i.u.u.-.&.7.4.>.>.",
"9.i.7.Y.x.x.Y.Y.n.n.p.q.8.8.K.K K A 4.=.=.i.a.u.u./ &.&.>. .] = _ 9.4.;.x.Y.Y.Y.x.n.v.h.e.>.{ ; M H ^ *.=.7.i.a.u.&.<.7.&.] ,.| ",
"d &.a.a.s.Y.W.Y.x.Q.p.t.e.# : - ; 6.4.=.i.-.i.i.=.7.u.&.:.{ Z O ( P i.s.x.Y.Y.Y.Y.T.7.p.e.V h . ; > | =.=.u.i.i.u.=.=.&.%.{ K { ",
"u.u.i.a.a.W.Y.Y.x.x.0.7.{ 2.U U } K 4.=.7.7.P 7.u.-.=.<.:.| ^ O %.-.i.a.a.;.Y.-.Y.x.p.9.8.R U U R 4 | 4.7.7.<.u.u.&.4.=.&.{ I L ",
"u.u.u.i.;.Y.i.T.i.s.7.{ ~ 4.^ { m m %.4.%.4.u.u.-.u.&.&.%.( +.; #.u.;.u.u.i.a.=.u.s.s.>.>.K C O M H I _ &.%.m / &.=.%.&.%.{ >.e.",
":.<.{ _ P a.p.=.i.7.i.I >.>.h.{ / ~ / >.4.=.&.&.u.u.7.#.#._ ( = ^ <.<.>.8.%.s.i.&.4.i.5.K H n 3 P ^ / #.4.*.%.7.&.%.&.%.@.%.P 8.",
"I k B q.5.7.~ 7.#.#.4.:.:X'.k.U |.#X| ^ _ %.%.>./ D / K K P N o L C h I.q.8.h._ ) %.%.P e.k.l.L.l.r.].{ ^ / >.%.<.@.#.P P K ~ 8.",
"H ..# ,.J i.i.7.6 J 7.%.} Z U U c c X.L t g P _ #./ D L Z P F = I ; ..r } S Y ( I Y 6 H 0 b U Z U c Q ] B T F _ / G D d @Xv D I ",
"v 3.@ { { A J J # Z C L U V l c i a Z L a t m D P H H 0 U j B ; v ; ..{ :.,.S v m Z : K : c c U V z w.e } x k m H k j d c g k J ",
"*XY :  X3X=X4X<XS Z ;X2XE c b c i i ,X5Xc f S..Xg.}.0.v T P.8.& -X: T >X1XK.=X5.>Xc V 1XK.b Z z z z U 3Xk.} K.`.}.[.H.1.U :.F.g.",
"S r.# C S B C C : R h  .Q c c z l z I K ' 0 P P G D D g ,.D D = ^ # ..{ L ( ( I K ].: R } Z c c c l 2.H B ..K F / G G m '.m / P ",
"{ C ( #./ I R C k d A m 3.z i z b z J H h M / / ~ ~ ~ / F P K = ^ 1.K >._ ~ ( ~ I j C m J T c c i l r.D K m P / / / / / K ~ / ) ",
"{ ^ _ _ _ ( ( ` ` { C L ( >.:.Z J v K G F #.%./ ) / / ) ) / K ; p ^ ( ( _ ( / { ( ( I K K { 1.9 C v C / / / $.$.$.$.&./ ) @.@.) ",
":.{ ( I _ _ ( _ _ ] ^ L L J e.y.Z { ~ P ) ) %._ _ %.$.) / / / ; >.` ( ( _ #.%.] ( ( ^ L ` I L 3 C h H ) ) ) $.&.$.@.) %.%.%.) _ ",
"{ _ ( %.%._ _ ] | ] | { } =Xl.XX$XD / #._ ) ) / %.%.%.) #.@._ ; { | ] ( >.%.>._ | | | ( ^ ].r.l.@X'.K %.%.%.*.$.%.$.) ) &.$.$.>.",
"{ %./ >._ _ _ | >.( | ^ 1.b v r 1.( >._ $.%.%.%.%.%.*.%.@.%.| ; | >.{ :._ *.*.4.%.| | ^ L ` t 9 h r ~ _ $.&.$.*.*.$./ %.$.*.%.{ ",
":.%.>.4.%.| _ 4.>.%.q.C Y ' L.K.x >._ %.%.%.%.*.=.*.%.%.%.%.] = >.>.| _ *.=.*.=.7.*.(  .L V R $ v f >.%.*.=.*.7.$.$.%.*.*.*.%.~ ",
",._ >.7.4.%.4.4.4.>.%.:.] S K.q.S C >.%.*.4.=.4.4.*.%.*.4.*.O.O 4.>.>.<.7.7.4.4.4.4.*._ L [ C ; B v L >.4.9.=.=.=.;.=.7.*.*.4.( ",
"<.>.7.7.*.9.*.*.*.*._ _ _ } e.'.J S >.O._ 9.*.=.4.4.=.=.7.0.5.> >.>.4.7.7.=.7.7.*.=.*._ _ O.Z $ S A | _ 4.6.=.*.4.7.7.7.*.7.9.( ",
"7.7.7.7.=.9.9.*.9._ *.4._ ] .X,.| >.O.O.5.7.=.=.7.9.7.*.p.4.6.= `.4.4.4.7.7.9.=.9.=.*.*.O._ ^ = | | O.4.~ M 9.=.7.7.7.4.p.7.8.e.",
"7.7.7.7.9.=.;.9.9.4.4.*.>.( OXK.[ S | %._ 9.9.9.9.9.9.6.4.8.7.5 >.4.7.9.9.*.9.=.7.4.7.4._ ] t.; ,.| O.O.O.6.7.4.9.9.6.5.7.7.| S ",
"7.i.7.7.*.9.9.9.9.6.9._ F L C J y k u >.5.7.9.9.7.7.9.9.8.8.7.; *.4.7.7.*.7.9.7.4.7.*.7._ ~ n - L y _ O.4.7.7.7.4.7.S.7.4.5.B R ",
"9.i.9.9.*.9.9.9.6.9.4.7.M t V U S C e { | 7.i.9.9.5.9.5.7.8.,.4 4.9.*.*.*.9.=.=.9.=.i.9.K K U c 9 y.| | _ 5.=.7.9.7.7.5.8.5.[ t ",
"9.i.9.9.=.9.9.9.6.*.7._ F M j v A ^ ^ ] | 0.7.9.9.9.7.9.8.8.] 2 9._ 9.9.9.9.9.9.9.9.7.4./ H k O y K | _ 4._ O.4.4.4.7.7.4.>.| I ",
"p.p.z.i.9.9.9.9.9.9.) _ ~ P r h ^ ! ` ^ ^ O.5.4.4.~ +.+.] [ S = Z.4.9.a.i.;.9.z.c.i.z._ ] ~ m $ K ( ^ ` ^ ] ] O.! A A ] +.| +.2.",
"7 < * 1 7 < 1 1 < X & & ; ; = < = & = 2 ; & X = & & & & 4 & & O * & < 7 & * & * 1 4 & > & ; = X O = & & & & = ; = & = & ; = & > ",
"$.-.i.i.s.N.c.N.G.0.0.1.:.8.+X<.D K ^ ( _ 4.}.t.O.O.6.O.] O.| = ) *.&.=.&.G &.-.i.8.9.8.>.,.8.= K / K ^ _ ( ~ +.6.4.4.O.6._ _ +.",
"*.a.i.i.c.B.B.!.~.^.p.0.,.y r r e K ~ / _ _ 7._ 9.7.4.4.4.4.| ; $.-.7.u.u.%.i.i.i.p.i.i.p., e @ 5 n K ^ _ _ ~ _ 9.9.4.6.4.O.O.] ",
"$.i.s.n.B.N.!.!.~.H.d.i.>.Q U V 2./ _ %.$.%.=.4.7.9.9.5.4.O.O.; N $.;.u.u.u.i.i.p.i.i.i.0.2.J z ..6 %.%.%.%.%.=.5.7.9.7.4.4.O._ ",
";.a.s.n.W.x.s.T.W.D.D.0.5.>.f.f.>.K %.%.*.*.4.7.7.7.7.9.4.6.] > $.;.=.=.7.i.%.p.p.p.9.i.0.,.>.> { ) _ _ %.&.4.7.7.7.7.7.9.5.O.] ",
"4.s.E.W.x.Y.s.T.B.N.!.p.,.5.P.{ A ~ _ %.:.%.=.=.=.=.=.7.7.^ q.1 4.=.4.0.=.).p.i.i.u.i.0.8.,.( O K P >.%.| _ <.7.=.=.=.4.5.5.| | ",
"d.W.Y.R.Y.a.s.s.n.T.n.D.7.L *XH ( ( _ *.( *.-.i.9.=.7.7.5.>.4.; 5.p.s.i.i.p.i.i.i.i.i.u.7.>.+.= m ^ / *.>.i.u.u.7.=.&.<.7.4.5.t.",
";.W.x.Y.n.s.s.s.s.n.n.D._ >.{ g ( ] _ *.&.i.u.u.u.&.7.7.7.4.4.= / i.i.i.i.i.i.i.i.i.u.9.9.>.| O k ( _ =.=.=.u.i.i.u.7.u.7.4.4.5.",
"i.;.&.a.Y.s.Y.s.s.i.D.8.{ <.6.C C _ _ =.=.u.a.u.u.&.&.=.4.| O.; ~ ;.i.i.i.i.i.i.i.s.7.p.d.1.,.o m g ] *.7.=.i.a.u.u.&.&.4.4.>.M ",
"%.%.i.s.Y.s.Y.Y.s.i.8.8.} >.e.{ A ! 4.=.=.i.i.i./ u.&.%._ { y.= ] >.u.i.i.u.i.i.s.p.7.p.q.:.1.; K A 4.<.-.=.i.i.u.u.=.%.%.] W F.",
"#.u.a.a.a.Y.Y.Y.s.v.0.8.,.c V E S | *.=.i.i.-.;.u.=.=.&.( { { : #.u.u.i.u.u.i.i.i.9.7.h.8.r.V V j.6 >.4.7.u.i.i.u.=.=.&.&.L 1.f ",
"u.u.u.a.i.Y.i._.n.s.p.>.L ; # 3 X m >.=.>.7.K %.7.=.&.&.%.{ ,.e #.u.u.u.u.u.u.=.u.0.7.5.,.; #   ; q P 4.=.u.4.D 7.=.4.&.&.{ ( { ",
">.u.u.7.u.a.s.@.u.p.7.^ K H {.L K M _ %.4.%.) %.&.%.%.%.#.~ :.4 I =.u.=.u.7.a.&.G 7.7.7.P L m & K K _ _ 4.7.&.&.=.*.&.%.%.#.%.h.",
"I C v 2.| s.7.A.%.7.7.I C h u C h L ( ( %.%.&.&.@.%.%./ ~ F ( 5 ( k 1.R ` 4.p.z.%.4.>.#.I d f . C e ( _ >.%.%.%.&.%.%.@.@.~ / ,.",
"C V > 6.C J ^ _ w e.D K L.c U U c V } g., j ( _ :.K G 4 K m ^ = I r R  .q.L ` ] ~ 1.k M y.c z i i z # ` y 4 P _ %.P D d I r m >.",
"C ..# ^ L C V K O } C d E V c c c c B q.j.d D ( %.@.@.0 L.m _ ; C # ..{ L C h C K } 9 I 5 U a i i z 8 } Z ' F P I G D d f 0 P :.",
"; ' @ 0 6 t h r % Z h : b V V V c c $ . c       X     o b   o O ; o T o 3 h f r 3 Z - r o Z Z c z z 8   9 Q           o Z       ",
"[ Y @ J y.B L J , i f B T c c c z z ,.C i r D D #.G D f } M m = +.# U I [ ^ _ ~ ~ Y , X.Z V V l U i 9 I V V #./ %.@.@./ c g ~ K ",
"` 1.X ( ( ( Z ] ; k n C R c c l c z L C @Xq G K ~ / / M '.~ A & ] # } { ^ L R ~ / J 4 m | B V c c z % %.k 2.&.%.%._ @./ } D $./ ",
"{ { ( / _ K ^ ^ A k { C o . o . # @ K F K / ) / ~ %.%.%./ _ / = ,.{ ( ( #.~ { R L B C J C L.} J T T 5 / ) ) &.4.%.$.@.%.&.%.%.~ ",
"{ ( _ _ / _ ] ( ] S 5.I R { 5.S C k P #.%.#.#.P ) $.&.*.*.%.( = B { I _ _ %._ { _ ] ] K R I L 3 J C P I %.*.%.*.7.%.%.%._ _ / _ ",
"{ ( / %.>._ / | | { { ` I B ,.w.] k P 4.*.4.$.%.%.%.4.4.=.%.( ; { ( _ / %.%._ _ | ] | _ R k R : 2.k K / / %.*.*.*.%.%.%.( %.@.1.",
"I _ / >.%.%._ 5._ { | ^ r.X.c Y l.D ( <.*.*.%.*.7.*.=.=.*.%.( ; { | >.>.>.%.%._ _ _ >.| ` 2.T Z c A ^ _ %.4.%.=.%.=.%.~ %.$.( ,.",
"( >._ >.%.%.9.>.4.| ^ ] J L I.T r _ / 4.7.*.=.4.%.7.*.4.%.%.] ; ( _ / >.%.%.%._ %.>._ | ( | f.O h { K %.*.=.%.*.s $.7.4.%.%./  .",
":.%.>.<.%.>.>.4.%.7.(  .S 2.'.r.B C | %.4.*.4.7.7.7.4.*.4.=.| 4 :.#._ 4.%.%.>._ 4.*.%.>.>._ x $ ^ 4.O.%.*.4.=.7.i.7.7.*.%.7.>.L ",
"4._ 9.=.=.*.4.4.4.*.%._ _ 2.e.R J n | 4.7.9.7.7.7.7.4.%.7.9.6.= >._ 4.4.7.=.4.4.4.*.*.*.4.O.B $ ^ 4.*.4.*.4.=.=.7.7.4.7.=.7.9.L ",
">.7.7.7.7.9.7.4.7.4.*.%._ ] .X8.>.~ 4.=.4.4.7.=.4.4.=.>.7.7.~ 5 ~ <.7.4.7.7.7.=.*.=.4._ _ _ q.$ ] | *.*.4.4.=.*.7.4.4.4.4.7.7.I ",
"7.9.4.7.=.4.9.7.7.=.4.>.>.]  X8.5.4.4.5.=.=.7.4.7._ 8.8.7.8.5.4 9.9.7.7.9.9.9.7.9.5.%.%.>.] ] $ 5. .O.%.+.4.7.7.9.9.9.H.0.0.8.{ ",
"u.7.=.7.*.7.9.9.9.4.4.>.~ I ^ f.I %.4.7.6.7.7.7.4.:.,.7.5.,.p 2 7.u.7.4.9.*.7.9.9.9.8.>.( P >.= K S y 6.4.4.4.7.7.7.8.,.<.>.r.S ",
"7.9.7.7.*.9.9.9.9.8.7.>.K l.R ..q.r | 7.6.7.=.7.7._ +.5.>.[ 3.4 7.i.7.7.9.=.p.9.6.9.5.4.P m T r.Q .X] ,.4.4.7.=.5.4.| ,.,.5.w.2.",
"i.i.i.i.=.9.9.9.9.4.7.>.D t 6 t r J ] 7.=.7.4.5.5.5.6.{ ] [ X.3 7.i.i.u.=.=.9.9.9.9.7.9.~ g k . 8 5 _ | | 4.4.7.6.O.8.8.5.5.[ ^ ",
"p.p.p.0.7.8.9.8.8.8.>.%.~ K j k L ^ ] ( 4.O.| >.] d R [ } } Y 7 p.p.p.p.0.7.9.6.8.5.4.%.%.P M ; A ^ ^ | | O.5.] | 4.,.| |  .[ n ",
"%.#.:._ #.:.t.p.h.H.<.m k f k r m K C A ,.{ { L ( I ,.I v e.L 3 ,.%.:.@.:.( ( p.p.`.g.m J r d 3 g ^ H A J | ( { m ~ { ( L { ,.h "
};
