/* XPM */
static char *_c6813815c4a41dc9ef05ae016ef4b73vG0DDAbHTZmENv87[] = {
/* columns rows colors chars-per-pixel */
"64 64 198 2 ",
"   c #030304",
".  c #0A0606",
"X  c #050805",
"o  c #080906",
"O  c #030509",
"+  c #080609",
"@  c #050A0B",
"#  c #0B0C0C",
"$  c #18070F",
"%  c #120E0E",
"&  c #06100F",
"*  c #0D110D",
"=  c #12110F",
"-  c #0C0E12",
";  c #040F11",
":  c #100F11",
">  c #0E1213",
",  c #0F1418",
"<  c #0F181A",
"1  c #121414",
"2  c #1A1616",
"3  c #151815",
"4  c #1A1B17",
"5  c #13161A",
"6  c #151A1D",
"7  c #1B1B1D",
"8  c #19171C",
"9  c #3C110B",
"0  c #241D1C",
"q  c #1D211D",
"w  c #22221D",
"e  c #2B281F",
"r  c #28241A",
"t  c #30221F",
"y  c #161C20",
"u  c #1B1D21",
"i  c #231E23",
"p  c #1D2324",
"a  c #1F2826",
"s  c #1E2429",
"d  c #1D2C2B",
"f  c #232424",
"g  c #2A2524",
"h  c #262924",
"j  c #2B2B26",
"k  c #23262A",
"l  c #2A2629",
"z  c #252A2A",
"x  c #2B2C2B",
"c  c #322523",
"v  c #322C25",
"b  c #322D2B",
"n  c #30272C",
"m  c #2E3025",
"M  c #27312D",
"N  c #2D322D",
"B  c #353326",
"V  c #3A3327",
"C  c #33332D",
"Z  c #39342C",
"A  c #34392D",
"S  c #3A3A2D",
"D  c #262D31",
"F  c #2C2E31",
"G  c #292D38",
"H  c #322E32",
"J  c #263132",
"K  c #2D3333",
"L  c #2E3836",
"P  c #26323A",
"I  c #2D363A",
"U  c #2D383A",
"Y  c #333533",
"T  c #3A3632",
"R  c #343935",
"E  c #3A3B35",
"W  c #333639",
"Q  c #353B3B",
"!  c #3B3D3C",
"~  c #39373C",
"^  c #433F19",
"/  c #483129",
"(  c #413D27",
")  c #423D35",
"_  c #4F3D30",
"`  c #423E3B",
"'  c #4A3F3B",
"]  c #3D4136",
"[  c #37403E",
"{  c #3C413D",
"}  c #434034",
"|  c #43423D",
" . c #4A443D",
".. c #4A4A3C",
"X. c #48463B",
"o. c #53423A",
"O. c #4F523F",
"+. c #6F5228",
"@. c #66483E",
"#. c #776537",
"$. c #2E3740",
"%. c #353D41",
"&. c #3B3E42",
"*. c #403F42",
"=. c #364143",
"-. c #3C4243",
";. c #3E4946",
":. c #3D454A",
">. c #3E494A",
",. c #37444A",
"<. c #3F4650",
"1. c #354650",
"2. c #3F4F71",
"3. c #434443",
"4. c #4B4642",
"5. c #444945",
"6. c #4B4B45",
"7. c #43464A",
"8. c #444B4B",
"9. c #4B4D4B",
"0. c #494448",
"q. c #514C45",
"w. c #524D4B",
"e. c #5B4E45",
"r. c #46524D",
"t. c #4D514E",
"y. c #555346",
"u. c #5E5542",
"i. c #52524D",
"p. c #5A534B",
"a. c #545A4B",
"s. c #5C5B4C",
"d. c #525947",
"f. c #434D51",
"g. c #4A4D51",
"h. c #424651",
"j. c #514F52",
"k. c #455153",
"l. c #4C5353",
"z. c #4D5954",
"x. c #45535A",
"c. c #4C555A",
"v. c #4E5B5C",
"b. c #525453",
"n. c #5A5551",
"m. c #545A54",
"M. c #5B5B54",
"N. c #515559",
"B. c #595758",
"V. c #545B5B",
"C. c #5A5B5A",
"Z. c #6C5E47",
"A. c #665B4F",
"S. c #645D54",
"D. c #6A5B52",
"F. c #625E5F",
"G. c #5C6255",
"H. c #54635B",
"J. c #5D625C",
"K. c #606154",
"L. c #62635B",
"P. c #6B635C",
"I. c #6B675A",
"U. c #716556",
"Y. c #746A5A",
"T. c #4F5C64",
"R. c #545D63",
"E. c #4F6260",
"W. c #5C6463",
"Q. c #56626E",
"!. c #5C656B",
"~. c #576264",
"^. c #646663",
"/. c #6B6764",
"(. c #646964",
"). c #6D6B64",
"_. c #65696A",
"`. c #6B6A69",
"'. c #61646B",
"]. c #736C63",
"[. c #726E6D",
"{. c #706664",
"}. c #6B746F",
"|. c #747365",
" X c #78736A",
".X c #70716B",
"XX c #6A6F72",
"oX c #747572",
"OX c #757974",
"+X c #7A7C73",
"@X c #7C7B79",
"#X c #7F807A",
"$X c #83837C",
"%X c #787E84",
"&X c #7A8080",
"*X c #858987",
"=X c #96918E",
"-X c #898E92",
/* pixels */
"Y.].|.Y. XY.S.I.w 6 l % W B Y T [ { v 9.q.` 6.3.! Y C j h x C b *.R g x ` :.:.:.8.N.Y 8.| 7 b 3./.+X/._./.f 7 j Z.].Y.[.]. X[.^.",
":.:.=.7.J.E.G.{ x j f.V.! R ! 0.Q v.m.N.3.R.> 9.4.Y j ! z Y l C B ~ 9 [ V.8.E.8.  W.3.c.j C ! b.w.:.W.1 v.+ x r.! Q V.b.%.! -.8.",
",.8.-.3.M.].v.:.E E %.:.&.x R 3.5.-.g.R.N.7.c.9.! l Y K K %.8.  n.C # { v.,.:.&.8 c.:.j Y B w C.Q F.-.3.l.@.j Z ` ! 3.7.&.! ! -.",
";.8.f.f.! N.h.R.T A &.5.! Z Y ! Y c.f.c.8.7.M { ! 7.T R Q [ ,.# :.Q D.! 8.>.~.-.h.-.u Y R.N.p.C.3.Q r.! -.# # &.| 3.9.8.:.E 3.Q ",
">.=.5.,.:.!.>.8.*.E b :.3.j E &.&.7.g.x.=.R.W -.b z x W %.Q ,.%.x.&.5 W T.8.<.:.7.f W 0.g.^.g.l.f K -.8._.# # n.7.R.Q i.g.&.g.k.",
"8.:.:.:.8.'.] M.3.l 3.b Y H :.T R C ;.5.[ 0.&.-.Y R R K %.%.=.%.h.&.x.j k.>.-.=.8 x B.3.Y T C.3.T G./._.oX$XT w.U.&.Q.N.8.f.:.Y ",
";.E 8.7.r.%X7.V.l l ~ l 8.b b =.! l.! s.x.R.&.x &.x W ,.P ,.:.y <.&.1 u =.:.! 4 ! v.! T v R C w.7.! f b.` 6.:.b w.  H c.3.f.:.:.",
"! -.:.5.r.t.3.S 8.S T W &.g C 5.3.g.5.S 3.~.Z ! A 8.Y =.=.d I Q Y %.# Y >.R l j E Y f :.f.f.R.F ! C n g | 3.E E *.6.3 l =.,.-.>.",
"Q -.3.7.3.W.t N.3.g.f.>.b ! Y &.:.,.:.{ ;.g -.H f.Q.` &.I %.P I &.j 0 l 7 0 j [ E j ! &.x.7.3 :.h Q k - f -.m b ! l p.o.b b.&.-.",
"5 6 5 7 7 y 6 N.! f.T 7.b Y g R V.-.9.3.| j 0 :.f.!.[ =.I $.I F W F 1 7 K ! S.5.] g.%.&.7.&.c.!.h.u F H   F ! 5.%.g Y B.b N ,.> ",
"7 0 w w 0 x 7 6 v.&.:.D 2 R x ! Q &.Q ,.K 4 @ T -.k # - P }.# #.  # + p   j.h K &.R k.Q &.>.&.x.L K u y Q @ @ W b L C R E y.: i ",
"L./.).oX.X`.{.U.Z _ &.F u R 4.| m x R b K k x Y k %.W P $.J x x K j =.  7.g l R 8.n 7.! l m.R.V.c.Y f # b.u Q /.`./.P.D.{.[.P.D.",
"z.l.9.N.5.a.6.q.) 3.z W   Z i ! ! E R R j 1 , x F %.$.P I M 5 Y f Q Q m.q m K 5 8 p u 7 z l i 7 d C 6 x R f F Y 3.5.! { 9.V.M.M.",
"y 7 u 6 5 < x 7  .! f 6 u x c R R M.C j m C S >.K Q D G %.Q x l.x =.-.l z ;.&.l c k k j Q k ! &.Y R L.[ ,.p u 5 , 1 5 6 5 u p w ",
"a p 2 ! E T 7.3.Y A A.5.1 # s x E E { -.m j a C y - > # - # * # - # # R j E b x ! { | ! H E v H x l C [ R z k j s x j g C i.f K ",
"= 1 = * C E C n.1 > : * > * + R T ,.5.Q i.5.3.E T R x Q I j { 4.! v Y ! h ;.E &.! H C.l.7.[ =.! L Q ! | ;.z K x 7.i.-.,.L O.M.p ",
"6 ).+X|.B ..X.Y.X.).p.s.I.M.* R h N ! R Z M k j s z f q p 6 y y p k m ! ! z c.9.g.8.m.r.V.8.{ -.] d.{ |  .` K C &.k 5 7 ! ! ` O.",
"|.W N R ! Q   5 ] R p q h * 7 # j 9.8.! W.5.l.! 8.8.8.t.l.N.! r.p R x s R =.:.R N -.-.-.L -.! E 5.Q ;.=.8.E ! g k -.  4 =.-.=.q.",
"N =X%.x [ | 9.9.>.5.V.l.& @ > x T X j :.  z T K Q F I j K z K z k k Y     O         z 5 O Q   O O O | J.[ { W T u.| R &.! E g.Q ",
";.-.`.f ! | T t.! r.;.> ; > M 3.j m j K R F -.[ Q h L p j { K K k p E M K K J g.Q [ I L M ! 8.Q Q K Q E XX-XZ b z.R E =.C T ,.-.",
"7.,.>.3.E 6.! M.3.1 1 - , K 3.x R B b b =.j x Q ~   x K k z N.s j K R j j h R Q ! [ z [ ! 5.k.z.8.=.! Y V.*XY g + 7.x E { :.B R ",
",.W 8.{ -.3.*.J.9.E R > s Y x j B ! E C =.N W B ! B ! x Y T x K s k R h >.K Q -.Q k ,.| x g.l.5.-.! :.A (.$XS ) 3 K ! Y i.;.&.&.",
"Q Y Y Q L # E S.9.T % h ! j b H x E R C ! ! N K -.C T C E x N x Q f x K x f.D ! ,.Y R 9.R f.9.{ :.Q 8.8.I.@Xj f / +.z f Q 3.%.Q ",
"3.:.=.Q R 5.E ^.T = p >.x K x B x Y ! x j 1 { E %.  R Y T K Q z h p ! K z K :.Q -.-.E i.R 0.5.c.5.| | ` (.*X! C + &.W     w 5.7.",
"8.:.Q R Y A =.z.1 q N K J Q N R W ! C ! Y h M E N ! ! T R =.Q Q h d x f s J f m k Q j x ` w.4...3.| E X.4.# ! x ;.w S H.v | Q Q ",
"*.&.3.R X o 8.x f E z z L { Q N ! E 5.Y A 1 R ] { C R E ! ! Q Y B 7 R K F D Y h j R x x K *.5.Q R | { 5.3.o x j X   O 7 S /.7.%.",
"! 6.-.j R M Q K T Y z h L :.x L E j R j b m C C E | x =.3.Y [ I k x T - # #   O O - f & +       @ @   X o 3 { Z x w 8 0 b &.L.7.",
"Y T L K N m.I D M K -.Q j M k k Y Z T x ! N | C K K ! 5.Y j R Q F j x j z s U F K x x E T y.4.|  .! t.t.C M j E g.i T B q.' &.S.",
"L m h k.=.m.%.q O       O x q @ 3 R o h 4   n.! 4.z K ! K b ! R x j C 3.oX_.%X_.(.G.C.I.! 8.7.7.m.l.6.6.E & Z B g Z ! ` 6. .T z ",
"j N >.>.R z.:.d z > h h h k j K Q B ..R t.) 5.R 3.] R ;.T C W N K z h K Q Q Q k.Y 3.{ ` X.7.5.8.8.    3.3.# E X ) T Z ) | 3.Z ! ",
"z ,.:.g.Y ;.%.y j @ j A z I { F R T ] ! ! C h 9.9.5.b.9.t.k.5.-.N s Y x ! ;.K 8.k.&.8.4.) N ;.{ 8.    | 6.+ T % 4.R 3.3.5.! %.5.",
"p Y v.B =.8.L p j J k ! [ 3.3.R 9.*.5.! 9.x &.!   8.8.6.l.V.l.] E E ! x 7.8.z.z.r.! b.8.R T *.9.! 7.8.3.6.o ! # 9.Z E 3.E &.&.H ",
"h x < k R 8.! y s K =.Q ) [ E 9.! ! | ! ! f ! E ; 7.>.7.;.8.V.l.=.x N C w.5.3.v.3.8.;.l.=.5.! ;.E b.O ! X.. y.* b.! ! E ! ! h N ",
"p M f x F v.K k j h g B | { ! R 9.8.K ! 3.f ! -.9.r.-.8.9.8.] [ Q J >.>.{ 5.5.8.Y 3.r.X.K Q Q N R R Y E L.0.` # T C -.Q %.Q K l ",
"p Q j T T 8.x y x n.z -.E i.{ 8.3.! Q 5.@ [ 9.x *.7.-.! 5.5.| l.z h L Q &.N.4.8.! ! N { j :.x 5.5.W 5.3.L.R.@ = 9.R W %.&.k u W ",
"          k 8 4 L x Y ! A x T ) w.R | 5.E R { k R Y K x ! | R K 6.! ! Z C E Y B R Y z E Q Q k.Y ! ;.R E =.] o > Q ! &.W :.F y F ",
"f f Q Q K x h 4 p j Y h ^ ! j j ! ! ` j o 0 b K K x K R C Q z [ z z =.x W x Q Q B Q ;.%.z z ,.! &.&.E l.b z.# # -.W &.-.R W W W ",
"Y s m =.F f k u w R n K T -.} 5.t.8.{ R   y | z ! Q &.x Y D I 8.D %.Q N [ Y R E ! C g x { Q Y E &.E ] 3.7.} X # ,.%.,.~ ,.~ p u ",
"x x X =.! ! V.q B h )   M.3.T E b.8.r.[   L K N { Y x k K p K M s >.! >.v.! &.| 5.b.! ! j j g.{ l.[ 5.! T n.X * ! Y %.K Y R u W ",
"Q :.B @ Q # { 4 h ( 5.x ` 3.9.6.! E 3.|   a R 8.{ Q &.Q U L { k x h ! R i.3.S E C 7.3.j Y %.:.! 8.3.9.3.b z.Q * F ! &.&.%.&.i v ",
"v x x l b ! &.k B m E 8.| N.8.3.8.;.4.-.  M Y R R [ ! Q L %.L z J %.Y :.8.T 5.R ` Z T x &.! 4.E E Z 3.:.n.3.C * Y k R %.,.,.f g ",
"N 6 7 u 7 w 6 h =.E ] X 3.E ! 5.i.| 3.9.  J ! | A Y Q ;.R Q | N R a K R { ) Z E Z ! | j W ! j.! 9.&...8.Y q.@ % 5 8 3 5 5 5 ~ i ",
"i 5 7 7 x u u f R Y ! { 4.q.6.4.| t.9.8.O j K 3.E Q Q ! E Y T C 3.K Y W ) ! ! [ -.*.0.k j 9.W ' ` ! 5.! z W O # k i p 4 u p q j ",
"b f u x &.j x M F b R   5.8.9.9.3.{ t.6.O l e v . V B C v C | j w | 0 Y x R T E 3.,.v h E Z ` x &.T ! &.I Y 5 i 3.&.! K W B 3.j ",
"i K &.%.! 9.Y 2 x K C -.! R 8.9.,.9.z.i.O f x Y   &.Q Q ! 5.h ! j z K z f j C E x h A n T [ E *.0.Y x R f x @ 7 Q %.~ ! :.m.<.M ",
"F g.F 8.:.*.Y q f b p K ! 5.r.N.{ 8.] E   3 E j N K x x L K x E m x m z x 7 E h b f i.Q R =.! B.9.c.x ! 6 Q O p 6 + %.&.5.9.R -.",
"! ,.&.:.8.7.R y j w N N l I ! R C 3.Q E   k R x N x B K Q [ z W W x 7 f C q N N ! T ! Q K x ,.! ! T -.! R 5 Q z R 5 j W E :.:.B ",
"7.l.:.8.;.Q &.u x R ! 3.5.{ 8.! } 4.3.4.  j ! K ` x K ! T | ! { Q x z p z K { I ! ` M.k ! K ,.5 * 2 3 1 5 R K Q z # # # - # # # ",
"Y a.&.! x &.%.y K ! ! =.5.3.7.r.) X.| w.  j C R R 5.5.B { ! # t.3.4 s ! x W ;.=.T 9.^.3.: y - , 5 , 5 p 6 R z p w.F x f K g i x ",
"8.6 7 y u 8 z 8 u 8.9.8.5.| 3.5.t.5.i.n.O j E C ! -.3.z.! v.z.Q Y r.p ! 3.E 8.! 6.9.S.v  .9.f.8.c.8.{ 6.;.x p n.~ Y 3 ! =.R &.x ",
"W R R ! R F K f @ u k u f y l p z z z h e f w q k h h j N Y n E l U w f C x 8.! -.| ! T 4.t.Y c.! ;.{ { k N  .Y ~ v R &.:.%.x ! ",
"i Y f F K p y a ! O l ! j x T -.! | N ` | T R Y Q # K ! :.m.6.^.b.h &.9.5.9.| G.- #Xw.F E V.3.&.3.{ ;.x f w.Q ~ 0 3.f.-.:.Y 1 5 ",
"g b j x z z f &X9.  h f Y d z R C R N w.} { C M N * z ` C.3.t.a.# f 7 # > * * > 1 6 . # # $ # # # # T ! p.~ Y 7 2 -.7.8.%.,.Y p ",
"h E Y K K K &.=.Q B -.[ R b b &.8.K 5.R #XY j L R L ! 7 R 3.` 6.t.K K N 0 Y w g K k u D._ H M.p.T ( 4.8 x &.K Y v W ` C z W K 7 ",
"Y ..8.9.V.6.m.H.L.H.G.n.M.a.s.z.d.i.I R a.K F z -.[ R 1 6.C 3.5.5.! -.E b Y F g > u i { x W C g b W Y 3 OX$X] ].5.S./.4.| ] n 9.",
"x ! Y =.W :.=.>.9.c.-.J.W.! 5.>.;.-.@ q s.[ h ! K Q Y * m 9.N.;.K 5.M.g.=.T.n.z h F i x.(.7.%.X.g I h : Y 7.! w.9.4.3.&.7.&.%.Q ",
"W oX  8     ;   t ;.(.^.^.K.e.P.S.P.L.z C f Y x k f W 1 T 3.9.M...h | A 3.5.5 - 4 3.W f.>.f.7.,.S.i R - Y x   9.7.8.7.8.g.3.l T ",
"% R Q W z Y C ! R N %.3.:.=.! { &.N.!   { ! A Y K k p 4 R 7.-.3.B.! 5 W 5.< - 1 l L.<.%.,.f.%.=.! p.f # x & 1.! <.f.>.-.3.h.Q x ",
"M f.Y b.n.6.r.! R :.{ >.=.&.:.~ R w.!   4.Y C N l Y W f Y ~ f.Q T d.H 7 5 -   ~ Q @X&.W R ~ ,.Q %.W f # y Y ;.&.R R.f.8.8.x.7.R ",
"B l.H.c.g.n.J.:.E Q >.>.! { C ! &.3.9.  Z.*.Q &.7.Y z 1 f Q ! Y ~ %.| > @ + x R W ^.T W %.,.R -.:.I > # u C R :.` 3.g.8.:.>.8.7.",
"W Q y.Q v.4.3.8.%.Y R 5 w 6 5 u R M.&.@ (.Y N -.N.Y h 3 j K x W j x 0 - # ^.*.` Y oX%.&.W Q &.&.[ 6 f + l 7.N l =.3.:.E 7.H :.:.",
"K ! x.[ >.@   &.C R Y %.Y p K z K j ~ 8 J.x Y j N g j 5 f R w u y 1   # f ! g.,.x [.&.- C # # Q 5 z 7 # 1 E 5.g.,.k x ! Y 6 -.T ",
"R ;.[ :.Q Q Q K M >.,.&.Y R D [ M j =.N J.R x f x g 5 1 b R R H { f 8 h i.c.7.3.Q I.: - - - , 5 q 1 w > 4 C 1 @ x #     5 R -.! ",
"! f K I C M z =.[ Y L D Q z z K k x Y M | C x f j h x - g R K x j i u Y 8.&.Q 7.K M.%.Y K x 1 f 1 j w 7 6 x j j b l Y &.C x ! ! "
};
