/* XPM */
static char *ce4ee1c6d8614bf98211cadd77a90abaPsW3XtXVLW4TgLh5[] = {
/* columns rows colors chars-per-pixel */
"64 64 198 2 ",
"   c #010202",
".  c #0A0606",
"X  c #050805",
"o  c #080906",
"O  c #030509",
"+  c #080609",
"@  c #050A0B",
"#  c #0B0C0C",
"$  c #18070F",
"%  c #120E0E",
"&  c #06100F",
"*  c #0D110D",
"=  c #12110F",
"-  c #0C0E12",
";  c #040F11",
":  c #100F11",
">  c #0E1213",
",  c #0F1418",
"<  c #0F181A",
"1  c #121414",
"2  c #1A1616",
"3  c #151815",
"4  c #1A1B17",
"5  c #13161A",
"6  c #151A1D",
"7  c #1B1B1D",
"8  c #19171C",
"9  c #3C110B",
"0  c #241D1C",
"q  c #1D211D",
"w  c #22221D",
"e  c #2B281F",
"r  c #28241A",
"t  c #30221F",
"y  c #161C20",
"u  c #1B1D21",
"i  c #231E23",
"p  c #1D2324",
"a  c #1F2826",
"s  c #1F2529",
"d  c #1D2C2B",
"f  c #232424",
"g  c #2A2524",
"h  c #262924",
"j  c #2B2B25",
"k  c #23252A",
"l  c #2A2629",
"z  c #252A2A",
"x  c #2B2C2B",
"c  c #322523",
"v  c #322C25",
"b  c #322D2B",
"n  c #30272C",
"m  c #2E3025",
"M  c #27312D",
"N  c #2D322D",
"B  c #353326",
"V  c #3A3327",
"C  c #33332D",
"Z  c #39342C",
"A  c #34392D",
"S  c #3A3A2D",
"D  c #262D31",
"F  c #2C2E31",
"G  c #292D38",
"H  c #322E32",
"J  c #263132",
"K  c #2D3333",
"L  c #2E3836",
"P  c #26323A",
"I  c #2D363A",
"U  c #2D383A",
"Y  c #333533",
"T  c #3A3632",
"R  c #343935",
"E  c #3A3B35",
"W  c #333639",
"Q  c #353B3B",
"!  c #3B3D3C",
"~  c #39373C",
"^  c #433F19",
"/  c #483129",
"(  c #413D27",
")  c #423D35",
"_  c #4F3D30",
"`  c #423E3B",
"'  c #4A3F3B",
"]  c #3D4136",
"[  c #37403E",
"{  c #3C413D",
"}  c #434034",
"|  c #43423D",
" . c #4A443D",
".. c #4A4A3C",
"X. c #48463B",
"o. c #53423A",
"O. c #4F523F",
"+. c #6F5228",
"@. c #66483E",
"#. c #776537",
"$. c #2E3740",
"%. c #353D41",
"&. c #3B3E42",
"*. c #403F42",
"=. c #364143",
"-. c #3C4243",
";. c #3E4846",
":. c #3D454A",
">. c #3E494A",
",. c #37444A",
"<. c #3F4650",
"1. c #354650",
"2. c #3F4F71",
"3. c #434443",
"4. c #4B4642",
"5. c #444945",
"6. c #4B4B45",
"7. c #43464A",
"8. c #444B4B",
"9. c #4B4D4B",
"0. c #494448",
"q. c #514C45",
"w. c #524D4B",
"e. c #5B4E45",
"r. c #46524D",
"t. c #4D514E",
"y. c #555346",
"u. c #5E5542",
"i. c #52524D",
"p. c #5A534B",
"a. c #545A4B",
"s. c #5C5B4C",
"d. c #525947",
"f. c #434D51",
"g. c #4A4D51",
"h. c #424651",
"j. c #514F52",
"k. c #455153",
"l. c #4C5353",
"z. c #4D5954",
"x. c #45535A",
"c. c #4C555A",
"v. c #4E5B5C",
"b. c #525453",
"n. c #5A5551",
"m. c #545A54",
"M. c #5B5B54",
"N. c #515559",
"B. c #595758",
"V. c #545B5B",
"C. c #5A5B5A",
"Z. c #6C5E47",
"A. c #665B4F",
"S. c #645D54",
"D. c #6A5B52",
"F. c #625E5F",
"G. c #5C6255",
"H. c #54635B",
"J. c #5D625C",
"K. c #606154",
"L. c #62635B",
"P. c #6B635C",
"I. c #6B675A",
"U. c #716556",
"Y. c #746A5A",
"T. c #4F5C64",
"R. c #545D63",
"E. c #4F6260",
"W. c #5C6463",
"Q. c #56626E",
"!. c #5C656B",
"~. c #576264",
"^. c #646663",
"/. c #6B6764",
"(. c #646964",
"). c #6D6B64",
"_. c #65696A",
"`. c #6C6A69",
"'. c #61646B",
"]. c #736C63",
"[. c #726E6D",
"{. c #706664",
"}. c #6B746F",
"|. c #747365",
" X c #78736A",
".X c #70716B",
"XX c #6A6F72",
"oX c #747572",
"OX c #757974",
"+X c #7A7C73",
"@X c #7C7B79",
"#X c #7F807A",
"$X c #83837C",
"%X c #7B7E87",
"&X c #7A8080",
"*X c #858987",
"=X c #96918E",
"-X c #898E92",
/* pixels */
"Y.].|.Y. XY.S.I.w 4 j % W C T T [ -.v 8.w.' 4.3.! Y Y j f b C x | Y l x ` :.:.>.>.N.W 8.3.6 x 5./.OX`._./.f 6 j Z.].Y.].]. X[.^.",
":.:.=.7.C.E.J.| N h f.V.! Y ! 5.Q z.m.b.3.R.1 l. .Y j E z Y g Y C ! 9 ! V.8.R.>.o !.| l.l C ! b.j.3.W.% v.# j k.! ! V.b.&.! -.8.",
",.8.-.3.C.].c.>.T R %.7.&.x T -.7.3.k.T.b.7.l.7.! l R K I %.>.o i.C # { v.:.>.&.2 b.:.l Y N e C.~ F.3.7.l.@.f Z ! ~ 5.:.&.~ ~ :.",
";.8.f.f.! b.f.T.T A =.5.! T Y ! Y c.k.N.k.7.N [ =.3.~ Y Q ! ,.@ :.! D.! 8.>.~.=.h.=.p Y C.B.p.m.:.! r.R 3.# # -. .3.9.8.>.} &.[ ",
">.=.5.=.>.!.8.8.` ! H >.3.j ! ! &.8.g.x.=.R.W &.b j x Y %.%.,.Q x.%.5 W v.8.<.:.8.f Y 0.g.^.f.l.p Y -.8._.# # p.0.R.%.w.8.-.g.f.",
"8.>.:.>.8.'.] M.3.l ` b Z H -.W Y C -.5.=.0.&.-.Y Q W I =.%.,.=.<.&.T.j x.;.-.=.6 x B.3.Y T B.3.Y G./._.oX$XT w.U.%.Q.V.8.f.:.W ",
"-.T 8.7.r.%X3.R.l l ! l 7.H b -.{ l.~ s.x.~.&.x ! N W -.I =.>.y :.&.1 u %.8.E 7 ! N.! ~ b T C p.5.&.f b.` 4.-.b w.X H b.3.f.:.:.",
"! :.:.5.r.t.-.S 8.A Z W &.g C 5.5.8.5.E X.R.Z ! A 7.N =.=.s I U W W # Y >.R k j E Y f :.f.8.R.D ! b n e 3.5.E ! 3.0.1 j =.=.:.>.",
"~ -.3.7.3.W.c N.3.g.8.>.b ~ Y -.-.=.3.;.;.g -.H f.Q.` &.P %.P W &.l 0 j 7 q j [ E j ! &.f.8.5 >.f %.x # f -.x C ! j p.o.F b.&.&.",
", 6 y 6 7 y 6 b.` f.Y 7.b Y g Q V.-.8.3.| j 0 7.f.!.=.-.U $.I D W F 1 7 Y W S.6.! g.! %.7.&.c.!.7.u D F X x ! 3.%.f Y M.b C =.1 ",
"7 0 w w 0 j 7 6 c.%.,.D 2 Q j ! Q &.%.=.K 4 o Y -.k # # P }.# #.X # + u X j.f H &.~ k.~ &.:.%.c.Q K y u Y @ @ W b K b Y ! y.: i ",
"P./.).oX.X`.{.U.Z o.{ H 7 R 6.X.N x R B L k F C k %.I P $.K x x N l =.X 7.g j R 8.j 8.! x m.R.V.x.Y f - B.y &.P.`.)./.D.{.[.P.D.",
"z.l.9.N.5.a.9.q.S 3.k I   Z g W ! ! Y Y j 1 , x F =.I P I J 5 Y f %.E z.w N J 6 6 u i 6 x k i 7 z C 6 N Q p M R 3.5.! [ 9.V.M.m.",
"y 6 u 6 , 5 b 6  .` k 6 u j n Y R M.C j B C S :.K ~ D G W %.x l.N %.;.k j { &.l c k f j ~ k ~ ! Y R J.! :.q 7 5 5 1 5 6 5 7 q f ",
"f p 3 ! E A 5.0.Y Y Z.5.> # s x E E { :.j j k C 6 # , @ - # # # - # * W h E b N { ` 3.! H ! v W x k C [ Q l k h p x l l A a.f K ",
"> 1 * = Y E C b.= 1 1 > * - o E E =.5.R i.5.5.E R R K W L j { 5.! c Y ! j :.! ! ! F V.l.5.=.[ E L ! ! { ;.z K b :.b.-.&.K q.G.p ",
"6 ).+X|.B ..X.I.X.I.s.s.I.M.> R h B ~ Q S J k l k z a q p 6 7 q 7 z x %.! D b.8.t.8.m.k.V.5.! ;.{ a.{ | 4.! Y C -.l 1 4 &.! { q.",
"|.W N R ! !   5 E L a q h # 7 # h 9.5.` J.5.l.{ 8.8.5.t.l.b.{ k.p R x h Y %.:.! N -.-.=.W :.Q T | Q ;.{ 5.E ~ j z &.X 7 &.&.[ y.",
"N =X~ N ! | 9.t.;.r.V.l.> ; > j E X j -.  z Y K Q J I z L z L l z k Y   X   X   X X M 5 O Q o O O O { L.{ ! W T u.X.R =.E ! f.! ",
";.:.`.p Q | T i.! 8.8.> @ & N :.g N j K R x -.[ Q h Y p l ! K J k s R M Y K M f.Q Q J K N { 8.Q Q K ! ! XX-XA b r.Q E %.C E =.=.",
"7.=.>.3.E 5.{ M.5.% , - 1 K 3.j R Z b j =.l N Q ~   j Y k z N.s l N R z l h R Q ! ! z =.&.5.k.l.8.[ ! Y C.*XY g + 8.j T -.7.B R ",
",.Q 8.{ -.3.| L.9.! E & s Y x l N ! E C -.K R m ! B &.x Y E l K s z R h >.L ! =.Q k =.{ j k.z.5.=.{ -.A ^.*XS ) 1 K { Y i.-.=.&.",
"&.K Y W U o E S.w.T = f ! l C H v E ! C ! ! N K -.Y T C E x A z W a x Y N 8.D ! =.W ~ t.~ 8.9.{ :.Q 5.8.L.@Xj f / +.z k Q 3.%.~ ",
"3.:.=.Q R 5.! ^.A = p 8.M K j C j Y ! x j = { E !   Q Y Y K Q z z 0 Q L h P >.~ -.{ E t.Y 7.5.l.8.} 5.` ^.*X{ b + &.Q     f 5.3.",
"8.:.~ R R A -.z.1 q N K J W C Y Q ! C ! Y f m E N ~ ! T Q =.W R f z x a p K f m k U j b ! w.6. .5.` E X.6.@ &.v ;.w A H.v } %.Q ",
"*.&.;.R X X >.x f E h z L [ [ N ! E 8.C A 1 R [ { A R E ! ! Q Y N q T K D D Y h j R x x Y 3.5.! R { ;.X.3.# j j   X + 7 S ).7.%.",
"! 6.-.h Y M Q K T Y z z U :.j L E j R h x B N Y T 3.x [  .Y =.    x T     #   + @ - f - +   X   + O X O X 1 [ T v f 8 0 b &.F.3.",
"C E Y K N V.U z N I { Q j M z z Y Z T b ! C | B K K [ 5.Y h     j x     l     D K j x E Y y.4.| | { t.i.N N j T g.i Y B w.' &.S.",
"U N h k.-.m.Q p O       o D q @ 1 R o e 7   p.! 6.j K ! C     R N l     oX    _.(.J.C.I.-.5.7.5.m.l.8.6.E @ S V g V ! ` 6. .Y x ",
"j B >.>.Q l.:.d z > h h h k h K Q B ..R t.E 5.! | { Q -.      N J h k K Q     x.Y 3.{ E ' 5.7.8.5.    4.4.# R X X.T Z ) } 5.Z ! ",
"z =.:.9.L :.! y h @ j A z I [ F R T { ! { A f 8.8.3.      k.3.-.N p W x     N 5.k.{ 9. .E Y -.-.f.    5.5.# T 1  .Y 3.3.5.! %.7.",
"p Y v.N [ r.U p j J z ~ [ X.3.~ 9.3.5.E 9.x &.! X       9.V.k.| E E E       l.b.k.[ b.5.Q Y *.9.! 7.5.X.6.o E - 5.Z E 3.! -.~ H ",
"h z 5 k R 8.! y p L [ E ) ! ! 8.! ! | ! ! f ! ! @                 z       ;.3.v.5.8.;.l.=.5.Q 3.R t.O E ' + i.* b.! ! ! ! { f N ",
"s N h x K N.L p z h g N X.{ { R 5.8.L ! 3.k E -.9.                K       4.5.5.Y | 9.| K [ Q K { R Y E L.5.` o Y C =.[ ~ W L l ",
"u W j R Y 5.l p x n.z 3.R i.| 7.3.! %.5.o =.9.j 3.7.-.  5.0.|     f           8.[ ! K [ j :.x 5.8.W 8.3.W.J.o = i.Y W ~ ~ k y W ",
"          z 6 4 U x Y ! A x E E w.E } 5.E R { s R K K x Q X.Y     ! E T C ! C C R Y j E Q ! 8.Y { 3.R E ! { @ * ~ ! =.Q :.K 8 K ",
"j k ! L Y x k 7 f h Y f ^ { v j ! ! ) j o 0 b L K x K W C W M     z =.x I z %.~ B &.{ =.z x =.=.! =.E l.b z.# * 3.I =.-.R W W W ",
"I a m %.D g k 7 w R x Y T -.} 3.l.8.{ Q   p { l ~ ! [ x Y D P 8.D %.Q N { C E R ! F l j { Q Y E -.E E 5.5.} O # =.&.,.~ ,.~ a p ",
"x j o =.E Q V.w N h )   B.*.) E a.8.8.[ X K L N { Y x z x a L M s >.[ 5.m.[ &.} 5.b.` ! l j t.! r.{ 7.! T M.X * ~ Y &.K W Y 7 W ",
"%.:.A o Q - { 4 h ( 5.v ) 3.9.5.! ! -. .  a Y 8.! Q %.! U I { a j k ~ Y a.3.E ! A :.3.j K ! :.! 8.3.9.3.b l.! # D ! %.%.! -.0 n ",
"v j j l b ! &.k B m E 8.3.b.5.-.5.:.4.-.  M Y Q R [ ! Q Q %.U x K %.L :.8.S 3.T ! Z E l &.! 4.! T T 5.-.p.-.Y * Y z Q ~ ,.,.h j ",
"K 6 6 f 7 i 6 h [ ] } X 3.! ` 5.t.X.7.8.  K ! { Y Y Q { R Q | N L h K Y -.} A ! Z !  .j W ! w.! t.=.o.8.R q.+ # 5 7 3 1 , 1 W i ",
"i 5 u 5 x u u f W Y ! !  .6.6.q.` t.9.5.O l C 3.E Q Q ! R Y R Y 3.K Y W ) ! ! { -.| 0.s j 9.Y ' ! ! 5.! x I O % l u p 7 i p q j ",
"v i u N &.h x N x Y Y   7.8.9.8.>.| t.6.O l e v X V V B v Z } j r | 0 Y j T Y E &.:.v k E Z &.x -.T ! &.I Y 5 i -.&.! W W B -.b ",
"i Y =.%.! 8.Y 3 j P A -.! R 5.8.-.r.l.w.o h z W   &.%.Q Q 5.k | z h K j f j R E x j S x ! ! E 3.4.Y F Y f j @ y Q Q W ! :.m.h.M ",
"x g.F 8.7.*.Y w h v p Y ! 5.l.V.{ 8.{ E   3 E j x Y N z Y L j E N j x z j 7 E z C f y.U W &.~ B.5.N.F ! 6 Q @ p 6 # &.&.5.8.E -.",
"&.,.=.:.8.8.Q u j w N N h W ! W A 3.! E   k R x N x B Y [ [ l Y W x u k C q N N ! T E ! J D -.! ! Y 3.! Y 5 Q k Y 6 j W R :.-.B ",
":.l.:.5.:.~ &.7 j Q ! 3.7.{ 5.! ) 4.3.5.X l E K ` x K [ Z { =.{ ! z z p h K [ K ~ ` C.k { F ,.6 = 2 1 1 3 Q K Q z # # # - # # - ",
"Y d.=.! N -.&.y F ! ! =.3.3.5.r. .X.| w.X j C R Y 5.3.C { ! @ l.-.7 k ! j Y :.=.T 9.^.3.: u - 5 5 , 5 p 4 ~ z q w.F j z K g i x ",
"3.u 7 y y 7 z 5 f 8.r.8.5.3.3.5.t.5.9.p.O j E C ! ;.3.b.! z.m.W Y r.p ! 3.E 9.{ 6.9.S.v 4.9.f.8.l.r.{ 6.;.x p b.W Y 3 ! %.Y =.x ",
"W E ! ~ Y D L f O u f u f y k f z h j h e f w q h h h h Y K v E f R w f Y l 5.! -.| ! T 6.9.Y l.| { { { k N  .C ~ V W &.:.%.C ~ ",
"i Y f x F p u q &.+ l ~ l x T -.! ;.N ` -.Z E Y Q * K ! :.b.6.'.l.l &.r.5.9.| J.- #Xw.F R V.3.! -.;.:.j f 9.! W 0 3.f.-.:.Y 1 5 ",
"g N j F z z f %Xl.  j f C d z R Y Q N q.] | C M N & z ! C.3.9.a.* h 7 & * * * > 1 6 + # - $ # # # # T ! p.~ W 0 2 -.0.7.%.=.R p ",
"f E C K K x &.=.R B *.[ ! N b &.5.K 5.Y +XY j L E Y ! 0 R 5.' 8.t.N K x f Y f w F z i D._ l F.y.T / 4.y v &.F W v ~ ! A z W K u ",
"Y ..8.9.V.6.m.H.L.H.G.m.s.a.s.a.d.i.L L a.K D j =.[ R 1 5.Y X.5.5.! 3.R b K F g 1 u 0 =.x Q Z g N Q N 3 OX$X! ).7.K./. .` ! j 8.",
"N ! Y =.Q >.=.>.9.l.[ J.!.! :.>.-.:.@ q A.=.z ! K [ Y # B 5.b.>.Y 8.M.g.-.T.p.z k x i x.(.7.%.| h W h : Y :.! e.9.4.3.&.7.&.&.&.",
"W OX  8     #   c ;.^.^.^.K.e.P.D.P.L.z Y f Y j k s L 1 H 5.5.J.X.f  .N 3.5.6 - 7 3.W h.8.>.8.,.A.i W - W x X 9.3.8.7.8.8.5.f T ",
"% Y =.W z W C =.Y N %.;.:.=.~ { %.b.~   -.] A R K l p 7 Y 7.3.3.C.! 5 W 5., 1 > k P.>.&.>.f.&.=.! n.w # x ; ,.! f.f.8.-.3.f.%.v ",
"M f.Y b.b.q.8.! R :.{ 8.;.=.3.~ Q w.~   ..Y C N g W Q r T ~ f.Q Y a.C 6 6 # X W &.oX%.W Q %.,.W %.I f # y Y ;.&.Y T.l.h.7.x.h.Y ",
"C l.G.l.g.m.J.8.! R >.>.! ! Y { ! 3.l.X Z.*.~ %.:.Y z 1 k W ! Y ! ~  .> o + x W W ^.T ~ %.=.R =.:.W 1 # 7 C R :.` 3.f.8.:.8.7.7.",
"Y %.y.Q c.6.3.8.! C W 1 7 6 6 7 ! n.&.o `.Y B :.N.Y f 6 j K x W j j 0 - # /.3.*.Y oX%.%.W ~ ! =.[ 6 f o f 5.K l ! ;.8.! 8.F 7.-.",
"Y E x.[ >.o   =.K Q R =.Y p J z F j ! 5 G.K x h B f j 3 f R w u u 1 X # f W g.,.x .X&.# N # # ~ < j y # 1 T 5.g.,.f j ! C y -.~ ",
"Y ;.[ :.Q %.Q K N ;.=.=.K ~ D { M z [ N J.W j k x g 5 1 v R R W ! f 6 f b.l.:.3.W I.# - , # 1 5 7 1 f # q C , @ x #     5 Y -.! ",
"! k I K N M z =.! L Q z Q z z K z x L N | N x f j h l , g Q x x j i 7 W 8.&.~ 7.L C.! W L x 1 i 3 j f u 6 x j j b l W &.C N ! ~ "
};
