/* XPM */
static char *dcfce26ea1b848d3a69642de57ee6356PJakAgG0ECT8KcrS[] = {
/* columns rows colors chars-per-pixel */
"64 64 82 1 ",
"  c black",
". c #222222",
"X c #2C2D2C",
"o c #2E302F",
"O c #343434",
"+ c #363837",
"@ c #3C3C3C",
"# c #3E403F",
"$ c #444444",
"% c #464847",
"& c #4A4947",
"* c #474749",
"= c #474948",
"- c #4C4C4C",
"; c #504F4D",
": c #4E504F",
"> c #4E4F51",
", c #4F5151",
"< c #535453",
"1 c #585756",
"2 c #565857",
"3 c #595856",
"4 c #565759",
"5 c #595758",
"6 c #575958",
"7 c #5B5C5C",
"8 c #615D5E",
"9 c #5F605D",
"0 c #62615F",
"q c #5E5F61",
"w c #615F60",
"e c #5F6161",
"r c #636464",
"t c #666867",
"y c #696866",
"u c #666668",
"i c #696768",
"p c #676969",
"a c #6C6C6C",
"s c #706F6D",
"d c #6E706F",
"f c #71716F",
"g c #6E6E70",
"h c #716F70",
"j c #6F7171",
"k c #737374",
"l c #787677",
"z c #767877",
"x c #7A7977",
"c c #767779",
"v c #777979",
"b c #7B7B7C",
"n c #807F7D",
"m c #7E807F",
"M c #81807E",
"N c #7E7F81",
"B c #817F80",
"V c #7F8181",
"C c #838384",
"Z c #888687",
"A c #868887",
"S c #898987",
"D c #868688",
"F c #898788",
"G c #878889",
"H c #8B8B8C",
"J c #8E908F",
"K c #91908E",
"L c #8E8E90",
"P c #918F90",
"I c #8F9092",
"U c #929394",
"Y c #989697",
"T c #969897",
"R c #969799",
"E c #99979A",
"W c #979899",
"Q c #9A9A9B",
"! c #9EA09F",
"~ c #9E9EA0",
"^ c #9FA0A2",
"/ c #A0A1A3",
/* pixels */
"aatrgaggCTRRGLqkHLHCa3bae36@9GeG6r<2bDlgkaHbHHLWGaWgbDbNbCCkPk-j",
"k-rbbCDbaIIVHHHHLIbkvCrr*<,UA**YbmC2bCNgrCUPkDNDF*rwbHuarr7rHrra",
"bKbmNDa3CULbbjYHlVkLqkvcg-jbQ**vkrCAHHAAtvvkbc77OE,,<HbBBCBDbGCk",
"CPCag3cbCHUckLbkbCLH7aCvOkabGUaHD7AbIPHDHmbrk37o#C$$Gb$2><1r<H--",
"bCbHDb2XAbUkcUkdkbC8Ljk$7aklDU-NcarrCCbCbaCakb$>L1<<Fb@-7ara2rrr",
"m3OHYz7bUYQYYYbkabCIkNvk92$83utHArrBKUURULIabaW3-,,;cB@raACrk<><",
"Ca<bIHHIGDALrrkUWabNDaD&aAabkcNYH44CEVVCNNmfLebaib2$Nb*<rkCcj61a",
"rbk&AHHLHIUU90mUUcTRUHUUHHbrCCNbr63WC---bbYkkaNurb,*Cb7CHP2br7i7",
"LFX-###$7LLN<qCWULUUWHWUUvcCAcDkrrrUA<3qNbEkakCaau3-DbrHLUkkWUUL",
"is@1;#oXpbHDaHCNWHPULPWHACrNbaAUa7rRAw&<bbG<tGaazua,GbukLUbWYUUU",
"cCBr&CAkHADDaLbDCbLHNCbDUULNBCCVGUHUC&*qNWL<gUUbHUYU-QkbHUUQkkkm",
"7-@@,hraH4bPCvNNACakvbDAHAHLNHc<arCI3ALHUQL<lLLPbHUWH~hDA,BbbAbb",
"q,<<ra-b6vIUDNGGHHWkkAAbHCbubVU-kvbC1GGAWUaACPUUHlUULQaa8&rabHr7",
"7-**-$k=bvvLrLLgwHP<5VCCLAbbbjI<bQUUUUWUWWk3$bk<7CNYP~ar2#5#bHr7",
"w-#+.a$$kkCHLLCYrH<GUDllLDlgaavebbbCfHUJbbkwok>rNDvUPQ##-<$w-bCr",
"bl&orkCHHCIDUCkUvCAYHbAqnCbbkbHCHAbHbbkxHCq5abOoHLVWDb*&#BCQQHNr",
"an$CDW2bbbkbrbbb7U2-APr@HrtkbDCVUUDHNDGca775ykklk@HY~NgkgaLHUQCj",
"P4irLU1kr><k7<->@-O;s&7<GX$-akCbUUDHcWRWWWr7kta1k@7GR~NurrIIUQNG",
"DaiwkA<y467baikrkkkrW6-7Cb-AHGUGUUGHbHLga7Paakh1k*rUNUNauharaWHD",
"CaqrrC7a7eCHACclaakkIklaa75-HINHULWLHHhalUCkar;adrkYLUkagjaa$2+$",
"CC-7qArr6HWHHvjakkDrr6r6#2&H7ULWUDLUWLkcuLbHHHHrHHLUUUCvkD<7@U*q",
"HV&7uDrr6IYHVbCCN6G@*976-kaAEUCDAbHHbHbbHkBDbkgk<kVbIILNuLNC3CN5",
"DL-3uEHUU,Vk#rCrb7C>i3A2rvrdCHkYLHWY3CCYUcbNlaO+#2aaULCb7-aC3DN>",
"VBrBNUUUYaDCkvackgb&a&HHabtkCHcHIULCW/WWAHHPA73>1ya3rkkkagaL7DCr",
"CbNAUCDl37UigabbbNC+-&eaek<rkAkCLGICHYWD,7atp722<BCaCVCAB<+b8Cb3",
"7akkcCQLQQbkVNNbkC*akacbabrpCHzCUIDUaWWUjkbbaqq7<c&kaBVM+$ai=bbk",
"-a$rA&EUUHbbCCbcvLrrBkNLk0bmCHA  DH  b Ubkkvurkara1krrbf-bbHUHA7",
"bbOk$7HUHHNAckaaaWrhNccNdrddkk  Ab  b  7jgkbrgvkaYzrAbkt&nCHYYY+",
"kC3$+#CaxbBkchvkHUuNvFUUrkbbb  TVW  C  r&4kbrkbkkDjbkbzr#V2kHvb$",
"HWk+-7cNbCDkLLjDDQLughgvHzbb   Yk&7WT  d>tNCacClCUbCbkb:*G7kH6ar",
"PUbX<BHkvbCUCNLLGWbDrQ~kHa   b<HrkcH  HkCDDGklCCdHHbCcbNkWGQ@2VC",
"UQNX&kAk9kADNagkC~bDqUUQf   kj*Gaa2   HlrHDDr-<2@<<acakkkCaYQHUH",
"UWDLLHPHbNgbksattkQV7CUCb        C   CHarS3-&+><3rrCUHP5+CCEQUWW",
"bCNVHNHH,DkLUHUHgk<7rf<-t        b   k#+rUerutrbaDgabkAl@8sDUaHC",
"GLgHDrr7kkqcskklNIWTdkaNHLb NNC  j     +iH5sarugrara>rDC&lbhrbkH",
"rggCUbvCurkNvrd-257Ca0-@NLDburV  a,b77-21Hrkejjgraac<aC@,gHHrCY7",
"kvbckblHrCH7rbbPADUhrkaaGk2Auab  g-b2712<Gk7*-<53e37>rDb<ark2rAb",
"Ctr4t-3CLUUAAHUUUkHackNkDUa$aCHHHClHbHDAAAk35751<rCDNLWNYWHWbYQU",
"7aeua1iChCa#$$3LCNh3DjbqbHahCQTHra+<2rLLLGHCC-#<$aDAkDW5<bCbC<ar",
"H7arr-4AlAbirqrUDbu-1racbUaB&><$Drb79aagar<<,3*<<bar7DHAQQCACAkk",
"GHaHH76Dckmaku7babNqrrvaHHbLCCbuA#;barakjrk&$<,kahuggCDW$@+#@<HP",
"Htg97e4GabAcZa3AaUURHDDGUGWYCbaGUPCrNC,>&,$bkbk<rUDLHCCb@@OLiHQP",
">aa7e7rmHa,<CbATRqVVapDCCHTCaWUUUPU~rNCNcj$2ka2r$HcULkCb++@aHaN7",
"7u9<73<UjoOX#@8CHcgkNCCvDVHkkUAYL7PW<ru43k$-&>&-7WaDvriNX.OlbPN2",
"rI&*-7-C-@-#b*>CNVCCNVGDIIN,qL*##*W&&7e6r7-<r&$&$CkHcaaCO.OO-bb7",
"eI-r-7--,$bI7CNNNGGNNLHLEGI~UUq>44akkWkkfa8a-7ib>UhHBku2q-43u-*+",
"tG<e-7<rraXNC3,-<kcvbbbCGULLLU<a7>7$arDCbaAskAbrB7eaHHULLkrLirhs",
"rA&e&-bGCHkvk$@$<GIvggvN~UHCHNHGHDbHt3aHH3Dl<1<2rrLPWQQQ~LbkEDUU",
"caU7rkACAC$HB<<-bAGkbzvvIACv*,-IeHHUHgkaVUvbU&r2<akbbbbbbUH<HHWH",
"URACb7kCnnOwc&<5bVrkbkNbWV,k676rCbgUHbkakbCkNc3;brraakjgkIAHHIbb",
"HaraubVIUU#<YI4rbCPHTW^QWA$a7DbGL*+BkbLCHbWkCNkb73732<-<eHCHQQYH",
"MkbkbCACcv,<NUq3HCYCGHTWU7bHbHLGUvlUHbLkURYg<lkC22>-7@0r7rr5UQQQ",
"bHAbCbYYAU-u3U--kbHUHVUUANNHCPLLHkuYYUTNHGH$DcWTC734>+9ZkHCcrbbA",
"C@dx7r-WbHCADQgGHHUrDaLULLqqvUULLkGQk<HbDIUkCbaawrL<baCHkkHHbbAb",
"+X;kr<;YNHa7rk7abaUrDaHUHLcgavgjbaaQb72YVCCTUVAbaaHrqbbMfkHDk53r",
"#+<k7o+H-UN3<zraPkDmHaUULIDbNkNUDr$HGr3bNUvbVbCcargDl*CbdkbHa-7@",
"7r2r<lAUbkHbmrabkbbbHaUCHUaNIDUNCa1UUDtrkCkOrbCkvjcHSHKbkcbCr@r7",
"7r7o>>$D<aCAa-77>a7cbaPCNbDHRBUbDa4UULLDCg7<66CAN3ubbCAlH7uka$rw",
"g7.3WFQW1sSHCrrHUCbACiHS7Nb~DDFbNkkHHUCDVGC-cYaN-cabVQCkSXsIvCvk",
"goBDgLUH;abCCkUHUCCbb77CrO>>DLCb$bkCUUUBGGHa~~QTW9MaVWHkKbIUa,@@",
"NCnHaCDCbfbCCHHLHakkkPWB*k2rNCrgcDuacr>47aHaCjcaHC$rNIUbPvLUabCV",
"CCHHUWaCdxU1HRWIUkUkHb-CIV$7r4UFLUb3DH-7trHaCjcDbABUCwrbINHUVk7b",
"CHCarWaa2CUK5WWUMMUbI2+bCarbaHWLqb72bDq-urLaVQQ~QCNUk@ULWUUHbACC",
"aaAaaaUYUWUUH1LHUHSCb-bsararr<AA2c<73DC7kjINRUUWDkEW^a7qkUg3Kg<r"
};
