/* XPM */
static char *_6290803485140769c7db8fe84243cc7YzsV9uRIveyUquLJ[] = {
/* columns rows colors chars-per-pixel */
"64 64 112 2 ",
"   c #020101",
".  c #090806",
"X  c #0D0B0B",
"o  c #100F0E",
"O  c #11100E",
"+  c #0E0F11",
"@  c #110F10",
"#  c #141314",
"$  c #191617",
"%  c #161817",
"&  c #1A1916",
"*  c #171719",
"=  c #1A171C",
"-  c #1C1B1B",
";  c #211F1E",
":  c #1F1F21",
">  c #221F20",
",  c #242323",
"<  c #2B2626",
"1  c #2A2926",
"2  c #272729",
"3  c #2D2B2B",
"4  c #322E2D",
"5  c #34312E",
"6  c #39312F",
"7  c #2D2E31",
"8  c #312F31",
"9  c #353333",
"0  c #3B3535",
"q  c #3D3936",
"w  c #36353A",
"e  c #3A3739",
"r  c #37383D",
"t  c #3D3B3C",
"y  c #403635",
"u  c #423937",
"i  c #423D3D",
"p  c #3E403F",
"a  c #44413E",
"s  c #4A423E",
"d  c #3D3D42",
"f  c #413F41",
"g  c #3E4143",
"h  c #3F4448",
"j  c #454343",
"k  c #494544",
"l  c #464846",
"z  c #4B4946",
"x  c #454649",
"c  c #494748",
"v  c #46494C",
"b  c #4C4B4B",
"n  c #514B47",
"m  c #504748",
"M  c #514D4C",
"N  c #4E504E",
"B  c #53514E",
"V  c #58514B",
"C  c #464A51",
"Z  c #4C4D51",
"A  c #514F50",
"S  c #584F50",
"D  c #4E5153",
"F  c #4E5158",
"G  c #545352",
"H  c #5A5654",
"J  c #565857",
"K  c #5A5956",
"L  c #555559",
"P  c #595758",
"I  c #56595A",
"U  c #5C5B5A",
"Y  c #615E5C",
"T  c #5D615E",
"R  c #63615E",
"E  c #5E5F63",
"W  c #615F60",
"Q  c #5F6460",
"!  c #646362",
"~  c #696563",
"^  c #6C6966",
"/  c #666769",
"(  c #696768",
")  c #6D6B6A",
"_  c #716D6B",
"`  c #73716E",
"'  c #6F7072",
"]  c #757271",
"[  c #797572",
"{  c #7D7976",
"}  c #7C7B7A",
"|  c #817E7B",
" . c #7E807F",
".. c #84827E",
"X. c #858382",
"o. c #898583",
"O. c #8C8987",
"+. c #8C8A88",
"@. c #908D8B",
"#. c #8D918E",
"$. c #95908D",
"%. c #969391",
"&. c #9A9794",
"*. c #9A9996",
"=. c #9B9C99",
"-. c #A39E9B",
";. c #A5A19E",
":. c #A5A1A0",
">. c #AAA5A1",
",. c #ACABA7",
"<. c #AEAAA9",
"1. c #BDBBBC",
/* pixels */
"| -.| R >.>.H +.$.>.[ ..$.,.&.R ^ _ ....V ^ - b z u b G H H H G T Q G v A c c v f b b G / U #.} ..=.q ~ M %.~  .%.[ ) { [ [ X.` ",
"U v c H G l v v I b c v j d t i c c c c c A o M u z b b M Y B H b b Q G D b D L W c v j j 3 N j j j 9 w t g H G v v j s l p x R ",
"Y d x b b b G v D j z d 9 t j t j j c j v c - M M k z M M M b l x v b U N D v b b k 0 j x 9 b b z B M x x g c v v b b b ! b z 9 ",
"U j v G b D D j j i x j v j j j b b b B b k % z b z z c b K z a b j v D N c k G b t v c j - c c z k L U Z L v g b b b z v z z a ",
"G c b B b b z k a j d h v j j b b B b B b k & b z z k k k z t c 9 t k j H U L k k j l z z 0 b b M k c b L A x C v b b a v e l a ",
"3 z N B v b R n k v j x t c G A B B B N n b - b j k z k z H G l c i u b b G k k t x z z j t b b M m M M L C G H H G b c c c e 4 ",
"0 M H b j l M s k z j j Z A G U N B M M b z ; i c b z c H H b ! v c H K b j j t j b z c a q b b z M M H U b z H l c i c b i k 1 ",
"H B G b z z u a b z z v j Z A L G V b z z R & N b b b z M J B D G M H H c j f j b b z k a z c z H z M M c f z c a M H U v q 9 q ",
"4 b M z b M s k K M z b j b b Z D b D v z 9 & n b b N V z v D G G U z b b j f c H b z k c t b D G B H j a M V R M L 9 9 8 7 t j ",
"Y k k z b M a H V B k c j j A Z v b c c z $.# b H J q ~ z x g x D 4 i i i 4 G f c Z z b ! 9 U b j j i u i i 0 u t 9 4 1 3 9 b $ ",
"z i t j z s a H M M M v c c M v G z b k b b - .                     .                                                       X   ",
"z 0 q b l a U J M M a j c j A b l b z b N b X B H p { p b J H b t i t ..5 l M N H B Y | G B J T N #.~ &.o.^ / H P G f f | 4 M z ",
"M e j b e t D j Z j x v c f b z b c b z M j X M R G G G T G G 6 j k z I R N G b M b z k H H U T T B N b I H I J H B B m m k j z ",
"S j j t e x v c v j v v Z v m M z t c v b 9 # M c H I ' N l b i z z z U b b N H j t j P _ R I Y I T C v I M H G G M Y n k 6 w q ",
"U Y i v x d j c c v Z G M c b b z k x G M i % b k B J ^ l N q b c k b j c b v z H t t u j d f 0 b j N v p B B b M B H z t 3 e 4 ",
"Z f c x x v j j A b z G G L b M k c v c b a - M b B N 0 s 0 j j z b c 9 9 x x v B a j j f d w t u j i v b b c j b B M 9 c e c i ",
"b k b v C v x c j l B b B G b b c c b b M z 4 M A i A i i b j t x t b e 8 C Z C R N H U Y c t i j b a c k M c c Z 9 a b k j M i ",
"H u Z v v b b z n B B G D D N b M b z M M M & k ] c i 5 z b j j c R b f > v C x v b H ! b _ U Y q i 0 M t Z v A U i z b a f c H ",
"j ] S H I S ! H k B D G J D b b z z b z M M ; b j j 5 R M H H G H B M z t C v x N x M H Y k j 4 4 4 M M c x j j H k k M j j c ) ",
"B v x x E q 6 k M U J D D b b b M M M n b b 3 c = j M B M B H B H b M z < x D v j j P n b S M z n ^ M Y b k d t k s k M b b G R ",
"1 d r : = 0 9 4 k B G j l , , - M b c j z X ; j c 2 , ! z z N & - b l k 9 c x j x d e ) M c k M H k M B M k e j k H M M c A c U ",
"+.) Q I U ! R ! T H H ) ..! G ) ~ ! ~ ) 4 K M j ) ^ R ^ _ _ U } +.` T j 9 Z v v v x f j 6 | n B i z M z M z k k z s k c j j c b ",
"j g d g g d i a a u 0 i l l j g f j j x ^ _ [ _ 9 j j i a j x x x g B a t v b c v b t i u i f V a x z c k k z k u 0 M a 3 c c 0 ",
"t d t d d j i a j z z z z k j g g g t i c z i i a a i i p g g j p N z H 3 b b v b f 8 z y k k R t x x d i f y y z s s b 5 4 c k ",
"j r w r g g j x l b z b M k j j g d t r t j k a j a i i i f a j b v l ! 0 b l b Z 2 c k u f f j ! j f f t u k k z k < u 9 c M ! ",
"d t r d t x j b b z n l k z c j j d t t a j c k k s k j j j j x x z z ! 0 b n b Z Z M i k u k u i j c i f j V n l s k 0 c U l ) ",
"v r d d g g x c N v j j j j j l j t e t s l j z k z k a k a c     z z     b   z c x j k c u j 9 d f O.~ M M n m z b k Z d g x ! ",
"H d g g g g g g l g a s a s k a x x j t j z z b n b M z j c     N k     q     z v x j j i j b i i i 9 0 t u Y H B M B G h d v H ",
"U g g g g x j x j a j i i a k z j j k a l v l v b b B b z     H z b     l     z c v j j c j f u u 0 9 y 0 q t M z V H H I v I x ",
"H g t g g t t a q a i i 0 j b H G b l j k k b N z b b b       b z z N 9 N     l c v x v f c f f i i u y q i u f b b b b Z Z x ' ",
"j j t g g a j t a a a i j c B b H H H z j c j b c v       k M z z M z 0     b M b b b b v v c b n k k f s j k j k n b z c z z I ",
"J l l x l c j a j t a k j j c M b V H b c l j j M       b s n c k c c       , - X d f -   @ X @ o @ - @ . 1 , , . # O & : , # & ",
"B v z b N z j j j j i j i a a k M M G M z P c M c                 a       _ ~ +.X.%.+.*.1.f *.*.%.;.:.*.&.<.0 c U ~ O.G e ! } ..",
"& j b b U z j s c k a i u u t c s z M z j m A f j                 a       Y ~ z M c c ' c = H H H B H b j c ; G G c c v H c z U ",
"; k a l s z z k k k i i q q q q f k j k s j f i t u q   4 0 0     u           b M c c f Z = H H H H K ] M j , G B c v t a 9 0 ` ",
"a R H z b l M b z k f i i 0 9 e q j i k c i u t t p t 0 0 0 e     q q Z ) j G c c b M M e = D D H H H B H M , c v v a c d e j ( ",
"u j q j l Y b 9 c z k a a q a q u f B A 0 y e f a a a c e e t     t t G 3 j b A L A M v } , v b v I J G B G # z v ! j b x j j ! ",
"z t b s a l z l c M M b b b s a i u M k f 0 e f a a i i f A 9 i i i d J e G b c A A M A c - Y M v I v H T I - c v a v v g g j ' ",
"j 9 0 b N b l l l v b b b b n n k k u e w 6 e i w d e d d t i f i i a H 9 c b b U b Z ) b 3 z z k M Z E H I . N B b D D D v j b ",
"j 9 9 t _ U B s k s s z l z K ~ b c q 0 6 0 i e w d d e f t t t i i a j f A A b c 8 Z Z e $ k z k n v G D J - B i b D b b z c 5 ",
"j j 9 w e v b A c z b U v v c 9 9 y q u t t q e e e r d d e d d a a l p 4 M b b b M b b x 8 H j s M j b B Z - A H n b b b z z s ",
"b j j d , 9 4 < 1 9 9 9 3 0 9 0 y i q j u c t d d d d e t x j j j j k 1 f M M b M b b A H , t b a s i u M A # A ^ V z c c j x H ",
"                                            @                         .                   > M G V J M a j c - L V V z t z N V ] ",
"U 1 j 3 j t U ( c H G H b t b b i G O.X.b j , G c ( @.| &.=.X.A 2 9 a j i f | { z b z a z < M B I D z V k c - P H V z x H H B j ",
"e j j b : I G H H G J R u i k v Z A M v j c & G Z I ] R b B z a j v b c c c z z b b M n c # b D v v c z 0 j # e B U a b l z b a ",
"G c c Z , L G D B G B H c H b v 7 8 U b L ! * G Z Z b v k M c b b B b z c c M b b M k k G # z v v x i z H b X v L N a c j 9 N N ",
"J b b M 2 b G v Z b H b c c v A G W v v b b = Z G L M k s s z B H H B H G M M z M m M R B , z f f i k z b z + C D G a j b b b B ",
"b v c b 1 j L c H Z H H j v c Z Z Z t b x j - k b j s u s k k z B M B B H K M M i Y b M c e z g v k z M M j + C h b q c i i v v ",
"N i j e 8 f c c c b Z z k z U v c Z A v S E > f k i u t M k c s z z k c n M z s n Y M m z G c l b c M G G j * v h x 6 m n a x v ",
"t t v x 8 b A c b M Z G R j v v v f f Z c b > i f e u i b c k j k n M M z z z k Y k i f j H b N d b G A 0 j X x d x Y ] M M j t ",
"g b c J 7 b A Z Z M j M M V b j k f f x c A > t 8 0 i M b z b b i z M t k ! k j u f f u q H b b G G Z b j c # i t f z f u i c j ",
"b L H U e A L Z L j b b k s b v f i x f Z e - j z k i M b v G G i k z v k k a j i u u u c ! N b b M Z Z c c & c f f k i a R k U ",
"U G U 2 8 C F Z U L M c a j B z f v x v U U # j f M j c b c z b 4 u L j b b , 9 u 0 8 8 ! % 2 ; v v / + U A % 0 a k q k s q z J ",
"T I [ R 2 C C A G Z f c a b m z b v Z x Z { 3 X.^ [ R ^ ^ ` ] [ ! Y W ) !  .~ ^ ) ) Y Y G - ` R R ] ` _ b U M U q N B H ! H ~ ) ",
"b M c H , C C c v v v c t Z k k c j c Z x G 9 G G b H ( Y H H V H J W U J l G H H H V G ~ # j b k 4 i v G J R Y _ Y Y K H Y H H ",
"z z j H , f v C A c j 9 t b z k b c b Z Z Z - A c b v Z G N V b b G x d c v j b 9 B H b c # z z i i j c H U B D H B U H G B K K ",
"z z i L f f f c f e i i v Z c b c M b Z G v = v C x D T G M z k j s d f f f 9 j z H n n k @ M B H b x G H B D v e u q i H z k j ",
"u s c W f f f i f u t b c b c A L L G A H D - v v x D N B z c M b a f j e t d j k M M k f > G M B b b H 9 j 5 q d q q q i j k s ",
"c M x , f f t 0 6 f Y M v c b c b G ! ! G x : x x F D b k a M ! M z u 4 9 i c z z B b j j = M B z I J H t a 0 l t e 0 d j q q 0 ",
"B k f 3 d d t t e e c S M c b A G Q U j Z H * x v C D j a s M b M M j f c A q M j D b x j - z b B j j t e q z v v j r t f i j j ",
"a z j a w t t e e e t c ! U c b A A U g v Z + j D g p i i k c q B k B I ! U M M b v D h v % j l z u 0 t 0 q g g j v d t f j t d ",
"l a j _ > d t e w e d d j M Z j c c c j x v & H b b q i q k s j n b M M c M H z l N I v w * t d j a 0 q 0 r r x v g r d g t e j ",
"u t i 9 ; j f f f G c j f f C f t 9 j p j Z 3 M b B a a x a t d t f j c c c v b H v L v t - 9 s 3 i b j j f d e j Z J v j g e j ",
"c i v & > x 8 $ , ; = $ $ + . # 3 & 3 e X # 3 B z B b l D M c x j v f j j c v c x b I D p - ; -   - & X 3 , X - ; , - 3 x H U b "
};
