/* XPM */
static char *_5296be7a77f4c77f9f03bb3bf6935e13dr6FPfhEXekhRAz[] = {
/* columns rows colors chars-per-pixel */
"64 64 147 2 ",
"   c #554F49",
".  c #56504B",
"X  c #5A544E",
"o  c #5C5651",
"O  c #5E5953",
"+  c #615B56",
"@  c #645E59",
"#  c #66615C",
"$  c #68635E",
"%  c #666360",
"&  c #6B6662",
"*  c #6E6965",
"=  c #6F6B68",
"-  c #706B67",
";  c #726E6A",
":  c #75716E",
">  c #78736F",
",  c #767371",
"<  c #797673",
"1  c #7C7976",
"2  c #7E7B79",
"3  c #817D7A",
"4  c #807E7C",
"5  c #817E7C",
"6  c #807E7D",
"7  c #817F7D",
"8  c #827E7C",
"9  c #837F7D",
"0  c #817F7E",
"q  c #827F7F",
"w  c #817E7C",
"e  c #82807C",
"r  c #83807C",
"t  c #83807D",
"y  c #83817D",
"u  c #83807E",
"i  c #83817F",
"p  c #82817F",
"a  c #84807D",
"s  c #84807E",
"d  c #84817F",
"f  c #85827E",
"g  c #86827E",
"h  c #83817E",
"j  c #838180",
"k  c #828280",
"l  c #838281",
"z  c #848280",
"x  c #858280",
"c  c #858380",
"v  c #848281",
"b  c #858281",
"n  c #848381",
"m  c #858381",
"M  c #868280",
"N  c #868380",
"B  c #848382",
"V  c #858382",
"C  c #878481",
"Z  c #858482",
"A  c #868483",
"S  c #868584",
"D  c #878584",
"F  c #868684",
"G  c #878684",
"H  c #858482",
"J  c #898683",
"K  c #898684",
"L  c #888784",
"P  c #888685",
"I  c #888785",
"U  c #898684",
"Y  c #898886",
"T  c #898887",
"R  c #8A8886",
"E  c #8B8886",
"W  c #8A8887",
"Q  c #8A8887",
"!  c #8B8988",
"~  c #898A88",
"^  c #8B8A89",
"/  c #8C8B89",
"(  c #8D8B89",
")  c #8E8A88",
"_  c #8C8B8A",
"`  c #8D8C8A",
"'  c #8C8C8B",
"]  c #8F8D8A",
"[  c #8E8D8B",
"{  c #8F8D8B",
"}  c #8D8D8C",
"|  c #8E8D8C",
" . c #8F8D8C",
".. c #8E8E8D",
"X. c #8F8E8D",
"o. c #8E8E8E",
"O. c #8D8C8A",
"+. c #908E8C",
"@. c #908F8D",
"#. c #908F8E",
"$. c #918F8E",
"%. c #908F8D",
"&. c #8F908F",
"*. c #92908F",
"=. c #92918F",
"-. c #91908F",
";. c #908F90",
":. c #8F9090",
">. c #919190",
",. c #929190",
"<. c #939190",
"1. c #919291",
"2. c #939290",
"3. c #929291",
"4. c #949290",
"5. c #959493",
"6. c #939495",
"7. c #959595",
"8. c #969594",
"9. c gray59",
"0. c #949393",
"q. c #989796",
"w. c #989796",
"e. c #979897",
"r. c #999897",
"t. c #999897",
"y. c #979798",
"u. c #979998",
"i. c #98999A",
"p. c #9B9B9A",
"a. c #9C9C9B",
"s. c #9B9C9C",
"d. c #9B9D9D",
"f. c #9D9E9E",
"g. c #9E9F9F",
"h. c #9B9B9B",
"j. c #A09F9F",
"k. c #9FA09F",
"l. c #9D9FA0",
"z. c #9FA0A1",
"x. c #A2A4A5",
"c. c #A4A5A5",
"v. c #A3A3A4",
"b. c #A6A7A8",
"n. c #A6A8A8",
"m. c #ABAEAF",
"M. c #AAABAC",
/* pixels */
"; ; < : : 1 = & < ( , @ 8 } < : 1 A +.*.+.- 1 S 1 2 y s 1 y A q A 2 = , f.~ 2 ; ; : x 2 : : , < F A 1 2 1 1 y.0.1 = = 0., ; q < ",
"> < x 2 , } & 2 s & ; = + x T , * $ $ # # 3 *.*.x 2 } *.F 2 < & # : 4 1 1 : : < 8 s x * < < < < 2 1 < * : n B S < = , = & q ; ; ",
"y ; : 1 - 0 < = ; 1 ; : & % P 1 s J A s J J : y 2 y 8 n 2 2 y / k.k.m.} O & , & ( } * < y 8 y J q 1 A 1 , 1 2 Q , k i., < , : 1 ",
"} q , 1 ; 2 , < : q 2 < ~ 2 $ , e E 5.a.E : 1 1 2 n A 2 > 2 2 s *.f y , < 2 1 1 } * : j : ; - ; - ; < - , j 1 < * < o.< : < 8 - ",
": & : 1 , y & : q 1 : J 2 < + @ , < 8 8 : ~ f.+.&.x.p.2 < < 2 : & @ O O ; , @ q 2 = 2 , j S 2 q Q +.< 8 9 + * 1 ; < : $ 1 * ; , ",
": 1 2 ; ; : < ; ; s Q < ; C J ( < , ; & 8 p.} 7.` ` , ; 2 < & $ y } j 0.x q y A 2 ; ; ; } 0.( +.0.1 1 ` # J 0.f : , : $ = < $ , ",
"1 7.~ 1 * & * 2 & 1 8 : Q Q E q : q 7.( & + $ $ $ ; & , Q f.7.* & q S f.u.: < S < ; ; < 7.c.0.~ 1 < Q * ` ` - : , 2 2 q & - 1 * ",
": A A Q 2 = % & < * < P x q ; < 2 : : & 2 A S 0.7.< 1 x ; 1 z.` : = 1 u.~ : 2 &., ; < : j 7.5.~ - q < A E * 7.2 = * - - @ 1 2 , ",
"$ - - * 2 < : - @ ( 5.1 +.7.r.r.Q = $ * * &.f.f.7.< q r.y = j ~ 4 , 2 0.2 ; Q T , < < , 1 ( p.+.* j y 1 < d.v., j x 1 s +.s * 8 ",
"< 1 1 3 # > A $ 2 , - 8 2 < q x < ; < 1 $ & ( } ~ q y ( x & 2 1 , , 2 ~ j ; y ' 2 ; ; , +.5.} ; s s < < e / e * , J s ` =.- @ * ",
"r p.=.5.e $ ; s P & $ $ & - @ @ * $ : * ; - & y 0.2 , x , ; A y 1 1 q ` q ; q S 1 : < 2 $.( ; q F ; y * @ + O * ; * # @ = : e * ",
": ; # X : J Q J @ , ` +.*.5.Q Q ( ; : < * * @ 2 < * ; : ; ; q , 2 < 2 ~ x ; 1 ;.k = = < : @ 3 P @ e ; < a.*.A Q 8 1 1 < 1 ; A 2 ",
"- @ e ` A : < & < > ; : 1 8 < : ; 8 1 2 +.3 5.2 @ < i.p.0.1 $ x S : q y.S : q :.2 , 2 , j K 2 o y F = S d.S F < * , : 2 ~ = j } ",
"w.* 8 E * $ 2 2 *.+.+.=.+.p.+.3 1 ( ` S 3 E E @ + * } ;.A ~ : < 2 & +.i.2 ; 2 ' 2 1 ' ~ D C ; ( z.n & y / 8 Q 1 < 0.x 1 k & j f.",
"/ A 2 & : 2 j y & $ $ * # & * < ` q < < 1 ; $ x +.j , q 1 A :.1 $ & < x S ; ;.0.@ O X o ; 1 3 ( q q , = < < : : % ; @ & 1 * 1 n ",
"1 1 2 : j P p.2 $ : : - : ; : q p.~ & & & $ 1 5.5.x , ;.` &.0.2 ; ~ ; < ~ < q & = S 2 S C 2 x P 2 ` ` , 8 J A 8 1 8 2 Q 1 * F S ",
"1 ~ < - 8 ` & @ 3 1 j %.P 2 q P q S 1 1 s ( q 1 8 ; > Q 2 *.7.1 * E < A *.: O * 0.P q.' = j y A 8 y 0.y S p.0.Q z.d.} } j < J x ",
"*.e + < Q - : : * , < r.l.3 , y.P ( ( q ( Q E 1 ; * $ 2 1 2 d.1 8 *.1 2 < 8 1 5.0.q.8 - ~ } y A 2 2 q } j } j j v.0.j j 6.Q s J ",
"& : Q ~ & : 3 > $ * , : r.2 , } } +.0.x , Q p.; < P * @ 2 *./ 2 8 y s & * 2 J Q A < < y.} ' y u.0.2 y S ~ 7.j 0.f.( Q A ~ ` 1 @ ",
"; 2 z.: : 2 1 e , ; 2 , < 0 ( x J ( q : ; 1 2 1 ; & 8 ; , y 8 1.: O # < 2 1 2 * * ; ~ ;.x ~ A P 0.} 2 Q F 6.} Q 5.*.A P ( ` 1 * ",
"S 2 ' < , q ~ x : 8 x * 1 A } 7.6.f.< $ ; ; * : s * $ * 2 < q.1 : P Q ` 2 , j 6.q * + # $ @ - S A S P ' 0.( } , ` n.u./ } i.y < ",
"T < V , : < 0.} - , T 2 +.q y A ~ - $ s q 8 s & & 1 < Q j A : @ t.z.1.2 ; 1 6.1.1 * > < 1 < * - x } +.7.7.x q ( } S x ` &.p.2 q ",
"0.2 S = ; < A y ; +.; & y p.&.` : & y : ; * > 2 $ = 5.t.2 * : } ` Q 1 < ; & ~ &.: $ ~ d.n 6.A : q 2 y ~ 2 ( j S P $ O 2 z.f.2 ~ ",
":.< j ; * 2 x ; 5., O , 1 } n.} & 1 , , > < y 1 - 2 * . , A ~ p.7.7.1 & 1 & $ A : & 8 a./ 6.8 1 2 2 ~ 2 2 } y x < ; j , q u.< < ",
"q ; & @ 2 * ; w.: @ P 8 1 , ` F ; , 1 : 1 s 1 2 * 1 , 2 0.< o O O + % , : < $ & 1 : < ` j S < 1 2 ` < $ > 1 < , * ; Q 2 2 } 1 y ",
"~ P % $ @ , 5.< # 5.s < 2 4 Q j : , : ; < > : 1 - y 2 0.< @ ; , : 2 2 y < - 3 & @ < < 1 j Q : < j : y 7.Q ` f.&.A ; , n 2 ~ q j ",
"5.x < x.( 2 ; @ A S ; - F Q d.7.; ; 2 1 < 1 8 > Q q $ & * j *.1.*.d.7.} j > - 3 : $ , < : ; 2 J < , 5.0.` &.*.Q S / , ; & @ : , ",
"~ 1 , P q.1 ; x 1 1 q < 4 &.< O 1 ; : 7.+.p.1 q A $ = 1 : / F 4 y p.0.5.h.C ; - : & @ s E *./ s ; & # # Q 7.&.Q A *.d.< & $ 1 y ",
"x - @ & $ - T u.( } 7.s 1 f $ * # < 1 1 ; - 1 ' : < y 0.: 4 A Q T 0.0.0.x.p.~ , @ > J - $ & 2 > * 1 1 - @ 8 t.` A A f.` = q Q , ",
", ; < 3 s q < P ` x ~ Q < 1 = ` S $ * : s J ( : # 8 5.y * y / 5.l.0.0 x %.r.x.8.1 P 8 1 2 E : $ q < : < * O s t./ / 5.a.A 1 2 1 ",
"0.( < * 1 V q 0.A 0.} 8 7.*., &.` 2 , P Q +.: - 2 ; * : A k.t.*.i.;.P x 2 q +.0.A < J ` 7.s $ < > 1 3 : * * @ # # $ - * * * , 2 ",
"2 x.~ 8 +.1 1 0.} 0.E j 7.A , } S +.~ : * $ ; ` } 2 2 y F F J A E P , - @ $ , x ` : < e : & 3 ; 1 E =.< & : > 2 < < A s ; 2 1 & ",
"O 2 Q : : ; ; 2 y 1 S A P } 2 x } S 2 ; 0.x.j 0.x & 1 T ;.V ~ ~ q ~ : - 1 q F 0.n.7.; 2 ; : 1 : 1 ( +.2 * : A d.8.f.v.Q *.} : : ",
"2 O 1 ` < q , $ = n 2 x j.6.: } S S 2 = : 7.1.y % ; * 0.b.( ~ S P T ; 1 d.p.1 $ , ~ f.E : * 8 < & - * > 8 8 1 < e 2 - 8 Q J 1 , ",
"~ ` : $ @ * q 1 2 } t.v.n.x : 0.~ } A : * P 0.# ; < @ = x ~ ' ;.v.*.1 q v.2 & ; % , 5.c.S * & J =.E 8 q / 1 : s 1 < r y O @ $ 2 ",
"A q $ & & $ ; ~ n : ; : * % 2 ` ( P y ; 2 Q $ : P J : , 2 ' 6 ; : $ $ ~ 8 + y q < x : ~ c.Q * @ ; > ; - - < J J Q +.J $ : > $ & ",
"; ; q p.q.P # 1 y * $ : < < 1 : 1 - , 2 ` 2 : = 1 E $ 1 ~ 0.< @ x e & 2 & y 8 & A < # @ $ + ; Q 1 3 s -./ *.- X . O < 1 y 2 8 $ ",
"~ * x p.} Q Q 2 O ; x y u.} : y < , P @ $ & y q > < 8 q 2 :.2 ; *.q , ; 2 : # Q s $ 1 2 2 J < J J < A - @ * < 1.` } < 1 , y F * ",
"2 & y 0.P < < j , $ = 8 y } s s 8 J * & , & & ` *.` =.s y } x , * 1 < O $ 8 +.} @ +.k.< 8 P < ; ; : , 1 ` , e 5.c.0.; < x ` ; < ",
"q , j 0.} S < * 2 } $ ; g 1 $ < ` & > 5.s y Q y e < 8 w.A * * j $ & ; P S 2 8 ; 3 E & & # @ + , +.*.&.P 5.Q , 1.~ * 1 ` 7.- < } ",
", = 2 j y 0.j & @ s f.& * +.f.7.* , +.A J ` < ; ; < 1 , * , A 1 P 3 s J 2 , ; 2 1 & ; A 7.=.1 O , ~ 2 1 2 2 A s & ; 8 7.; 1 +.8 ",
"< ; 1 A ~ j 2 S * X s v.& * m.x $ ` Q 1 J - ; > > ; : > : 1 ` 2 s t.3 # & : 2 J : $ > ; ' 7.A > o : x : y F # & < P ` & < E s q ",
"< * q 0.0.6.0.} &.< X 8 f.& & < ; ; 8 A $ < P x 1 y y & 2 j : * # $ - 8 1 , 2 1 : j = ; * < 0.7.< O & y *.1 * < x 0.> 1 P j P y ",
"1 * * & * : ; ; : * & : 1 +.* @ , 2 x * 1 s +.7.*.p.8 q u.% # 2 3 2 A > ; 1 F e 1 5.Q , ; - P 8 2 : @ 1 1 ; ( < y > 1 ( x x } 0.",
"- f -.J y 1 s e 8 J f.( $ < 1 & : u.2 : ; $ - $ $ @ 3 E * ; s J E p.5.; > *.2 8 2 f J P 1 : % < y < , 1 * , < < ; < ` } 2 : < 1 ",
"< J s > , 1 < 1 < 8 3 * 2 : O < 1 2 y A +.J g 9 8 Q y $ * 1 S f.n.n.8 - *.- $ 1 y y A 0.p.q $ - p.< = z.7.= y Q E ( +.Q $ * < : ",
"y * $ : * ; ; ; * * ; * & : > Q j j 1 * 1 8 < < 8 A $ < Q : : J s - $ E : * 2 A S ` v.~ P 5.J @ , ; * y.k.y = y - # * $ 2 J ` J ",
"2 , 1 ) E e +.E ` Q f f & * 7.5.y , , & $ O @ - : : 1 8 > : ; ; - ; J ; * s < ; ~ m.f.s 2 A 7.1 ; - 0 :.E A ~ < - 1 < : & : q x ",
"} y ; , 5.1 e p.7.q.+.Q & x , * & = A +.} Q 1.7.p.1 y p.v.f.f.p.~ 0.< & 8 8 : $ ; < = 1 ` 2 , 1 ( r.P ; : 2 , : 3 > , : % @ s x ",
"} = * , P +.( +.p.i.7.> s x @ $ & , * : 7.v.*.2 A A S 1 0.:.} } 2 2 : < , } : : j n j 1 A 7.&.1 & , > ; 8 1 - < 1 : y ; - - $ 3 ",
"$ & 2 * $ ; > & * * - s A # > ` p.j : % q 0.j Q 2 j v.1 1 ` / *.7.x : , 2 1., < 6.f.7.Q Q y Q = $ q 2 a.+.@ , , & 3 8 ` 1 - ; & ",
"= % ; q 9 1 ; < < ; A x # 8 < 7.b.q < ( # & *.7.` * ; ; * * = : > < < 1 : *.: < ~ x A ` : $ = A 5.+., , ; , $ < : & ; 8 +.; @ & ",
"f.q @ x l.7.7.7.` v.` @ s } : x f.1 , x.0., y 2 : = ; < q 2 1 : y 2 = ; : $ ; < j 0.0.= - ( 1 : 8 ; < : 2 2 ; $ < ; * : ~ a., < ",
"n.8 < ~ 7.0.5.S A J $ 8 Q ~ : q P 2 5.+.A S 1 ; y 0.5.a.*.p.5.5.f.y 2 S * : & 8 ~ 7.P * Q x & * & ; P x ; ~ P * @ < - ; < ;.' T ",
"p.< = 1 p.c.` y 1 & > 3 1 < < ` S ~ ~ y 2 1.1 , < * * & : - * ; & & < 7.q 1 C E } q., y F * < Q J +., , 2 j T ; 1 2 ; 2 < V ( j ",
"y ; : S } ; * 1 , y =.+.w.+.+.} p.y.1 A ~ Q 2 1 & : , : ; : - ; ; : $ , j.x q 1 < } P j S < 2 Q ( P , , ; q 0., 2 0 = < , x 2 1 ",
"v., , 0.; * ~ 1 < : : , ; , : x k.A A *.~ ` 2 , : A 2 s s 2 q s P J ; # # - - 1 y * q 2 < : A f.l.i., - : 0.M.< : S ; , , 1 2 ^ ",
"> ; 0.* $ 7.S : < } } j 8 y y q 0.1.` 7.1.Q y < = * > - : & : ; - - & ; 1 J : < s S < ; < ; A 0.+.( ; , 2 r.l.> ; 2 : , < 2 1 l ",
"> E < * 0.8 : j , 7.v.x :.' 1 y 1 < : ; * * < 2 1 * - 1 < Q ( P Q 2 ; A 5.- 8 ` ; : 1 , y 1 : 8 q x ( < @ 2 ( * : P , , j ;.3 * ",
"+.1 O 7.0.: x 1 1 } } A S i.' * $ : - - : < # , 2 1 * & 2 *.( 5.` x S 7.< < +.< % O * 2 x p.` , ;.i.f.%., @ * ; ' P = = & ; > W ",
"; 1 0.5.; < q q , 8 1 2 < 2 A : q A f s P x 1 1 > # 1 & * +.` Q J E =.: > E : ; q x 2 2 P P +.1 < ' v.c.%.8 P +.v., 3 q.+.) $.; ",
"+.; P , y x < ~ 2 ; , & ; < : < 2 : < < 1 : : j < 1 # < - & - * - $ * J 5.: 2 1 2 2 q y } ~ ~ ~ 8 : P p.b.W 3 * O * 1 ; - < 3 C ",
"; $ @ @ < S , q.~ - P ( ;.0., ; 2 2 2 < 2 1 ; j * 1.S @ < 8 1 x J J J Q : A S * < ( x 2 ~ ' S ' ~ < ; q W C 3 - ; 3 ; @ - 3 * : ",
"; P +.x + = q } 1 + % x x ~ 2 = 1 2 ; $ ; , 2 j < 7.M.` < E P J E +.8 = A 7.~ * S :.2 2 q x ( S Q } q - - D h.3 P W - j x.8 & & "
};
