/* XPM */
static char *a39a08dd6deb4fcfb3fb8708c5e8964fAj8BKKuv0sVhJzWP[] = {
/* columns rows colors chars-per-pixel */
"64 64 48 1 ",
"  c black",
". c #554F49",
"X c #56504B",
"o c #5A544E",
"O c #5C5651",
"+ c #5E5953",
"@ c #615B56",
"# c #635E59",
"$ c #66615C",
"% c #68635E",
"& c #666360",
"* c #6B6662",
"= c #6E6965",
"- c #6F6B68",
"; c #706B67",
": c #726E6A",
"> c #75716E",
", c #78736F",
"< c #767371",
"1 c #797673",
"2 c #7C7976",
"3 c #7E7B79",
"4 c #817E7C",
"5 c #83817E",
"6 c #858482",
"7 c #898684",
"8 c #8A8887",
"9 c #8D8C8A",
"0 c #908F8D",
"q c #8F908F",
"w c #91908F",
"e c #908F90",
"r c #8F9090",
"t c #949393",
"y c #989796",
"u c #979897",
"i c #999897",
"p c #979798",
"a c #979998",
"s c #9B9B9B",
"d c #A09F9F",
"f c #9FA09F",
"g c #9D9FA0",
"h c #9FA0A1",
"j c #A3A3A4",
"k c #A6A7A8",
"l c #A6A8A8",
"z c #AAACAC",
/* pixels */
"::1>>2-=19<#491<450ww:272444156564=<f84->>62>>>2853322pr2:-t<:51",
",163<9*24*:=@67<%;%##4w0530w832%$>422>>2365;2111321=:6671-<-*3::",
"4::3-61-:2>>**71557557,545453359sfzq+*>*99=<53574353<237<3s<1<<3",
"96>2:2<1>43183&<48ys0:323654>335t55<23<39*>6>:;:;:1;<531-1r1<13;",
">=-2<6*<43,731@#>144>8s09js3113>=#++->#53-3<67347w,44#;3:2<%1*:<",
":23>-><:;572>66911:*4s9i90<:31*%4q6r65563-<:9t80w320$7t5,<:#;3%<",
"3t82=*=3*24:7984>4t9=@&%%:%<8si=*47sp>171-><tkt93,8=89;><244&:2*",
">6783:%*2;1763:23<>*367tt226:2h9<:2p8>3r>><>6tt8=4268;t3;;::@33<",
"%;;=31:;@9t2etii8:%=*9shp15i4-683<3r3:88<1<<37s9=6332sj<564405*4",
",144$,7*3<;44<44,:13**9984586*32<<495-493>:<et9>5511494-<749w;@;",
"5itt4%;57**%*;#%=*,=:;*4t2<6<:6531495<373:<3e9:37;5=#@+*:*%#::5;",
",:$o:787@<900t888:>>==#31--<::4<31296:2t5:-1,#37#5:1sw68424<2:64",
";#506>1*,2::442:;3330403#3spt3%67:3p7>3r3<3<673O58=8s781*<>37-59",
"t;48=%33000t0y044997280#@*9e69>13*qa2>38339966:9f6*394821t626*6s",
"954%,345*%**#*;195232:#7e5<416t2&&166-rt#+oX>14955>-11<>&:#*2-26",
"333>68s3%>:;,,:4i8%*%%2tt6<t90e3<8><9<6=-6386178399<476433272-86",
"282;39=#52607358382440424:<840i1=816w>+=r8p9-54735r67pr8hsr95177",
"w3@17;,:*<1ig4<p78948883:*&414s24w23233ttt5-9867433q5r66jr55r857",
"*:88=>4,%*1:i3<99ee6<8i:27;@3e03455*=388711pr95ty3668t6th986991#",
":4j>>315<:3<1586795,:132:*4;>44t,o%<322==>8e5877t9388t98tt68992=",
"6391>486>36-369ptd<*::;>4;%;31i3>7894<5t3=+$%#=76689r99<9la99s41",
"816<>1t9;18393669;%4444*&32857:#sht4-2tt2->231*:69rtt6599769rp44",
"r36->166:0:*5sr9:*4<;;14&;ts3=:998<1:*8q>&9s6t7:436839568$+3hf39",
"r26:*26:t>+<39l9*3<1<142:3*.<69syt3*3*$8>*3s9t4233833q55<-6<4p1<",
"4:*%3=:t,%742196;<1<2531=2>3t1++++*>>2%*3:195612392$,22>->833914",
"88&#@<t2$t413386>1<:,,>3;54t1#:<>3351=3*#11367>15>5u89sq6:<63946",
"t71j93:#67:;78st::13224,74%*-4t  st  , 4,$1,>:381<tw9wq879>:*#<<",
"81<8p2:61341592+3:>iwi246%:2>8  6s  s  ;>*#48w85:*$$8uq86qa2*&16",
"6-%*%;8p99t626&=#<31:=39>15q>  88t  j  1#,7;*%4,=32=$5i977sq-49<",
"<:146317968811-97%=>579>%4y5   tgt469  t384238>%41>1*+5i88tf7131",
"r91*363t6t03tr<q93<889>;3:   ssws076  0t5179y5%,,24>==+$$$=*-=13",
"3j85013t9t86t819798>=*:99   776687<   <69>15>%4>,8w2*>24>265:33*",
"+38><:>361766q35983-th6t6        8   67elt:3>>2>3903=,5sysf9ww>>",
"3+2913<%-635dt>9773->yt5*        8   s3&<8s8>=41*=*>543233:5953,",
"99>%#=3239ujl6>t896<*8t$:1# 789  t     :$1yj7=*7085482>53,55@$$3",
"65$*=$:96>>>=$49975:38$>77<<394  *%84#4516>8j8=#:,>;:1677w5%:,%%",
":-5pu8#25=$<113>1:<393>:27%38t1  5=3*54*71#@%@:84,5w00;oX+>2544$",
"8=7sw883+=65u9>4<<7$$*54,1443r3-04>-3>$85%333717545=#=1w9q12,56;",
"3*5t6<25<$=4505538**1**9t9054e6<=31+%409#0d2471:>>>39>5tjy>,59:1",
"4<6r98<=3t$:52%,9*<t5485414y7**6%*:7744:48%*$#@<0w08y7<t9*20t;29",
"1-365r6*#5s==0dy=1w570,>;21,;>7274573<;31*:6tt1+<8323375*>4y:295",
"2-278537=o5j*=z6%9827;;>,:,>:3945t4$*>47>*,:9p7>O>6>57$%,69%,954",
"1=5rrtr9w1o5s%*1:-56$>77355*35>*$$;43<42>6-:*<tt2+*5w3=16w127575",
"2==*:<:>>;%>30=#<36=350yws45s&#4447,:1641t7<<;743>+33;9>5>3956ww",
":5w5535447s9%>3*>i4>:%;%%#48::588it>,04446773>*151>2*121>19w3>12",
"185,>222,54=3>+<23559754494%=17skz4;0;%2456ti4#;u2=hu-488808%=,>",
"5;$:=;:;=;:;*>>7554=24,446%18>>74;%7>;4779j97t7#>>-pf5;5;$=%4798",
"3,3895089856*=yy5<,%$@@;>:24,>::;;7>*5,:8zs637t3:=698681=2,>*>46",
"q4>>t34iit07=5<=*-7998tts23sjsss8t1*44>%-<-293129i7:>4>>4,<,&#56",
"0==<708wssy,55#%&<->tjw36673ttr933<<19>>66636uq2*<,:33;13>5;;;#4",
"$*3=%:>**==57$,9s6>&5t6826j2199qt6><3t<1tst8758-%43s9#<<%4492;:*",
"=*:442:33;75#41yl419$=qt9=>-=;=>>113:w<18769>$-6t8,2:<%1>*:4e:@;",
"s5+7httt0j9@59:6s11jt<35>-:1442>53;::*:<5rt--82>5:1>33:%<>=>9s,1",
"z418ttt757%489>583tq682-5ttswsyws637->*49t8=76*=*:76:87=#1->1098",
"s1=2sl953*,4212988943r211==*::=>**2t52789p<67-1870><368:13:11786",
"5:>7r-=215t0t099pp278832*><>:>=::>%<s6421975713897<<:4t<36-1<631",
"j<<t:*83,,<>:<>5s67w893<:545444577:$$;;34-432<7sgp>;>tz1>6><<139",
">:t-%p7-19954664t00tt74<:;>;,;::=;*:35>1461-<-7t09:13id<-3:<1316",
",91=t4>6>yj6r92432::=:133=;2178883:6t;49:<3<62:44582#38;<7<<5e5-",
"03+tt>6239967s8=*::;:1%<33=%4w0w957u2,01&+-36s9<ess0<#*,97--*:>7",
"=3tt:136<333236>46647621>#3%*00778w>,8,:363387e219dk047ed<4y08e:",
"9:7,37193-<*:<>13<121:<613#2:*;;;%;7w>33334598884<8sk84*@;1>;246",
":%##17<t9:78rt<:334133:4*w7#,4455878>66=196399698<:3764;:4>@;4*,",
":7w5+-692@&5783-14;%:<361iz9,975904:6t8=8r3335978e5:;7p479;5j4**"
};
