/* XPM */
static char *_a12135299da4969b197f0c462f4014dfJmYbpAA2bF6C8l2[] = {
/* columns rows colors chars-per-pixel */
"64 64 232 2 ",
"   c black",
".  c #010101",
"X  c #020202",
"o  c #090808",
"O  c #0A0A09",
"+  c gray4",
"@  c #0B0B0A",
"#  c #0C0C0B",
"$  c #0D0C0C",
"%  c #0D0D0C",
"&  c #0E0D0D",
"*  c #100E0E",
"=  c #110F0F",
"-  c #121111",
";  c #131211",
":  c #131212",
">  c #141413",
",  c #151413",
"<  c #151514",
"1  c #161514",
"2  c #171514",
"3  c #171615",
"4  c #171715",
"5  c #181615",
"6  c #181816",
"7  c #1A1817",
"8  c #1B1818",
"9  c #1C1C1A",
"0  c #1D1C1A",
"q  c #1E1D1B",
"w  c #1F1F1D",
"e  c #201E1D",
"r  c #211F1E",
"t  c #21201F",
"y  c #22201F",
"u  c #22211F",
"i  c #23211F",
"p  c #242221",
"a  c #262422",
"s  c #262623",
"d  c #272623",
"f  c #282624",
"g  c #2A2826",
"h  c #2A2927",
"j  c #2B2927",
"k  c #2A2928",
"l  c #2B2A28",
"z  c #2C2A28",
"x  c #2D2A29",
"c  c #2C2B29",
"v  c #2D2B29",
"b  c #2D2B2A",
"n  c #2D2C2A",
"m  c #2E2C2B",
"M  c #2F2D2B",
"N  c #2E2D2C",
"B  c #2F2D2C",
"V  c #302E2C",
"C  c #312E2C",
"Z  c #302E2D",
"A  c #312F2D",
"S  c #322F2D",
"D  c #312F2E",
"F  c #32302E",
"G  c #33302E",
"H  c #33312E",
"J  c #34322F",
"K  c #353330",
"L  c #353331",
"P  c #353432",
"I  c #363432",
"U  c #363533",
"Y  c #373533",
"T  c #373633",
"R  c #373634",
"E  c #383634",
"W  c #383734",
"Q  c #393735",
"!  c #393835",
"~  c #3A3836",
"^  c #3A3936",
"/  c #3B3937",
"(  c #3C3A38",
")  c #3D3B39",
"_  c #3E3C39",
"`  c #3E3C3A",
"'  c #3F3D3A",
"]  c #3F3D3B",
"[  c #403D3A",
"{  c #403E3B",
"}  c #413E3B",
"|  c #413F3C",
" . c #423F3C",
".. c #423F3D",
"X. c #42403C",
"o. c #42403D",
"O. c #43403D",
"+. c #43413D",
"@. c #43413E",
"#. c #43413F",
"$. c #44423E",
"%. c #44423F",
"&. c #45433F",
"*. c #444240",
"=. c #454341",
"-. c #464341",
";. c #454441",
":. c #464441",
">. c #464442",
",. c #464542",
"<. c #474542",
"1. c #474643",
"2. c #484543",
"3. c #484643",
"4. c #484644",
"5. c #494644",
"6. c #494845",
"7. c #4A4846",
"8. c #4A4946",
"9. c #4B4946",
"0. c #4C4A47",
"q. c #4D4A48",
"w. c #4C4B48",
"e. c #4D4B48",
"r. c #4D4C48",
"t. c #4D4C49",
"y. c #4E4C49",
"u. c #4E4D49",
"i. c #4F4D4A",
"p. c #504E4B",
"a. c #504E4C",
"s. c #504F4C",
"d. c #514F4D",
"f. c #51504D",
"g. c #53504E",
"h. c #53524E",
"j. c #54514E",
"k. c #54514F",
"l. c #54534F",
"z. c #555350",
"x. c #565450",
"c. c #565451",
"v. c #575552",
"b. c #575653",
"n. c #585653",
"m. c #585753",
"M. c #585754",
"N. c #595755",
"B. c #595854",
"V. c #5A5855",
"C. c #5A5856",
"Z. c #5B5956",
"A. c #5B5957",
"S. c #5C5A57",
"D. c #5C5A58",
"F. c #5D5B58",
"G. c #5E5C59",
"H. c #5E5C5A",
"J. c #5F5D5A",
"K. c #5F5D5B",
"L. c #605E5C",
"P. c #615F5D",
"I. c #61605D",
"U. c #62615E",
"Y. c #63615F",
"T. c #646260",
"R. c #656260",
"E. c #656361",
"W. c #656461",
"Q. c #666562",
"!. c #676563",
"~. c #686664",
"^. c #696765",
"/. c #696865",
"(. c #6A6866",
"). c #6C6866",
"_. c #6D6967",
"`. c #6D6A68",
"'. c #6D6C68",
"]. c #6E6D69",
"[. c #6E6D6A",
"{. c #6F6E6D",
"}. c #706E6D",
"|. c #706F6D",
" X c #71706E",
".X c #73706E",
"XX c #747370",
"oX c #757370",
"OX c #767471",
"+X c #757472",
"@X c #767573",
"#X c #777573",
"$X c #777674",
"%X c #797775",
"&X c #797776",
"*X c #7A7977",
"=X c #7C7A79",
"-X c #7C7B79",
";X c #7D7C7A",
":X c #7E7D7C",
">X c #807F7E",
",X c #81807E",
"<X c #81807F",
"1X c #83817F",
"2X c #828180",
"3X c #838280",
"4X c #838281",
"5X c #838381",
"6X c #848280",
"7X c #848281",
"8X c #848382",
"9X c #848482",
"0X c #858483",
"qX c #868584",
"wX c #878684",
"eX c #878786",
"rX c #888786",
"tX c #888887",
"yX c #898887",
"uX c #8A8988",
"iX c #8A8A88",
"pX c #8A8A89",
"aX c #8B8B89",
"sX c #8B8B8A",
"dX c #8C8B8B",
"fX c #8C8C8B",
"gX c #8D8C8B",
"hX c #8D8C8C",
"jX c #8D8D8C",
"kX c #8E8D8D",
"lX c #8F8F8E",
"zX c gray57",
/* pixels */
"P P E E / +.3.+.+.' &. .(  .} D.' 7.+.z 7.&.} &.P P i./ D.z ( l.z z B F  .N / / / P P / D.&.D ( i.' C.>./ X.+.P } / Y ( E Y ( E ",
"p.i.l.l.M.G.C.D.C.M.l.p.f.G.l.0X' l.0.X +.&.r.i.+.i.+.' M.z 5.=.E D $ I *.z I / +.&.+.i.d.7.B &.c.< f.P ' 3.m.l.3.f.i.M.p.p.y.l.",
"} / } } &.+.>.>.D.c.C.d.d.L.D.L./ l.7.X / P C.f.+.W T.W i.z } ( 5.=.' 5.i.B +.M.&.&.7.p.+.R D +.7.< Q.3.G.f.X.W } } &.&.( E } E ",
"} &.>.p.c.M.l.C.f.l.f.l.P Z.c.Q.i.>./ X =.>.7.7.&. X7.3.i.z +.R 5.E ( +.*.B i.G.m.&.G.=.>.>.J l.G.X /.p.f.m.7.i.m.C.Z.m.d.>.l.d.",
"I / ( ( ( L.' } &.l.l.f.>.&.^.D.D X 1 Y C.' >.Z.G.G.Q.&.m.z ( P &.P P / +.B c.>.&.f.M.>.7.&.&.=.&.I L.d.l.m.m.C.7.>.m.>.P p.&./ ",
"F E ( p.}  .>.C.&.l.f.>.&.&.Y.yXF P F ' 7.C.' G.[.0. X&.X p / / } } P 5.W B s.P / +.}.7.&.>.I T.L.I.0.>.7.C.Z.7.M.&.&./ &.E E I ",
"( &.>.&.>.l.=.z.d.L.l...0.&.l.Y.i.m.G.G.7.>.G.l.l.3.7.> w &.+.&.7.+.R +.B ] B i.>.dXG.+.m.>.m.Z.L.j T.7.l.I.Q.F.+.C.d.i.E 5./ &.",
"E P ( E } 3.>.3.=.&.f.m.=.l.G.0.P f.c.f.7.l.>.+.&.P q u } 5.5.&.>.d.+.+.;.w. .D M.+.f.3.p.7.0.0.i.+._.G.G.I.L.>.i.>.( E `.&.( D ",
"Y Y =.p.L.=.L.Y.z.=.l.&.L.^.Y.7.6 P G.Y.p.i.zX:X*X/ / i.>./ &.+.>.C.&.' } i.&.B F aXuXOX+.+.=.l.J >.7.G._.Q.I.7.l.7./ s.5XW s.3X",
"3.3.d.d.l.=.m.D.y. .d.D [.;Xm.I.5.P E F.3.f./ ' / +.c 7./ >.7.' 3.;X>.} P C.+.C.F D P P L.( i.F i.f.i.T.Z.I.6.&.7.C.( m.m.;.>.w.",
"&.E p.} l.} l.l.5.&.2.3.p.3.3.{.C.w F P Z.r.} G.w.l.l.>.$.} / / +.i.} +.c.>.>.&.X.i.3.[.`.d.D z N >.C./.lX7.i.>.f.c.' 7.P F w.w.",
"&.D.3.p.d.} l.m.=.=.k f m.>.&XI.r F f.j / / / X.' ' +.X./ _ / W P P D D D B F F D D J J D R P y.&.u f.G.Y i.I.&.G.&.W 7.R K P i.",
"p.&.>.f.3./ d.c.R i.3.i.l.C.OX0 F f.7.f.T.tXuXK.I.I.!.i.i.I.G.F.Z.Q.Z.[.|.I.f.m.3.Y.7.Q.G.Z.+.+.&.P j 7.C.6.C.W i.7./ 7.&.R =.7.",
"Y Y Y / ' } &.=.>.c.f.l.^.&XM.D G.7.f.f.f.M. .f.l.G./.+.+.' f.>.D.m.&.>.B ' &.C.7.} / D ( >.5.+.&.i.P u >.f.0X3./ } G.i.+.+.i.( ",
"P / E } >.&.7.+.>.m. X}.[.OXE 5.7.1.c.C.C.f.] A.c.[.>.+.>./ &.>.L.j / / B &.&.l.C.} &.D ( ' ( E / X./ F s +.7.+.>.' F E / P P / ",
"&.l.>.G.f.&.f./.1XF..X*X&X/ 5.f.7.7.f.C.w.i.K.w.s.2.i.i.r.J.X.W >.7./ j C.+.&.5.7.>.3.r.3.>.l.' >.6.F +.+.s ' i.F 7.M.F &.d P +.",
"0.l.z.l.p.d.Z.uX3X*X.X1X} >.i.i.G.d.f.c.y.C./.*X~.Y._.$X.XaX7.r.i.[.3XT.}.3X*X`.uX Xi.&.G.>./ >.G./ 0.+.D S D / / D.} &.} ( &.+.",
" .$ / X X E + $ z &X:X' 5.0XL.f.c.7.>.7.7.L.&X&.7.C.L.3.i.i.m.X.=.&.>.} &.&.i.7.Q.uX7.&.=.E ' z.X./ X.i.3.=.S } D z + } D + X X ",
"p.m.l.M.m.l.^.k j N &.r.3X5.d./.z.c.p.>.>.Y.}.7.I.I.f.z.l.7.>.P / >.} p.f.rX3X3X5.tXi.f.' +.( E >.P &.+.&.&.L.D Y m.3.0.f.y.0.i.",
"z 0.} ( / E ( 8XN D z Q./.C.i.f.M.f.D.i.L.F.>.C.( G.G.c.>.>.f.X.&.i.( L.c.G./.Q.T.Q.rXC.f.&.&.3.m./ +._ 3.rXP j } ( &.Y 5.+.+.} ",
">.i.+.G.!.M.C.8X1X XF ' G.G.c.+.+.&.2.+.c.i.c.F.&.I.3.G.c.+.&./ 0.>.' f./ f.r./ K.M.l.0X[.Z.d.l.&.&.E P F D Q.D +./ 1X^.f.+.' D ",
"l.P i.>.y.m.y.).~.-X;XD N l.C.[.+.>. .K.3.7.&.I.+.I.7.p.7.&.d.+.' &./ C./ Z.&.T.Q.l.+.y.l./ f.=.B D D B J E ' m.P &.&.l.F F P +.",
"&.+.7.&.A.>Xy.d.9 N N D D G.&.f.&.+.+. XD.+.i.Q.&.m.L.5.&.+.l.&.>.3.( G.D.L.>.Z.+.=.d.z.p./ &.D / ' +./ +.Y E ^.3.c.3./ Y &./ +.",
"y.c.Q.c.D.y.C.I N 7.&.D z N B B B D F l.G.$X+.G.>.!.L.OX=.!.p.+.l.^.+.C.}.^.>.[.7.7.yXd.1 * C / >.f./ R / p.0.>.# d.f.+.} F 7.E ",
"f.f.m.d.C.i.|.N N +.+./ ' +.+./ ( >.i.P C.rX[.Z.C.&.+./ p.^.c.+.&.C.>.+.f.&.i.+.l.d.&.D N N D D N D C D J J p.>.D } p.I d +.( i.",
"/ i.i.&.i.P _.N N N G.' l.[.!.M.A.Q.+.s.P l.F.>.L.>.>.d.I.C.&.Y +.G.+.} G.7.7.f.p.J r D i.} &./ +.f.3.L.m.l.P ' D 0.i.C D I P Y ",
"R 2.+.( W i.f.7.W B B f.P s.l.i.m.7.G.7.f.F c.>.G.&.G.K.m.C.>.X X G.>.X X +.X +./ E D =.J Y +.l./ 3.3.P / Y &.l.J 3.3.=.&.i.&.P ",
"R ( P y.i.7.+.' / f.F B w.w.+.c.F.>.r.G.7.D R G.>.&.3.7.} >.X X i.+.X X >.X X E &.D p.J N D Z.Y X.p.X./ } &.F / D p.l.} +.+.i./ ",
"} E / i.C.m.7.c.+.X.B D + *.$ / tXF.1XQ.+.j / -XC.C.i.C.f.X X i.c.+.X X &.X X i.&.d.P f.Y F X.D +.m.E / / c.I Z.F } +.R P p.i.&.",
"/ +.f.l.l.&.i.7.>.i.D f.>.+.>.+.G.i.1XX.f.< E u q 7.y.7.X X X &.>.>.+.f.>.X X +.( / / Y N &.>.f.&.&.&.P >.i.f.N D / } 5.+.i.i.P ",
"P ' m.yXQ.l.m.l.f.C.B +.=.i./ / m.f. X>.+.&.+.7./ f.X X X E D F F B B B X X E D C C C / &.6 ( {.3.d.+./ &.Z.( 3.I 7.&.A.D./.l./ ",
"/ >.0X0X:XQ.1XC.>.T.D 5.i.s.$ / f.l.Q.f.i.F f.&.R X X X q # $ X 5. .I X X X 6 - 6 + X @ C.6 +.d.&.D ' Y } f ( Y F Y } +.} i.&./ ",
"/ &.yXrXrX^.[.M.d.l.D +.&.m.O >.c.p.0Xp.l.D >.3.I X X X X X X X X B X X X 1 # + X - X X 7.- / z.7.>.+.( ( F G.I J Y } p.' } 3.&.",
"P } 1XuX1X.X8Xy.C.l.D &.+.7.d +.0.Z./.+.i.l.P p.F X X X X X X X X D X X X N X X $ + F ' ' < d.z.+.P 5.>.P f.&.} D / +.7.&.+.} / ",
"+.' `.0XT..X XL.p.0.D p.7.f.F c.&.Z.L.|.3.r D >.d j 3.X } >.&.X X 3.X X X X X 3.&.>.>.&.i.5.>.+./ R >.5.Y C.C.&.C 7.r./ 5.&.E } ",
"7.+.+.T.M.rX/.[.3.i.D F } 3.> C.&.f.>.rX7.F J [.f.c.p.l.l.f.M.X X D.f.C.d.M.l.Z.C.Q.G.' w.+.f.( 3.+.K.7.C.Q.f.c.N # &.+./  .+.y.",
"( } ' C.^.3X8XM.3.$XD D 7./.7.G.( E p.8X+.N D i.=.+.&./ X./ / X X } ' r.&.7.3.>.M.K {.>.7.i.f.+./ F z.P E / ( 7.B 7.i./ } *.' ] ",
"' P / / i.0.*Xj N D J l.i.Q.m.&.0.^.L.&.} D &.>.l.&.G.c.C././.>.+.yX+.C.8Xc.7.7.i.z.B G.7.3.&.7.P J 3.&.} / P i.c +.+.i.' +.} *.",
"' d.+.C.>.p.OXY ' D C.i.C.G.l.Y >.0.7.L.D p.G.M.G.( T.w.5XG.K.2.+.8X&.>.[.m.7. XuXf.X F 5XG.i.>.&.P ( +.P &.( } B P i.c.m.i.R C.",
"f.c.Q.0XyXL..XE Y i.5.&.' +.+.l.&.&.m.P +.0XOX3.y.C.d.=.$.[.i.*.d.[.7.Z.0.3.3.3.c.0Xf.D F F F F D J D D D D p.i.B 6./ c.i.C.i.f.",
"( {.C.7.m.uX0X/ W {.K.B P F I P E D F 5.G.3XG.G.i.M.G.yXG.G.I.i.d.lXc. XL.0Xl.yXG.i.0XG.X # F P / E } &.J l.E D P ;.f.r.i.i.s.>.",
"7./.l.>.0XG.G.[.i./ P P P T.( ' >.' +.0X!.z.L.0Xi.i.sX Xz.f.C.G.f.D.m.&X0XL.3. X5.i.tXuX0XG.i.B Y ( } P  .7.+.i.i.>.C.i.X.l.G.C.",
"l.i.C.C.f.s.w..X3XeX:XP &.G.G.&.&.&.&.lXc.C.M.OXA.T.l.>.s.+.f.7.c.G.7.( i._.d.`._.5.l.l.F.&.m.&.P F I N D j ^.D.<Xf.i.w.C.l.f.C.",
"f.[.d.0XQ.sX.X[.uX0X' i.C.f.} 0.&.p.d.G. Xf.C.[.M.G.7.G.i.i.7.f.+.7.7.I.y.D.5.i.0X>.>.G.*Xm.1.C.f.>.&./ D B  X^.l./.C.m.[.G.l.m.",
"l.l.G.7.G.l.7.`.E ' ' z.E +./ G.c. X=.3X}.}.m.0X[.I.G.7.>.( I.7.7.i.3.G.lXG.3X/./.f./.I.C.>.C.>.G.d.&.} &.i.B r f.} 5.G.f.l.p.f.",
"}.}./.8X X$XOX' &.l.i.c.[.0.i.d 7./ / i.0.8X0Xf.1X0XT.5.&.5.+.3.f.+.7.I.0X0X3XI.i.I.7.G.m.&.&.&.5.p.z.y.7.f.l.B p ^.M.[. X/.}.}.",
"z j E 3.I E ' 5.>.l.}.>.d.I.C.l./ Q.i.P i.1X0Xl.C.i.f.P i.>.7.>.f.>.f.i.p.i.i.>.i.*X7.F.D.7.i.sX5.p.l.8X7.T.D } z j p D j r P j ",
"z.z.C.^.Y.I.T.I.L.:X0X[.C.7.Q.D.J f.A./ M._.0XY.0XyX/.i./. X&.p.&.f._.D.0X8X{.tXtXlXi.s.G.C./.G.uXd.uXy.0.B f.5.l.l.l.l.d.l.l.C.",
"T._.yXyXjXlX0X0XOXlXlX3X3X5.2.C.=.Z.F E >.i.uXi.i.i.6.f.+.l./ 5.} &.0.i.G.r.7.7.d.y.y.0XI.c.l.D.>.uX0.i.&., m.=X=XY.l.T.M.C.rXY.",
"7.>.i.G.f.i.z.T.z.I.{.uXtX3XA.L.l.p C.p.f.i.B y.i.C.Z.X.+.D 7.+.m.sXi.&.B 7.7.I. Xz.i.I z.c.D.d.i.i.7.+.l.0.rXM.l.&.&.i.p.( 0.} ",
"z.G.0XG.z.A.M.f.C.L.!.!.yXlX`.E  Xl.y.d.i.y.B 0.p.m.f.} +.D =.+.p.r.7.&.B >.i.G.}.5.y.I z.p.M.l.c.f./ i.m.rXm.m.p.d.p.d.&.d.3...",
"3XtXyXtXlX7.OX3XD.G.[.Q.T.lXD. .F M.7.y.[./.{.[. X X[.tXaX0X_.1XtXyXm. X[. X*X`.[.[.}.}.OX^.f.d.G.7.C.m.iXL.~.F.OXrX/ ^.p.p.m.d.",
"y.M.uX9XsX5.jX{.G.I.G.G.lXM.OXd.( F D.w J D D D D D D B D B D D N D N D B B D B D D D B F B  .d.C.u l.0XY.C.~.L.OXZ.&.M.p.0.0.p.",
"i.:X3XuX+X>.sXlXD.K.f.i.K.T.I.eXd./ D D 7.+.D m.I.5.d.5.=.=.5.=.3.' 7.7.>.6.5.7.f.7.C.}.G.>.F p S.7.l. XY.m.L.m.c.l.X.z.p.l.f.7.",
"2.T.c.(.0X2.0X`.D.0XuXC.uXdXD.3XD.6 B =.} &.D B D D I +.3.M.y.f.p.C.f.C.D.1.>.7.B B D F 0Xl.p.R i.f.7.[.rXm.m.+.7.G./ l.i.C.c.i.",
"7.w.I.K.G.>./.uXc.G.C.K.eX3X:XL.w D +.+.} &.c.f.I.P B &.l.l.d.&.&./ 3.' &.$.>.X B 1X1XC.i.i.7.f.F &.C.Q.f.L.Z.0.C.C.m.Q.C.l.i.c.",
"' } =.C.i.>.Z.c.z.G.G.C.OX X^.Q.B +.] R =.C.>.D.M.&.j j } 3.&.>.&.X.+.>.C.>.7.N &.m.p.d.T.p.d.5.3.D L.Q./ C.d.&.&.p./ l.0.i.i.+.",
"i.d.0.f.c.Q.G.5X-XOXG.C.F.' ^.I. .Q.{.T.w.>.C.[.m.D +.u d +.+./ &.+.+.i.&.0.D l.l.Q.^.&.&.} A.^.l.5 m.&.C.3.f.( C.Z.^.d.f.z.C.7.",
"F D K +.X./ &.;X>.G.K.C.l.>.[..XB B B B f.3.p.3X[.3.T.} J < / &.} / ( Y / N r.i.} &.M./ y.7.B Q.l.L.+.3.l.&.&.P f.} &.' >.Y P P ",
"+.+.' i.&.D.+.p.f.Z.D.C.l.7.*X Xm ' ] z p.=.l.rX1XZ.i.f.p.z P W P ( / &.+.C F &.&.d.Z./ I =.B ( E N C.7.=.' } +.' +.p.&.&.X.} &.",
"d.f.f.i.l.C.C.m.z.C.C.f.C.>.0XyX&.+. .X =.&.Y.yX5.G.Z.i.G.z W } X.} } 3.i.N X.&.i./ l.J } } N ( / E Z.C.} / Y +.i.l.Y.l.l.f.m.i.",
"' / P P P / W } >.M.M.z.l.3.1X/.' &. .X &.3.l.0X5.E D.} J z / 0.F &./ / 3.N P +.&.P d.D Y m.N / &.z C.+.P / / &.F W ' W / / ' ' ",
"f.r.i.E >.&.i.i.f.1X1XT.1X Xd.0X' +.} E 3.E i.5.3.( ' E i.j ' / + o N Y X.N / / f.&.&.( &.F z / &.o L.Y P E &.i.i.f.i.i.f.i.p.f.",
"J P / E P } W / ( } >./ } 7.} i.C &.( j &.} ( / / I / N f.j P >.N j c &.+.k / P P P E ( / ' N } Y X f.W +./ R ' P P ( ( ( R ( ' "
};
